# DragonNest Model Browser v1.0a

v -2.446587 -18.583828 2.231425
v 2.122738 -18.517879 2.234896
v -0.367325 -11.505078 2.649209
v 0.240406 -11.505403 2.649086
v -0.331779 0.755152 2.857930
v 0.181389 0.755117 2.858772
v 0.008492 21.885513 2.781267
v 0.008499 21.886536 -1.451984
v 0.185905 0.755066 -1.528988
v -0.337265 0.755085 -1.528068
v -0.370380 -11.503780 -1.316001
v 0.244083 -11.505263 -1.315853
v 2.119942 -18.528934 -0.895151
v -2.460133 -18.588308 -0.891230
v 0.008152 46.827370 0.686795
v 1.370178 45.045753 0.686794
v 0.008152 44.937897 -0.394552
v 3.198479 36.980087 0.686727
v 0.008148 36.927635 -0.819419
v 3.817936 21.900913 0.696000
v 0.008499 21.886536 -1.451984
v 4.553623 7.282127 0.708901
v 0.185905 0.755066 -1.528988
v 5.353439 -4.972076 0.700099
v 0.244083 -11.505263 -1.315853
v 5.435734 -19.060930 0.685751
v 2.119942 -18.528934 -0.895151
v -2.460133 -18.588308 -0.891230
v -5.466164 -19.110641 0.688717
v -0.370380 -11.503780 -1.316001
v -5.377243 -4.971733 0.700161
v -0.337265 0.755085 -1.528068
v -4.573784 7.283501 0.709054
v 0.008499 21.886536 -1.451984
v -3.801609 21.901783 0.696006
v 0.008148 36.927635 -0.819419
v -3.182175 36.980095 0.686728
v -1.353867 45.045761 0.686794
v 0.008152 44.937897 -0.394552
v 0.008152 46.827370 0.686795
v 0.008152 46.827370 0.686795
v -1.353867 45.045761 0.686794
v 0.008148 44.937912 1.768142
v 0.008152 36.926636 2.193060
v -3.182175 36.980095 0.686728
v -3.801609 21.901783 0.696006
v 0.008492 21.885513 2.781267
v -4.573784 7.283501 0.709054
v -0.331779 0.755152 2.857930
v -5.377243 -4.971733 0.700161
v -0.367325 -11.505078 2.649209
v -5.466164 -19.110641 0.688717
v -2.446587 -18.583828 2.231425
v 2.122738 -18.517879 2.234896
v 5.435734 -19.060930 0.685751
v 0.240406 -11.505403 2.649086
v 5.353439 -4.972076 0.700099
v 0.181389 0.755117 2.858772
v 4.553623 7.282127 0.708901
v 0.008492 21.885513 2.781267
v 3.817936 21.900913 0.696000
v 0.008152 36.926636 2.193060
v 3.198479 36.980087 0.686727
v 0.008148 44.937912 1.768142
v 1.370178 45.045753 0.686794
v 0.008152 46.827370 0.686795
v -5.466164 -19.110641 0.688717
v -2.301846 -18.587107 1.571659
v -2.446587 -18.583828 2.231425
v 1.994900 -18.512873 1.571657
v 2.122738 -18.517879 2.234896
v 4.760281 -19.064838 0.686203
v 5.435734 -19.060930 0.685751
v 1.988125 -18.524307 -0.232689
v 2.119942 -18.528934 -0.895151
v -2.309944 -18.592804 -0.232689
v -2.460133 -18.588308 -0.891230
v -4.790714 -19.114853 0.686204

vn -0.000093 0.058944 -0.998261
vn -0.000131 0.058930 -0.998262
vn -0.000152 0.044970 -0.998988
vn 0.000426 0.031022 -0.999519
vn 0.001029 0.010159 -0.999948
vn 0.001641 0.006727 -0.999976
vn 0.001640 -0.003654 -0.999992
vn 0.001757 -0.003629 0.999992
vn 0.001105 0.010348 0.999946
vn 0.001757 0.006832 0.999975
vn 0.000386 0.038575 0.999256
vn -0.000147 0.038581 0.999255
vn -0.000008 0.059796 0.998211
vn 0.000079 0.059827 0.998209
vn -0.544829 -0.416515 0.727789
vn -0.583159 -0.280272 0.762479
vn -0.536257 -0.204533 0.818899
vn -0.490475 -0.068116 0.868789
vn -0.448009 -0.033862 0.893387
vn -0.469723 -0.025860 0.882435
vn -0.476609 -0.022534 0.878826
vn -0.453827 -0.019730 0.890871
vn -0.417734 -0.006996 0.908543
vn -0.389674 -0.005680 0.920936
vn -0.395145 -0.017361 0.918455
vn -0.401203 -0.033175 0.915388
vn -0.437749 -0.063192 0.896874
vn 0.475353 -0.087729 0.875410
vn 0.423833 -0.045525 0.904596
vn 0.412809 -0.025371 0.910464
vn 0.397458 -0.005720 0.917603
vn 0.425483 -0.008241 0.904929
vn 0.459001 -0.021587 0.888173
vn 0.478646 -0.024136 0.877676
vn 0.469670 -0.026257 0.882452
vn 0.492381 -0.048029 0.869053
vn 0.425470 -0.056549 0.903204
vn 0.539880 -0.188429 0.820380
vn 0.593204 -0.233449 0.770461
vn 0.544829 -0.416514 0.727790
vn 0.544832 -0.416515 -0.727787
vn 0.539888 -0.188426 -0.820376
vn 0.593207 -0.233450 -0.770459
vn 0.489649 -0.047722 -0.870613
vn 0.425478 -0.057100 -0.903166
vn 0.462257 -0.026174 -0.886359
vn 0.466374 -0.023586 -0.884273
vn 0.446076 -0.021092 -0.894746
vn 0.412502 -0.007492 -0.910926
vn 0.386369 -0.004552 -0.922333
vn 0.402537 -0.023865 -0.915093
vn 0.413979 -0.043154 -0.909263
vn 0.464995 -0.084573 -0.881265
vn -0.431144 -0.062566 -0.900111
vn -0.393568 -0.031886 -0.918742
vn -0.386424 -0.016554 -0.922173
vn -0.378911 -0.004371 -0.925423
vn -0.404971 -0.006282 -0.914308
vn -0.441059 -0.019294 -0.897271
vn -0.464407 -0.022032 -0.885348
vn -0.462311 -0.025779 -0.886343
vn -0.444286 -0.033450 -0.895260
vn -0.490481 -0.068484 -0.868757
vn -0.536268 -0.204528 -0.818893
vn -0.583161 -0.280266 -0.762479
vn -0.544830 -0.416515 -0.727788
vn -0.152671 0.987531 -0.038402
vn -0.152671 0.987531 -0.038402
vn -0.152671 0.987531 -0.038402
vn 0.186843 0.981973 -0.028600
vn -0.005670 0.939835 -0.341583
vn -0.004607 0.855785 0.517310
vn 0.147899 0.988746 0.022523
vn -0.015934 0.999821 -0.010154
vn -0.012953 0.999868 0.009782
vn -0.188052 0.980906 0.049586
vn 0.007107 0.945327 0.326048
vn 0.003398 0.854765 -0.519005

vt 0.486173 0.592157
vt 0.488146 0.593283
vt 0.486119 0.623623
vt 0.488182 0.623638
vt 0.486439 0.691475
vt 0.487893 0.691475
vt 0.494054 0.771015
vt 0.494054 0.771015
vt 0.487886 0.691475
vt 0.486441 0.691475
vt 0.486120 0.623638
vt 0.488184 0.623637
vt 0.488143 0.593110
vt 0.486169 0.592071
vt 0.495631 0.986203
vt 0.532671 0.941092
vt 0.495631 0.940575
vt 0.615504 0.860520
vt 0.493813 0.854296
vt 0.693188 0.774012
vt 0.494054 0.771015
vt 0.728360 0.691475
vt 0.487886 0.691475
vt 0.737871 0.623637
vt 0.488184 0.623637
vt 0.716290 0.584908
vt 0.488143 0.593110
vt 0.486169 0.592071
vt 0.271192 0.584149
vt 0.486120 0.623638
vt 0.249612 0.623637
vt 0.486441 0.691475
vt 0.259123 0.691475
vt 0.494054 0.771015
vt 0.295141 0.774055
vt 0.493813 0.854296
vt 0.372182 0.860622
vt 0.458591 0.941092
vt 0.495631 0.940575
vt 0.495631 0.986203
vt 0.495631 0.986203
vt 0.458591 0.941092
vt 0.495631 0.940575
vt 0.493813 0.854296
vt 0.372182 0.860622
vt 0.295141 0.774055
vt 0.494054 0.771015
vt 0.259123 0.691475
vt 0.486439 0.691475
vt 0.249612 0.623637
vt 0.486119 0.623623
vt 0.271192 0.584149
vt 0.486173 0.592157
vt 0.488146 0.593283
vt 0.716290 0.584908
vt 0.488182 0.623638
vt 0.737871 0.623637
vt 0.487893 0.691475
vt 0.728360 0.691475
vt 0.494054 0.771015
vt 0.693188 0.774012
vt 0.493813 0.854296
vt 0.615504 0.860520
vt 0.495631 0.940575
vt 0.532671 0.941092
vt 0.495631 0.986203
vt 0.271192 0.584149
vt 0.486173 0.592157
vt 0.486173 0.592157
vt 0.488146 0.593283
vt 0.488146 0.593283
vt 0.716290 0.584908
vt 0.716290 0.584908
vt 0.488143 0.593110
vt 0.488143 0.593110
vt 0.486169 0.592071
vt 0.486169 0.592071
vt 0.271192 0.584149

g 2
f 3/3/3 2/2/2 1/1/1
f 2/2/2 3/3/3 4/4/4
f 5/5/5 4/4/4 3/3/3
f 4/4/4 5/5/5 6/6/6
f 7/7/7 6/6/6 5/5/5
f 10/10/10 9/9/9 8/8/8
f 11/11/11 9/9/9 10/10/10
f 9/9/9 11/11/11 12/12/12
f 12/12/12 11/11/11 13/13/13
f 14/14/14 13/13/13 11/11/11
f 17/17/17 16/16/16 15/15/15
f 16/16/16 17/17/17 18/18/18
f 19/19/19 18/18/18 17/17/17
f 18/18/18 19/19/19 20/20/20
f 21/21/21 20/20/20 19/19/19
f 20/20/20 21/21/21 22/22/22
f 23/23/23 22/22/22 21/21/21
f 22/22/22 23/23/23 24/24/24
f 25/25/25 24/24/24 23/23/23
f 24/24/24 25/25/25 26/26/26
f 27/27/27 26/26/26 25/25/25
f 30/30/30 29/29/29 28/28/28
f 29/29/29 30/30/30 31/31/31
f 32/32/32 31/31/31 30/30/30
f 31/31/31 32/32/32 33/33/33
f 34/34/34 33/33/33 32/32/32
f 33/33/33 34/34/34 35/35/35
f 36/36/36 35/35/35 34/34/34
f 35/35/35 36/36/36 37/37/37
f 37/37/37 36/36/36 38/38/38
f 39/39/39 38/38/38 36/36/36
f 38/38/38 39/39/39 40/40/40
f 43/43/43 42/42/42 41/41/41
f 44/44/44 42/42/42 43/43/43
f 42/42/42 44/44/44 45/45/45
f 45/45/45 44/44/44 46/46/46
f 47/47/47 46/46/46 44/44/44
f 46/46/46 47/47/47 48/48/48
f 49/49/49 48/48/48 47/47/47
f 48/48/48 49/49/49 50/50/50
f 51/51/51 50/50/50 49/49/49
f 50/50/50 51/51/51 52/52/52
f 53/53/53 52/52/52 51/51/51
f 56/56/56 55/55/55 54/54/54
f 55/55/55 56/56/56 57/57/57
f 58/58/58 57/57/57 56/56/56
f 57/57/57 58/58/58 59/59/59
f 60/60/60 59/59/59 58/58/58
f 59/59/59 60/60/60 61/61/61
f 62/62/62 61/61/61 60/60/60
f 61/61/61 62/62/62 63/63/63
f 64/64/64 63/63/63 62/62/62
f 63/63/63 64/64/64 65/65/65
f 66/66/66 65/65/65 64/64/64
f 69/69/69 68/68/68 67/67/67
f 68/68/68 69/69/69 70/70/70
f 71/71/71 70/70/70 69/69/69
f 70/70/70 71/71/71 72/72/72
f 73/73/73 72/72/72 71/71/71
f 72/72/72 73/73/73 74/74/74
f 75/75/75 74/74/74 73/73/73
f 74/74/74 75/75/75 76/76/76
f 77/77/77 76/76/76 75/75/75
f 76/76/76 77/77/77 78/78/78
f 67/67/67 78/78/78 77/77/77
f 78/78/78 67/67/67 68/68/68
