# DragonNest Model Browser v1.0a

v -9.879253 -19.756084 1.432301
v -9.879253 -19.756084 -0.189929
v -2.306408 -17.928976 2.462007
v -2.306400 -17.928978 -1.219635
v -12.042080 -19.930538 1.877098
v -12.042080 -19.930538 -0.634725
v -9.879253 -19.756084 1.432301
v -9.879253 -19.756084 -0.189929
v -14.751106 -17.773148 1.277944
v -14.751106 -17.773148 -0.035572
v -12.042080 -19.930538 1.877098
v -12.042080 -19.930538 -0.634725
v -16.958450 -16.625143 1.096741
v -16.958450 -16.625143 0.145631
v -14.751106 -17.773148 1.277944
v -14.751106 -17.773148 -0.035572
v -14.738590 -21.572922 2.462007
v -14.738590 -21.572922 -1.219634
v -16.958450 -16.625143 1.096741
v -16.958450 -16.625143 0.145631
v -4.048069 -23.502016 1.607316
v -4.048069 -23.502016 -0.364944
v -14.738590 -21.572922 2.462007
v -14.738590 -21.572922 -1.219634
v -2.393559 -25.263432 2.116754
v -2.393559 -25.263432 -0.874382
v -4.048069 -23.502016 1.607316
v -4.048069 -23.502016 -0.364944
v 2.083416 -17.928978 -1.219635
v 9.656273 -19.756084 -0.189929
v 2.083412 -17.928978 2.462007
v 9.656273 -19.756084 1.432301
v 9.656273 -19.756084 -0.189929
v 11.819096 -19.930540 -0.634725
v 9.656273 -19.756084 1.432301
v 11.819096 -19.930540 1.877098
v 11.819096 -19.930540 -0.634725
v 14.528120 -17.773148 -0.035572
v 11.819096 -19.930540 1.877098
v 14.528120 -17.773148 1.277944
v 14.528120 -17.773148 -0.035572
v 16.735466 -16.625145 0.145631
v 14.528120 -17.773148 1.277944
v 16.735466 -16.625145 1.096741
v 16.735466 -16.625145 0.145631
v 14.515608 -21.572924 -1.219634
v 16.735466 -16.625145 1.096741
v 14.515608 -21.572924 2.462007
v 14.515608 -21.572924 -1.219634
v 3.825077 -23.502016 -0.364944
v 14.515608 -21.572924 2.462007
v 3.825077 -23.502018 1.607316
v 3.825077 -23.502016 -0.364944
v 2.170570 -25.263432 -0.874382
v 3.825077 -23.502018 1.607316
v 2.170570 -25.263432 2.116754
v 2.083416 -17.928978 -1.219635
v 2.083412 -17.928978 2.462007
v -0.069763 -12.243033 -1.151489
v -0.069763 -12.280203 2.394424
v -2.306408 -17.928976 2.462007
v -2.306400 -17.928978 -1.219635
v 2.410671 -26.357267 1.942812
v 2.410671 -26.357267 -0.700439
v -0.111496 -27.561579 2.164402
v -0.111496 -27.561579 -0.922030
v -2.633659 -26.357267 -0.700438
v -2.633659 -26.357267 1.942811
v 1.419003 -22.237272 0.716240
v 0.048943 -22.237274 -0.653822
v 1.510452 -37.414284 0.716240
v 0.048943 -37.414284 -0.745273
v -1.321121 -22.237274 0.716240
v -1.412571 -37.414284 0.716241
v 1.510452 -37.414284 0.716240
v 0.048939 -37.414284 2.177754
v 1.419003 -22.237272 0.716240
v 0.048943 -22.237274 2.086301
v -1.412571 -37.414284 0.716241
v -1.321121 -22.237274 0.716240
v -0.111496 -23.475159 -1.346832
v 2.083416 -17.928978 -1.219635
v -0.111492 -18.568230 -2.150720
v -0.069763 -12.243033 -1.151489
v -2.306400 -17.928978 -1.219635
v 16.735466 -16.625145 0.145631
v 14.528120 -17.773148 -0.035572
v 14.515608 -21.572924 -1.219634
v 11.819096 -19.930540 -0.634725
v 9.656273 -19.756084 -0.189929
v 3.825077 -23.502016 -0.364944
v 2.170570 -25.263432 -0.874382
v -0.111496 -24.305290 -1.289783
v -2.393559 -25.263432 -0.874382
v -4.048069 -23.502016 -0.364944
v -9.879253 -19.756084 -0.189929
v -14.738590 -21.572922 -1.219634
v -12.042080 -19.930538 -0.634725
v -14.751106 -17.773148 -0.035572
v -16.958450 -16.625143 0.145631
v -0.111496 -27.561579 2.164402
v 2.170570 -25.263432 2.116754
v 2.410671 -26.357267 1.942812
v 2.410671 -26.357267 -0.700439
v -0.111496 -27.561579 -0.922030
v -2.633659 -26.357267 -0.700438
v -2.633659 -26.357267 1.942811
v -2.393559 -25.263432 2.116754
v -0.111496 -24.305290 2.532156
v 1.562092 -21.033792 2.762128
v 2.083412 -17.928978 2.462007
v -16.958450 -16.625143 1.096741
v -14.751106 -17.773148 1.277944
v -14.738590 -21.572922 2.462007
v -12.042080 -19.930538 1.877098
v -9.879253 -19.756084 1.432301
v -4.048069 -23.502016 1.607316
v -2.306408 -17.928976 2.462007
v -1.785076 -21.033792 2.762128
v -0.111496 -23.543320 2.634657
v -0.111492 -18.568228 3.241802
v -0.069763 -12.280203 2.394424
v 3.825077 -23.502018 1.607316
v 9.656273 -19.756084 1.432301
v 14.515608 -21.572924 2.462007
v 11.819096 -19.930540 1.877098
v 14.528120 -17.773148 1.277944
v 16.735466 -16.625145 1.096741
v -3.149147 -47.164482 0.716242
v 0.048943 -49.787376 0.507666
v 0.048939 -47.164490 -2.481847
v 0.257519 -49.787376 0.716241
v 3.247028 -47.164490 0.716240
v 0.048943 -49.787376 0.924816
v 0.048939 -47.164482 3.914329
v -0.159634 -49.787376 0.716241
v -1.880962 -42.990631 0.716241
v 0.048939 -44.664848 -3.197827
v 0.048939 -42.990627 -1.213660
v 1.978840 -42.982494 0.716241
v 3.963005 -44.664848 0.716240
v 0.048939 -44.664841 4.630307
v 0.048939 -42.990627 2.646142
v -3.865128 -44.664841 0.716242
v 0.048943 -37.414284 -0.745273
v 1.845650 -37.984104 0.716240
v 1.510452 -37.414284 0.716240
v 0.048943 -37.984108 2.512949
v 0.048939 -37.414284 2.177754
v -1.747768 -37.984108 0.716241
v -1.412571 -37.414284 0.716241
v 0.048943 -37.984104 -1.080468

vn -0.234541 0.972106 -0.000000
vn -0.234541 0.972106 -0.000000
vn -0.234541 0.972106 -0.000000
vn -0.234541 0.972106 -0.000001
vn -0.080400 0.996763 0.000000
vn -0.080400 0.996763 -0.000000
vn -0.080400 0.996763 -0.000000
vn -0.080400 0.996763 -0.000000
vn 0.622963 0.782251 -0.000000
vn 0.622963 0.782251 -0.000000
vn 0.622963 0.782251 -0.000000
vn 0.622963 0.782251 -0.000000
vn 0.461411 0.887186 -0.000000
vn 0.461411 0.887186 -0.000000
vn 0.461411 0.887186 -0.000000
vn 0.461411 0.887187 -0.000000
vn -0.912379 -0.409346 0.000000
vn -0.912379 -0.409346 0.000000
vn -0.912379 -0.409346 0.000000
vn -0.912379 -0.409346 0.000000
vn -0.177581 -0.984106 0.000000
vn -0.177581 -0.984106 0.000000
vn -0.177581 -0.984106 0.000000
vn -0.177581 -0.984106 0.000000
vn -0.728879 -0.684642 0.000000
vn -0.728879 -0.684642 0.000000
vn -0.728879 -0.684642 0.000000
vn -0.728879 -0.684642 0.000000
vn 0.234541 0.972106 0.000000
vn 0.234541 0.972106 -0.000000
vn 0.234541 0.972106 -0.000000
vn 0.234540 0.972106 -0.000000
vn 0.080400 0.996763 -0.000000
vn 0.080400 0.996763 -0.000000
vn 0.080400 0.996763 -0.000000
vn 0.080400 0.996763 0.000000
vn -0.622963 0.782251 0.000000
vn -0.622963 0.782251 0.000000
vn -0.622963 0.782251 0.000000
vn -0.622963 0.782251 0.000000
vn -0.461411 0.887187 0.000000
vn -0.461411 0.887187 0.000000
vn -0.461411 0.887187 0.000000
vn -0.461411 0.887187 0.000000
vn 0.912379 -0.409346 -0.000000
vn 0.912379 -0.409346 -0.000000
vn 0.912379 -0.409346 -0.000000
vn 0.912379 -0.409346 -0.000000
vn 0.177581 -0.984106 0.000000
vn 0.177581 -0.984106 0.000000
vn 0.177581 -0.984106 0.000000
vn 0.177581 -0.984106 -0.000000
vn 0.728880 -0.684642 -0.000000
vn 0.728880 -0.684642 -0.000000
vn 0.728880 -0.684642 -0.000000
vn 0.728880 -0.684642 -0.000000
vn 0.935191 0.354143 0.000001
vn 0.934796 0.355180 0.001867
vn 0.006403 0.999966 0.005256
vn 0.006419 0.999924 0.010482
vn -0.930171 0.367121 0.001929
vn -0.930591 0.366060 -0.000001
vn 0.430890 -0.902405 -0.000000
vn 0.430890 -0.902405 -0.000000
vn -0.000000 -1.000000 -0.000000
vn -0.000000 -1.000000 -0.000000
vn -0.430890 -0.902404 0.000000
vn -0.430890 -0.902404 0.000000
vn 0.948668 0.005716 0.316223
vn 0.316223 0.005716 -0.948668
vn 0.961492 0.274536 -0.012778
vn -0.012778 0.274535 -0.961492
vn -0.948668 0.005716 -0.316223
vn -0.961492 0.274536 0.012777
vn 0.961492 0.274536 -0.012778
vn 0.012777 0.274535 0.961492
vn 0.948668 0.005716 0.316223
vn -0.316223 0.005716 0.948668
vn -0.961492 0.274536 0.012777
vn -0.948668 0.005716 -0.316223
vn -0.225125 -0.066801 -0.972037
vn 0.350649 0.143876 -0.925389
vn -0.349233 0.148464 -0.925200
vn -0.349233 0.148464 -0.925200
vn -0.349233 0.148464 -0.925200
vn -0.076255 0.296867 -0.951869
vn -0.025828 0.297482 -0.954378
vn -0.199780 0.020871 -0.979618
vn -0.199780 0.020871 -0.979618
vn 0.105686 -0.118390 -0.987327
vn 0.105686 -0.118390 -0.987327
vn 0.160793 -0.044502 -0.985984
vn -0.160793 -0.044502 -0.985984
vn -0.160793 -0.044502 -0.985984
vn -0.333058 -0.040387 -0.942041
vn -0.105686 -0.118390 -0.987327
vn 0.118716 0.229932 -0.965939
vn 0.199780 0.020872 -0.979618
vn 0.025828 0.297482 -0.954378
vn 0.076255 0.296866 -0.951869
vn -0.145513 -0.124144 0.981537
vn 0.333059 -0.040387 0.942041
vn 0.976746 0.214399 -0.000000
vn 0.976746 0.214399 -0.000000
vn -0.132581 -0.111232 -0.984911
vn -0.976746 0.214400 0.000000
vn -0.976746 0.214400 0.000000
vn -0.333059 -0.040387 0.942041
vn -0.132581 -0.111232 0.984911
vn 0.624170 -0.029334 0.780738
vn 0.333059 -0.040387 0.942041
vn 0.076256 0.296867 0.951869
vn 0.025828 0.297482 0.954378
vn 0.118716 0.229932 0.965939
vn 0.199780 0.020871 0.979618
vn 0.118716 0.229932 0.965939
vn -0.333059 -0.040387 0.942041
vn -0.333059 -0.040387 0.942041
vn -0.624168 -0.029335 0.780740
vn -0.123475 -0.132301 0.983489
vn -0.298278 0.129418 0.945665
vn -0.298278 0.129418 0.945665
vn 0.333059 -0.040387 0.942041
vn -0.199780 0.020870 0.979618
vn -0.199780 0.020870 0.979618
vn -0.199780 0.020870 0.979618
vn -0.025828 0.297482 0.954378
vn -0.076256 0.296867 0.951869
vn -0.832568 -0.553010 0.031796
vn -0.129390 -0.912460 -0.388169
vn -0.031796 -0.553010 -0.832568
vn 0.490472 -0.855984 -0.163491
vn 0.832568 -0.553010 -0.031795
vn 0.129389 -0.912460 0.388170
vn 0.031795 -0.553009 0.832568
vn -0.490472 -0.855983 0.163491
vn -0.844561 0.517044 -0.139221
vn 0.146177 0.416607 -0.897258
vn 0.198819 0.378446 -0.904019
vn 0.844610 0.516946 0.139285
vn 0.955710 0.206956 0.209257
vn -0.146521 0.416586 0.897211
vn -0.199879 0.378357 0.903822
vn -0.955433 0.208144 -0.209340
vn -0.012778 0.274535 -0.961492
vn 0.913291 0.270581 -0.304442
vn 0.961492 0.274536 -0.012778
vn 0.304421 0.270572 0.913301
vn 0.012777 0.274535 0.961492
vn -0.913298 0.270567 0.304433
vn -0.961492 0.274536 0.012777
vn -0.304432 0.270567 -0.913299

vt 0.210103 0.249331
vt 0.210103 0.249331
vt 0.434857 0.298416
vt 0.434857 0.298416
vt 0.145913 0.244645
vt 0.145913 0.244645
vt 0.210103 0.249331
vt 0.210103 0.249331
vt 0.065512 0.302602
vt 0.065512 0.302602
vt 0.145913 0.244645
vt 0.145913 0.244645
vt 0.000000 0.333442
vt 0.000000 0.333442
vt 0.065512 0.302602
vt 0.065512 0.302602
vt 0.065883 0.200523
vt 0.065883 0.200523
vt 0.000000 0.333442
vt 0.000000 0.333442
vt 0.383167 0.148699
vt 0.383167 0.148699
vt 0.065883 0.200523
vt 0.065883 0.200523
vt 0.432271 0.101380
vt 0.432271 0.101380
vt 0.383167 0.148699
vt 0.383167 0.148699
vt 0.565143 0.298416
vt 0.789897 0.249332
vt 0.565143 0.298416
vt 0.789897 0.249332
vt 0.789897 0.249332
vt 0.854087 0.244645
vt 0.789897 0.249332
vt 0.854087 0.244645
vt 0.854087 0.244645
vt 0.934488 0.302602
vt 0.854087 0.244645
vt 0.934488 0.302602
vt 0.934488 0.302602
vt 1.000000 0.333442
vt 0.934488 0.302602
vt 1.000000 0.333442
vt 1.000000 0.333442
vt 0.934117 0.200523
vt 1.000000 0.333442
vt 0.934117 0.200523
vt 0.934117 0.200523
vt 0.616833 0.148700
vt 0.934117 0.200523
vt 0.616833 0.148700
vt 0.616833 0.148700
vt 0.567729 0.101380
vt 0.616833 0.148700
vt 0.567729 0.101380
vt 0.565143 0.298416
vt 0.565143 0.298416
vt 0.501238 0.451165
vt 0.501238 0.450166
vt 0.434857 0.298416
vt 0.434857 0.298416
vt 0.574855 0.071995
vt 0.574855 0.071995
vt 0.500000 0.039642
vt 0.500000 0.039642
vt 0.425145 0.071995
vt 0.425145 0.071995
vt 0.949191 0.975754
vt 0.910893 0.964686
vt 0.951748 0.803317
vt 0.910893 0.803317
vt 0.872241 0.958058
vt 0.869685 0.803330
vt 0.872241 0.958058
vt 0.831032 0.940361
vt 0.869685 0.803330
vt 0.831032 0.803342
vt 0.790178 0.918224
vt 0.792734 0.803342
vt 0.500000 0.149421
vt 0.565143 0.298416
vt 0.500000 0.281242
vt 0.501238 0.451165
vt 0.434857 0.298416
vt 1.000000 0.333442
vt 0.934488 0.302602
vt 0.934117 0.200523
vt 0.854087 0.244645
vt 0.789897 0.249332
vt 0.616833 0.148700
vt 0.567729 0.101380
vt 0.500000 0.127120
vt 0.432271 0.101380
vt 0.383167 0.148699
vt 0.210103 0.249331
vt 0.065883 0.200523
vt 0.145913 0.244645
vt 0.065512 0.302602
vt 0.000000 0.333442
vt 0.500000 0.039642
vt 0.567729 0.101380
vt 0.574855 0.071995
vt 0.574855 0.071995
vt 0.500000 0.039642
vt 0.425145 0.071995
vt 0.425145 0.071995
vt 0.432271 0.101380
vt 0.500000 0.127120
vt 0.549670 0.215007
vt 0.565143 0.298416
vt 0.000000 0.333442
vt 0.065512 0.302602
vt 0.065883 0.200523
vt 0.145913 0.244645
vt 0.210103 0.249331
vt 0.383167 0.148699
vt 0.434857 0.298416
vt 0.450330 0.215007
vt 0.500000 0.147590
vt 0.500000 0.281242
vt 0.501238 0.450166
vt 0.616833 0.148700
vt 0.789897 0.249332
vt 0.934117 0.200523
vt 0.854087 0.244645
vt 0.934488 0.302602
vt 1.000000 0.333442
vt 0.784681 0.756578
vt 0.872626 0.722576
vt 0.872626 0.756578
vt 0.878362 0.722576
vt 0.960571 0.756578
vt 0.872626 0.722576
vt 0.872626 0.756578
vt 0.866890 0.722576
vt 0.819555 0.813463
vt 0.872626 0.790579
vt 0.872626 0.813463
vt 0.925697 0.813463
vt 0.980259 0.790579
vt 0.872626 0.790579
vt 0.872626 0.813463
vt 0.764993 0.790579
vt 0.872626 0.885115
vt 0.922034 0.877365
vt 0.912817 0.885115
vt 0.872626 0.877365
vt 0.872626 0.885115
vt 0.823218 0.877365
vt 0.832088 0.885135
vt 0.872626 0.877365

g cap
f 3/3/3 2/2/2 1/1/1
f 2/2/2 3/3/3 4/4/4
f 7/7/7 6/6/6 5/5/5
f 6/6/6 7/7/7 8/8/8
f 11/11/11 10/10/10 9/9/9
f 10/10/10 11/11/11 12/12/12
f 15/15/15 14/14/14 13/13/13
f 14/14/14 15/15/15 16/16/16
f 19/19/19 18/18/18 17/17/17
f 18/18/18 19/19/19 20/20/20
f 23/23/23 22/22/22 21/21/21
f 22/22/22 23/23/23 24/24/24
f 27/27/27 26/26/26 25/25/25
f 26/26/26 27/27/27 28/28/28
f 31/31/31 30/30/30 29/29/29
f 30/30/30 31/31/31 32/32/32
f 35/35/35 34/34/34 33/33/33
f 34/34/34 35/35/35 36/36/36
f 39/39/39 38/38/38 37/37/37
f 38/38/38 39/39/39 40/40/40
f 43/43/43 42/42/42 41/41/41
f 42/42/42 43/43/43 44/44/44
f 47/47/47 46/46/46 45/45/45
f 46/46/46 47/47/47 48/48/48
f 51/51/51 50/50/50 49/49/49
f 50/50/50 51/51/51 52/52/52
f 55/55/55 54/54/54 53/53/53
f 54/54/54 55/55/55 56/56/56
f 59/59/59 58/58/58 57/57/57
f 58/58/58 59/59/59 60/60/60
f 60/60/60 59/59/59 61/61/61
f 62/62/62 61/61/61 59/59/59
f 65/65/65 64/64/64 63/63/63
f 64/64/64 65/65/65 66/66/66
f 66/66/66 65/65/65 67/67/67
f 68/68/68 67/67/67 65/65/65
f 71/71/71 70/70/70 69/69/69
f 72/72/72 70/70/70 71/71/71
f 70/70/70 72/72/72 73/73/73
f 74/74/74 73/73/73 72/72/72
f 77/77/77 76/76/76 75/75/75
f 78/78/78 76/76/76 77/77/77
f 76/76/76 78/78/78 79/79/79
f 80/80/80 79/79/79 78/78/78
f 83/83/83 82/82/82 81/81/81
f 82/82/82 83/83/83 84/84/84
f 84/84/84 83/83/83 85/85/85
f 81/81/81 85/85/85 83/83/83
f 88/88/88 87/87/87 86/86/86
f 87/87/87 88/88/88 89/89/89
f 89/89/89 88/88/88 90/90/90
f 91/91/91 90/90/90 88/88/88
f 90/90/90 91/91/91 82/82/82
f 92/92/92 82/82/82 91/91/91
f 93/93/93 82/82/82 92/92/92
f 82/82/82 93/93/93 81/81/81
f 81/81/81 93/93/93 85/85/85
f 94/94/94 85/85/85 93/93/93
f 95/95/95 85/85/85 94/94/94
f 85/85/85 95/95/95 96/96/96
f 97/97/97 96/96/96 95/95/95
f 96/96/96 97/97/97 98/98/98
f 98/98/98 97/97/97 99/99/99
f 100/100/100 99/99/99 97/97/97
f 103/103/103 102/102/102 101/101/101
f 102/102/102 103/103/103 92/92/92
f 104/104/104 92/92/92 103/103/103
f 105/105/105 92/92/92 104/104/104
f 92/92/92 105/105/105 93/93/93
f 93/93/93 105/105/105 94/94/94
f 106/106/106 94/94/94 105/105/105
f 107/107/107 94/94/94 106/106/106
f 94/94/94 107/107/107 108/108/108
f 101/101/101 108/108/108 107/107/107
f 108/108/108 101/101/101 109/109/109
f 102/102/102 109/109/109 101/101/101
f 109/109/109 102/102/102 110/110/110
f 110/110/110 102/102/102 111/111/111
f 114/114/114 113/113/113 112/112/112
f 113/113/113 114/114/114 115/115/115
f 115/115/115 114/114/114 116/116/116
f 117/117/117 116/116/116 114/114/114
f 116/116/116 117/117/117 118/118/118
f 108/108/108 118/118/118 117/117/117
f 118/118/118 108/108/108 119/119/119
f 109/109/109 119/119/119 108/108/108
f 119/119/119 109/109/109 120/120/120
f 110/110/110 120/120/120 109/109/109
f 121/121/121 120/120/120 110/110/110
f 120/120/120 121/121/121 119/119/119
f 119/119/119 121/121/121 118/118/118
f 118/118/118 121/121/121 122/122/122
f 122/122/122 121/121/121 111/111/111
f 110/110/110 111/111/111 121/121/121
f 123/123/123 111/111/111 102/102/102
f 111/111/111 123/123/123 124/124/124
f 125/125/125 124/124/124 123/123/123
f 124/124/124 125/125/125 126/126/126
f 126/126/126 125/125/125 127/127/127
f 128/128/128 127/127/127 125/125/125
f 131/131/131 130/130/130 129/129/129
f 130/130/130 131/131/131 132/132/132
f 133/133/133 132/132/132 131/131/131
f 132/132/132 133/133/133 134/134/134
f 135/135/135 134/134/134 133/133/133
f 134/134/134 135/135/135 136/136/136
f 129/129/129 136/136/136 135/135/135
f 130/130/130 136/136/136 129/129/129
f 136/136/136 130/130/130 134/134/134
f 132/132/132 134/134/134 130/130/130
f 139/139/139 138/138/138 137/137/137
f 140/140/140 138/138/138 139/139/139
f 138/138/138 140/140/140 141/141/141
f 141/141/141 140/140/140 142/142/142
f 143/143/143 142/142/142 140/140/140
f 137/137/137 142/142/142 143/143/143
f 142/142/142 137/137/137 144/144/144
f 138/138/138 144/144/144 137/137/137
f 144/144/144 138/138/138 131/131/131
f 131/131/131 138/138/138 133/133/133
f 141/141/141 133/133/133 138/138/138
f 133/133/133 141/141/141 135/135/135
f 142/142/142 135/135/135 141/141/141
f 135/135/135 142/142/142 129/129/129
f 144/144/144 129/129/129 142/142/142
f 129/129/129 144/144/144 131/131/131
f 147/147/147 146/146/146 145/145/145
f 146/146/146 147/147/147 148/148/148
f 149/149/149 148/148/148 147/147/147
f 148/148/148 149/149/149 150/150/150
f 151/151/151 150/150/150 149/149/149
f 150/150/150 151/151/151 152/152/152
f 145/145/145 152/152/152 151/151/151
f 146/146/146 152/152/152 145/145/145
f 152/152/152 146/146/146 139/139/139
f 139/139/139 146/146/146 140/140/140
f 148/148/148 140/140/140 146/146/146
f 140/140/140 148/148/148 143/143/143
f 150/150/150 143/143/143 148/148/148
f 143/143/143 150/150/150 137/137/137
f 152/152/152 137/137/137 150/150/150
f 137/137/137 152/152/152 139/139/139
