# DragonNest Model Browser v1.0a

v 0.008141 21.870045 2.105979
v 0.051758 0.760834 2.195887
v -0.197910 0.760841 2.195888
v 0.157085 -11.492722 1.978899
v -0.284798 -11.493726 1.978900
v 1.994900 -18.512873 1.571657
v -2.301846 -18.587107 1.571659
v -2.309944 -18.592804 -0.232689
v 1.988125 -18.524307 -0.232689
v -0.284695 -11.492732 -0.646084
v 0.157440 -11.492731 -0.646085
v 0.050667 0.760841 -0.867225
v -0.197605 0.760841 -0.867225
v 0.008141 21.870045 -0.776720
v 0.008152 46.151909 0.686795
v 0.732548 44.822861 0.686795
v 0.008148 44.822868 1.102546
v 2.528297 36.895782 0.686796
v 0.008152 36.895790 1.518300
v 3.143192 21.870045 0.691340
v 0.008141 21.870045 2.105979
v 3.879143 7.246208 0.702697
v 0.051758 0.760834 2.195887
v 4.678902 -5.007353 0.696627
v 0.157085 -11.492722 1.978899
v 4.760281 -19.064838 0.686203
v 1.994900 -18.512873 1.571657
v 0.008152 46.151909 0.686795
v 0.008148 44.822868 1.102546
v -0.716236 44.822868 0.686795
v 0.008152 36.895790 1.518300
v -2.511993 36.895790 0.686797
v -3.126904 21.870049 0.691343
v 0.008141 21.870045 2.105979
v -3.899380 7.246223 0.702704
v -0.197910 0.760841 2.195888
v -4.702728 -5.007353 0.696633
v -0.284798 -11.493726 1.978900
v -4.790714 -19.114853 0.686204
v -2.301846 -18.587107 1.571659
v 1.988125 -18.524307 -0.232689
v 4.760281 -19.064838 0.686203
v 0.157440 -11.492731 -0.646085
v 4.678902 -5.007353 0.696627
v 0.050667 0.760841 -0.867225
v 3.879143 7.246208 0.702697
v 0.008141 21.870045 -0.776720
v 3.143192 21.870045 0.691340
v 0.008148 36.895790 -0.144705
v 2.528297 36.895782 0.686796
v 0.008152 44.822861 0.271044
v 0.732548 44.822861 0.686795
v 0.008152 46.151909 0.686795
v -2.309944 -18.592804 -0.232689
v -0.284695 -11.492732 -0.646084
v -4.790714 -19.114853 0.686204
v -4.702728 -5.007353 0.696633
v -0.197605 0.760841 -0.867225
v -3.899380 7.246223 0.702704
v 0.008141 21.870045 -0.776720
v -3.126904 21.870049 0.691343
v 0.008148 36.895790 -0.144705
v -2.511993 36.895790 0.686797
v -0.716236 44.822868 0.686795
v 0.008152 44.822861 0.271044
v 0.008152 46.151909 0.686795

vn 0.000004 0.004259 0.999991
vn 0.000004 -0.006724 0.999977
vn 0.000017 -0.010384 0.999946
vn 0.000060 -0.031101 0.999516
vn 0.000390 -0.044402 0.999014
vn 0.000564 -0.057739 0.998332
vn 0.000995 -0.057599 0.998339
vn 0.000930 -0.058390 -0.998293
vn 0.000464 -0.058540 -0.998285
vn 0.000232 -0.038300 -0.999266
vn -0.000002 -0.038375 -0.999263
vn -0.000001 -0.010601 -0.999944
vn -0.000001 -0.006879 -0.999976
vn -0.000001 0.004287 -0.999991
vn 0.480406 0.261845 0.837047
vn 0.488945 0.187494 0.851926
vn 0.433027 0.142430 0.890057
vn 0.375638 0.058615 0.924911
vn 0.346224 0.032871 0.937576
vn 0.378997 0.023409 0.925102
vn 0.393101 0.020591 0.919265
vn 0.366811 0.015783 0.930162
vn 0.326957 0.003832 0.945032
vn 0.298652 0.002546 0.954359
vn 0.291107 0.004109 0.956682
vn 0.290680 0.013378 0.956727
vn 0.309523 0.025889 0.950540
vn -0.480410 0.261845 0.837045
vn -0.491795 0.154572 0.856881
vn -0.434096 0.127208 0.891840
vn -0.384979 0.041400 0.921996
vn -0.313052 0.041973 0.948808
vn -0.378993 0.023752 0.925095
vn -0.395144 0.021864 0.918359
vn -0.371785 0.017281 0.928158
vn -0.334247 0.004872 0.942473
vn -0.305763 0.002708 0.952104
vn -0.306586 0.009983 0.951791
vn -0.310474 0.022372 0.950319
vn -0.343075 0.043687 0.938292
vn 0.319337 0.027450 -0.947244
vn 0.300545 0.014900 -0.953651
vn 0.301647 0.005084 -0.953406
vn 0.310498 0.003609 -0.950567
vn 0.340847 0.004406 -0.940108
vn 0.380978 0.016140 -0.924443
vn 0.406945 0.021152 -0.913208
vn 0.387656 0.023783 -0.921497
vn 0.350600 0.033504 -0.935926
vn 0.375641 0.058423 -0.924922
vn 0.433026 0.142430 -0.890057
vn 0.488945 0.187494 -0.851927
vn 0.480405 0.261845 -0.837047
vn -0.355659 0.047101 -0.933428
vn -0.318202 0.011562 -0.947952
vn -0.321832 0.024824 -0.946471
vn -0.317847 0.003763 -0.948135
vn -0.348403 0.005484 -0.937329
vn -0.386137 0.017702 -0.922272
vn -0.409067 0.022481 -0.912227
vn -0.387653 0.024137 -0.921489
vn -0.388221 0.041872 -0.920614
vn -0.313055 0.041686 -0.948820
vn -0.434093 0.127207 -0.891841
vn -0.491791 0.154571 -0.856883
vn -0.480406 0.261843 -0.837048

vt 0.494054 0.771015
vt 0.487893 0.691475
vt 0.486439 0.691475
vt 0.488182 0.623638
vt 0.486119 0.623623
vt 0.488146 0.593283
vt 0.486173 0.592157
vt 0.486169 0.592071
vt 0.488143 0.593110
vt 0.486120 0.623638
vt 0.488184 0.623637
vt 0.487886 0.691475
vt 0.486441 0.691475
vt 0.494054 0.771015
vt 0.495631 0.986203
vt 0.532671 0.941092
vt 0.495631 0.940575
vt 0.615504 0.860520
vt 0.493813 0.854296
vt 0.693188 0.774012
vt 0.494054 0.771015
vt 0.728360 0.691475
vt 0.487893 0.691475
vt 0.737871 0.623637
vt 0.488182 0.623638
vt 0.716290 0.584908
vt 0.488146 0.593283
vt 0.495631 0.986203
vt 0.495631 0.940575
vt 0.458591 0.941092
vt 0.493813 0.854296
vt 0.372182 0.860622
vt 0.295141 0.774055
vt 0.494054 0.771015
vt 0.259123 0.691475
vt 0.486439 0.691475
vt 0.249612 0.623637
vt 0.486119 0.623623
vt 0.271192 0.584149
vt 0.486173 0.592157
vt 0.488143 0.593110
vt 0.716290 0.584908
vt 0.488184 0.623637
vt 0.737871 0.623637
vt 0.487886 0.691475
vt 0.728360 0.691475
vt 0.494054 0.771015
vt 0.693188 0.774012
vt 0.493813 0.854296
vt 0.615504 0.860520
vt 0.495631 0.940575
vt 0.532671 0.941092
vt 0.495631 0.986203
vt 0.486169 0.592071
vt 0.486120 0.623638
vt 0.271192 0.584149
vt 0.249612 0.623637
vt 0.486441 0.691475
vt 0.259123 0.691475
vt 0.494054 0.771015
vt 0.295141 0.774055
vt 0.493813 0.854296
vt 0.372182 0.860622
vt 0.458591 0.941092
vt 0.495631 0.940575
vt 0.495631 0.986203

g line
f 3/3/3 2/2/2 1/1/1
f 2/2/2 3/3/3 4/4/4
f 5/5/5 4/4/4 3/3/3
f 4/4/4 5/5/5 6/6/6
f 7/7/7 6/6/6 5/5/5
f 10/10/10 9/9/9 8/8/8
f 9/9/9 10/10/10 11/11/11
f 11/11/11 10/10/10 12/12/12
f 13/13/13 12/12/12 10/10/10
f 12/12/12 13/13/13 14/14/14
f 17/17/17 16/16/16 15/15/15
f 16/16/16 17/17/17 18/18/18
f 19/19/19 18/18/18 17/17/17
f 18/18/18 19/19/19 20/20/20
f 21/21/21 20/20/20 19/19/19
f 20/20/20 21/21/21 22/22/22
f 23/23/23 22/22/22 21/21/21
f 22/22/22 23/23/23 24/24/24
f 25/25/25 24/24/24 23/23/23
f 24/24/24 25/25/25 26/26/26
f 27/27/27 26/26/26 25/25/25
f 30/30/30 29/29/29 28/28/28
f 29/29/29 30/30/30 31/31/31
f 32/32/32 31/31/31 30/30/30
f 33/33/33 31/31/31 32/32/32
f 31/31/31 33/33/33 34/34/34
f 35/35/35 34/34/34 33/33/33
f 34/34/34 35/35/35 36/36/36
f 37/37/37 36/36/36 35/35/35
f 36/36/36 37/37/37 38/38/38
f 39/39/39 38/38/38 37/37/37
f 38/38/38 39/39/39 40/40/40
f 43/43/43 42/42/42 41/41/41
f 42/42/42 43/43/43 44/44/44
f 45/45/45 44/44/44 43/43/43
f 44/44/44 45/45/45 46/46/46
f 47/47/47 46/46/46 45/45/45
f 46/46/46 47/47/47 48/48/48
f 49/49/49 48/48/48 47/47/47
f 48/48/48 49/49/49 50/50/50
f 51/51/51 50/50/50 49/49/49
f 50/50/50 51/51/51 52/52/52
f 53/53/53 52/52/52 51/51/51
f 56/56/56 55/55/55 54/54/54
f 57/57/57 55/55/55 56/56/56
f 55/55/55 57/57/57 58/58/58
f 59/59/59 58/58/58 57/57/57
f 58/58/58 59/59/59 60/60/60
f 61/61/61 60/60/60 59/59/59
f 60/60/60 61/61/61 62/62/62
f 63/63/63 62/62/62 61/61/61
f 64/64/64 62/62/62 63/63/63
f 62/62/62 64/64/64 65/65/65
f 66/66/66 65/65/65 64/64/64
