# DragonNest Model Browser v1.0a

v 271.062500 381.236084 2799.652588
v 270.172852 763.919800 2479.466064
v 644.309570 381.583130 2751.987549
v 614.445313 764.267578 2408.918701
v 271.062500 316.426392 2799.652588
v 644.309570 316.773682 2751.987549
v 1077.723633 317.121094 2643.308838
v 1077.722656 381.930420 2643.308350
v 971.253906 764.614746 2317.718994
v -1077.724609 381.930786 2643.308350
v -644.312500 381.583862 2751.988525
v -1077.725586 317.121582 2643.308350
v -644.312500 316.774048 2751.988525
v -271.064453 316.426758 2799.652588
v -271.064453 381.236328 2799.652588
v -270.174805 763.920532 2479.466064
v -614.446289 764.267944 2408.919189
v -971.254883 764.615479 2317.719971
v 1016.767578 232.987671 2523.410400
v 1016.767578 -1063.370605 2523.410400
v 611.685547 232.640259 2621.749268
v 611.685547 -1063.718262 2621.747314
v 256.201172 232.292847 2669.982178
v 256.200195 -1064.065674 2669.981689
v -1016.771484 232.988037 2523.410400
v -1077.725586 317.121582 2643.308350
v -611.687500 232.640625 2621.748291
v -644.312500 316.774048 2751.988525
v -256.203125 232.293579 2669.982666
v -271.064453 316.426758 2799.652588
v -2828.185059 235.766602 22.505859
v -2960.236816 319.900269 41.401855
v -2782.979492 235.419189 396.930908
v -2923.769043 319.553101 429.406982
v -2680.451660 235.072021 836.725098
v -2815.819824 319.205811 892.739502
v 2680.451172 -1061.286621 836.724854
v 2680.450195 235.071777 836.725098
v 2782.977539 -1060.939453 396.930908
v 2782.977539 235.419067 396.930908
v 2828.183594 -1060.592285 22.506104
v 2828.183594 235.766479 22.505859
v -256.203125 -1064.065186 2669.981689
v -256.203125 232.293579 2669.982666
v -0.000977 -1064.065430 2670.066650
v -0.000977 232.292969 2670.067139
v 256.201172 232.292847 2669.982178
v 256.200195 -1064.065674 2669.981689
v 271.062500 316.426392 2799.652588
v 256.201172 232.292847 2669.982178
v -0.000977 316.426514 2799.652588
v -0.000977 232.292969 2670.067139
v -256.203125 232.293579 2669.982666
v -271.064453 316.426758 2799.652588
v 271.062500 316.426392 2799.652588
v 644.309570 316.773682 2751.987549
v 256.201172 232.292847 2669.982178
v 611.685547 232.640259 2621.749268
v 1077.723633 317.121094 2643.308838
v 1016.767578 232.987671 2523.410400
v 2815.818359 319.205811 892.739502
v 2923.766602 319.552734 429.406982
v 2680.450195 235.071777 836.725098
v 2782.977539 235.419067 396.930908
v 2960.235352 319.900146 41.401855
v 2828.183594 235.766479 22.505859
v -2828.185059 235.766602 22.505859
v -2782.979492 235.419189 396.930908
v -2828.185547 -1060.591797 22.506104
v -2782.978516 -1060.939209 396.930908
v -2680.451660 235.072021 836.725098
v -2680.453125 -1061.286377 836.725098
v -256.203125 -1064.065186 2669.981689
v -611.687500 -1063.718018 2621.747314
v -256.203125 232.293579 2669.982666
v -611.687500 232.640625 2621.748291
v -1016.770996 -1063.370361 2523.410400
v -1016.771484 232.988037 2523.410400
v 271.062500 316.426392 2799.652588
v -0.000977 316.426514 2799.652588
v 271.062500 381.236084 2799.652588
v -0.000000 381.236328 2799.652588
v 270.172852 763.919800 2479.466064
v -0.000000 763.920288 2479.781494
v -270.174805 763.920532 2479.466064
v -271.064453 381.236328 2799.652588
v -271.064453 316.426758 2799.652588
v 2815.818359 319.205811 892.739502
v 2815.818359 384.014893 892.738281
v 2923.766602 319.552734 429.406982
v 2923.767578 384.362549 429.406494
v 2960.235352 319.900146 41.401855
v 2960.236328 384.709473 41.402100
v 2600.553711 767.393677 21.545166
v 2527.617188 767.046387 397.419678
v 2438.665039 766.699219 794.151611
v -2815.819824 319.205811 892.739502
v -2923.769043 319.553101 429.406982
v -2815.819824 384.015015 892.738281
v -2923.769043 384.362671 429.406494
v -2438.666992 766.699463 794.151611
v -2527.619629 767.047119 397.419678
v -2600.555664 767.393921 21.545166
v -2960.237305 384.709473 41.402100
v -2960.236816 319.900269 41.401855
v -1016.770996 -1063.370361 2523.410400
v -1373.413086 -1063.023193 2386.427979
v -1016.771484 232.988037 2523.410400
v -1373.413574 233.335571 2386.427979
v -1715.573730 -1062.675781 2178.233643
v -1715.573730 233.682617 2178.233154
v -2043.481934 -1062.328369 1888.286377
v -2043.482422 234.030151 1888.286377
v -2327.492676 -1061.981201 1554.608643
v -2327.493652 234.377441 1554.609619
v -2537.206055 -1061.634033 1209.029053
v -2537.207031 234.724487 1209.029541
v -2680.453125 -1061.286377 836.725098
v -2680.451660 235.072021 836.725098
v 1016.767578 232.987671 2523.410400
v 1077.723633 317.121094 2643.308838
v 1373.412109 233.334839 2386.427490
v 1454.531250 317.468506 2498.894775
v 1715.572266 233.682373 2178.233643
v 1809.095703 317.815674 2286.245361
v 2043.480469 234.029785 1888.286377
v 2154.828125 318.163086 1984.088623
v 2327.491211 234.376831 1554.609131
v 2453.172852 318.510376 1633.999268
v 2667.057617 318.857788 1279.594727
v 2537.205078 234.724243 1209.029541
v 2815.818359 319.205811 892.739502
v 2680.450195 235.071777 836.725098
v 2680.450195 235.071777 836.725098
v 2680.451172 -1061.286621 836.724854
v 2537.205078 234.724243 1209.029541
v 2537.205078 -1061.634277 1209.028809
v 2327.491211 234.376831 1554.609131
v 2327.491211 -1061.981689 1554.608643
v 2043.480469 234.029785 1888.286377
v 2043.480469 -1062.328857 1888.286377
v 1715.572266 233.682373 2178.233643
v 1715.572266 -1062.676270 2178.233643
v 1373.412109 233.334839 2386.427490
v 1373.412109 -1063.023682 2386.427979
v 1016.767578 232.987671 2523.410400
v 1016.767578 -1063.370605 2523.410400
v -2680.451660 235.072021 836.725098
v -2815.819824 319.205811 892.739502
v -2537.207031 234.724487 1209.029541
v -2667.059570 318.858276 1279.594971
v -2327.493652 234.377441 1554.609619
v -2453.173340 318.510986 1633.999268
v -2154.830078 318.163696 1984.088623
v -2043.482422 234.030151 1888.286377
v -1809.097168 317.816162 2286.245361
v -1715.573730 233.682617 2178.233154
v -1454.532227 317.469116 2498.894775
v -1373.413574 233.335571 2386.427979
v -1077.725586 317.121582 2643.308350
v -1016.771484 232.988037 2523.410400
v 2309.060547 766.351563 1139.341553
v 2667.057617 383.667114 1279.594971
v 2112.739258 766.004272 1469.241943
v 2453.172852 383.320068 1633.998779
v 2154.829102 382.972534 1984.088623
v 1880.326172 765.657349 1750.017822
v 1809.095703 382.625366 2286.245850
v 1608.581055 765.309692 1989.095459
v 1454.530273 382.277832 2498.894775
v 1293.036133 764.962402 2187.044678
v 1077.722656 381.930420 2643.308350
v 971.253906 764.614746 2317.718994
v 2438.665039 766.699219 794.151611
v 2815.818359 384.014893 892.738281
v 2815.818359 319.205811 892.739502
v 2667.057617 318.857788 1279.594727
v 2453.172852 318.510376 1633.999268
v 2154.828125 318.163086 1984.088623
v 1809.095703 317.815674 2286.245361
v 1454.531250 317.468506 2498.894775
v 1077.723633 317.121094 2643.308838
v -971.254883 764.615479 2317.719971
v -1077.724609 381.930786 2643.308350
v -1293.038086 764.962891 2187.044678
v -1454.532227 382.278320 2498.894287
v -1608.582031 765.310303 1989.095459
v -1809.097656 382.625854 2286.245850
v -1880.327637 765.657593 1750.017822
v -2154.830566 382.973267 1984.088623
v -2112.740234 766.004883 1469.241943
v -2453.174316 383.320801 1633.999268
v -2667.059570 383.667603 1279.594971
v -2309.061523 766.351929 1139.341553
v -1077.725586 317.121582 2643.308350
v -1454.532227 317.469116 2498.894775
v -1809.097168 317.816162 2286.245361
v -2154.830078 318.163696 1984.088623
v -2453.173340 318.510986 1633.999268
v -2667.059570 318.858276 1279.594971
v -2815.819824 319.205811 892.739502
v -2815.819824 384.015015 892.738281
v -2438.666992 766.699463 794.151611

vn 0.119251 0.330564 0.936219
vn 0.128390 0.655861 0.743884
vn 0.178194 0.346667 0.920907
vn 0.166946 0.665950 0.727076
vn 0.126675 0.000000 0.991944
vn 0.185242 0.000000 0.982693
vn 0.301063 0.000011 0.953604
vn 0.283117 0.353595 0.891524
vn 0.232411 0.666960 0.707919
vn -0.283119 0.353592 0.891525
vn -0.178194 0.346667 0.920906
vn -0.301064 0.000004 0.953604
vn -0.185243 0.000000 0.982693
vn -0.126672 0.000000 0.991945
vn -0.119248 0.330564 0.936220
vn -0.128389 0.655861 0.743883
vn -0.166946 0.665951 0.727076
vn -0.232411 0.666959 0.707920
vn 0.297880 0.000000 0.954603
vn 0.297809 -0.000001 0.954625
vn 0.185456 -0.000001 0.982652
vn 0.185398 -0.000001 0.982664
vn 0.134451 -0.000001 0.990920
vn 0.134454 -0.000000 0.990920
vn -0.157209 -0.844198 0.512459
vn -0.162983 -0.845407 0.508649
vn -0.100135 -0.846373 0.523093
vn -0.101746 -0.846371 0.522785
vn -0.070187 -0.841869 0.535099
vn -0.069405 -0.840484 0.537373
vn -0.529813 -0.845758 0.063181
vn -0.523246 -0.850147 0.058864
vn -0.500962 -0.861644 0.081283
vn -0.497356 -0.863719 0.081403
vn -0.478581 -0.866098 0.144344
vn -0.477266 -0.866262 0.147674
vn 0.955867 0.000000 0.293801
vn 0.955888 0.000000 0.293731
vn 0.984792 0.000000 0.173736
vn 0.984802 0.000000 0.173679
vn 0.992790 0.000000 0.119864
vn 0.992790 0.000000 0.119864
vn -0.000332 -0.000001 1.000000
vn -0.000330 -0.000000 1.000000
vn 0.000000 -0.000001 1.000000
vn 0.000001 -0.000000 1.000000
vn 0.000332 -0.000000 1.000000
vn 0.000332 -0.000000 1.000000
vn -0.000000 -0.838893 0.544296
vn 0.000058 -0.838840 0.544378
vn -0.000001 -0.838787 0.544460
vn -0.000001 -0.838730 0.544547
vn -0.000060 -0.838840 0.544377
vn -0.000001 -0.838894 0.544296
vn 0.069407 -0.840484 0.537373
vn 0.101746 -0.846368 0.522790
vn 0.070188 -0.841868 0.535100
vn 0.100134 -0.846370 0.523098
vn 0.162982 -0.845408 0.508647
vn 0.157209 -0.844200 0.512456
vn 0.477267 -0.866261 0.147674
vn 0.497357 -0.863719 0.081403
vn 0.478581 -0.866097 0.144344
vn 0.500962 -0.861644 0.081283
vn 0.523246 -0.850147 0.058865
vn 0.529813 -0.845758 0.063182
vn -0.992790 0.000000 0.119863
vn -0.984802 -0.000000 0.173680
vn -0.992790 -0.000001 0.119866
vn -0.984792 -0.000000 0.173737
vn -0.955888 0.000000 0.293731
vn -0.955867 0.000000 0.293800
vn -0.134454 -0.000001 0.990920
vn -0.185398 -0.000001 0.982664
vn -0.134454 -0.000001 0.990920
vn -0.185457 -0.000000 0.982652
vn -0.297810 -0.000000 0.954625
vn -0.297879 -0.000000 0.954604
vn -0.000000 0.000000 1.000000
vn -0.000000 0.000000 1.000000
vn 0.000000 0.341160 0.940005
vn 0.000000 0.341282 0.939961
vn 0.000613 0.641447 0.767167
vn 0.000001 0.641329 0.767266
vn -0.000612 0.641447 0.767167
vn -0.000000 0.341160 0.940005
vn -0.000000 0.000000 1.000000
vn 0.955915 0.000005 0.293645
vn 0.884294 0.380334 0.270869
vn 0.987012 -0.000013 0.160644
vn 0.913233 0.376949 0.154644
vn 0.995612 -0.000015 0.093578
vn 0.926677 0.365549 0.087426
vn 0.699967 0.705923 0.108251
vn 0.681534 0.717531 0.143735
vn 0.669849 0.714298 0.202683
vn -0.955914 0.000005 0.293645
vn -0.987013 0.000001 0.160643
vn -0.884294 0.380334 0.270869
vn -0.913231 0.376955 0.154643
vn -0.669849 0.714298 0.202684
vn -0.681536 0.717530 0.143735
vn -0.699969 0.705922 0.108250
vn -0.926676 0.365552 0.087424
vn -0.995612 -0.000007 0.093577
vn -0.297810 -0.000000 0.954625
vn -0.440916 -0.000000 0.897548
vn -0.297879 -0.000000 0.954604
vn -0.441008 0.000000 0.897503
vn -0.593405 0.000000 0.804904
vn -0.593481 0.000000 0.804848
vn -0.713722 -0.000000 0.700429
vn -0.713772 -0.000001 0.700379
vn -0.810763 -0.000001 0.585375
vn -0.810811 -0.000001 0.585307
vn -0.897637 -0.000001 0.440735
vn -0.897682 -0.000000 0.440644
vn -0.955867 0.000000 0.293800
vn -0.955888 0.000000 0.293731
vn 0.157209 -0.844200 0.512456
vn 0.162982 -0.845408 0.508647
vn 0.227714 -0.851264 0.472753
vn 0.234203 -0.852534 0.467264
vn 0.300172 -0.860408 0.411819
vn 0.301848 -0.861523 0.408247
vn 0.354587 -0.866780 0.350657
vn 0.355587 -0.867348 0.348231
vn 0.400016 -0.869648 0.289308
vn 0.401261 -0.869942 0.286688
vn 0.444106 -0.869045 0.218015
vn 0.445277 -0.868817 0.216532
vn 0.477267 -0.866261 0.147674
vn 0.478581 -0.866097 0.144344
vn 0.955888 0.000000 0.293731
vn 0.955867 0.000000 0.293801
vn 0.897681 0.000000 0.440645
vn 0.897638 -0.000000 0.440734
vn 0.810811 -0.000000 0.585307
vn 0.810762 -0.000000 0.585375
vn 0.713772 -0.000000 0.700378
vn 0.713723 0.000000 0.700428
vn 0.593481 0.000000 0.804848
vn 0.593405 0.000000 0.804904
vn 0.441007 0.000000 0.897504
vn 0.440915 0.000000 0.897549
vn 0.297880 0.000000 0.954603
vn 0.297809 -0.000001 0.954625
vn -0.478581 -0.866098 0.144344
vn -0.477266 -0.866262 0.147674
vn -0.445278 -0.868816 0.216532
vn -0.444107 -0.869044 0.218016
vn -0.400019 -0.869646 0.289310
vn -0.401264 -0.869940 0.286691
vn -0.355588 -0.867347 0.348232
vn -0.354587 -0.866780 0.350658
vn -0.301848 -0.861523 0.408248
vn -0.300172 -0.860408 0.411820
vn -0.234204 -0.852533 0.467265
vn -0.227715 -0.851263 0.472754
vn -0.162983 -0.845407 0.508649
vn -0.157209 -0.844198 0.512459
vn 0.634331 0.708474 0.309336
vn 0.833139 0.375285 0.406253
vn 0.581800 0.696214 0.420469
vn 0.754901 0.370023 0.541486
vn 0.663908 0.363711 0.653407
vn 0.521042 0.684694 0.509618
vn 0.548450 0.360712 0.754381
vn 0.435829 0.680911 0.588569
vn 0.410171 0.357548 0.838999
vn 0.333086 0.673677 0.659707
vn 0.283117 0.353595 0.891524
vn 0.232411 0.666960 0.707919
vn 0.669849 0.714298 0.202683
vn 0.884294 0.380334 0.270869
vn 0.955915 0.000005 0.293645
vn 0.898218 -0.000001 0.439549
vn 0.811302 0.000004 0.584627
vn 0.711478 -0.000011 0.702709
vn 0.588492 -0.000005 0.808503
vn 0.437723 0.000007 0.899110
vn 0.301063 0.000011 0.953604
vn -0.232411 0.666959 0.707920
vn -0.283119 0.353592 0.891525
vn -0.333087 0.673676 0.659707
vn -0.410172 0.357548 0.838998
vn -0.435829 0.680911 0.588569
vn -0.548450 0.360710 0.754381
vn -0.521041 0.684694 0.509617
vn -0.663908 0.363714 0.653406
vn -0.581800 0.696215 0.420469
vn -0.754903 0.370016 0.541489
vn -0.833139 0.375286 0.406252
vn -0.634331 0.708475 0.309335
vn -0.301064 0.000004 0.953604
vn -0.437723 0.000007 0.899110
vn -0.588491 -0.000010 0.808504
vn -0.711479 -0.000006 0.702707
vn -0.811301 -0.000012 0.584629
vn -0.898218 -0.000001 0.439549
vn -0.955914 0.000005 0.293645
vn -0.884294 0.380334 0.270869
vn -0.669849 0.714298 0.202684

vt 0.008644 0.469587
vt 0.024395 0.631927
vt 0.137302 0.469587
vt 0.137302 0.631923
vt 0.008787 0.449609
vt 0.137302 0.449609
vt 0.266211 0.449609
vt 0.266298 0.469587
vt 0.243778 0.631923
vt 0.266298 0.469587
vt 0.137302 0.469587
vt 0.266211 0.449609
vt 0.137302 0.449609
vt 0.008787 0.449609
vt 0.008644 0.469587
vt 0.024395 0.631927
vt 0.137302 0.631923
vt 0.243778 0.631923
vt 0.256744 0.398381
vt 0.256744 0.008993
vt 0.137302 0.398381
vt 0.137302 0.008993
vt 0.025306 0.398381
vt 0.025161 0.008993
vt 0.256744 0.398381
vt 0.266211 0.449609
vt 0.137302 0.398381
vt 0.137302 0.449609
vt 0.025306 0.398381
vt 0.008787 0.449609
vt 0.025306 0.398381
vt 0.008787 0.449609
vt 0.137302 0.398381
vt 0.137302 0.449609
vt 0.256744 0.398381
vt 0.266211 0.449609
vt 0.256744 0.008993
vt 0.256744 0.398381
vt 0.137302 0.008993
vt 0.137302 0.398381
vt 0.024870 0.008993
vt 0.025306 0.398381
vt 0.025451 0.009361
vt 0.025447 0.397987
vt 0.103822 0.009362
vt 0.103821 0.397987
vt 0.024560 0.397987
vt 0.024560 0.009362
vt 0.008014 0.450915
vt 0.024560 0.397987
vt 0.091818 0.450915
vt 0.103821 0.397987
vt 0.025447 0.397987
vt 0.008901 0.450915
vt 0.008787 0.449609
vt 0.137302 0.449609
vt 0.025306 0.398381
vt 0.137302 0.398381
vt 0.266211 0.449609
vt 0.256744 0.398381
vt 0.266211 0.449609
vt 0.137302 0.449609
vt 0.256744 0.398381
vt 0.137302 0.398381
vt 0.008787 0.449609
vt 0.025306 0.398381
vt 0.025306 0.398381
vt 0.137302 0.398381
vt 0.024870 0.008993
vt 0.137302 0.008993
vt 0.256744 0.398381
vt 0.256744 0.008993
vt 0.025161 0.008993
vt 0.137302 0.008993
vt 0.025306 0.398381
vt 0.137302 0.398381
vt 0.256744 0.008993
vt 0.256744 0.398381
vt 0.008014 0.450915
vt 0.091818 0.450915
vt 0.008013 0.468667
vt 0.091818 0.468666
vt 0.024395 0.631927
vt 0.105821 0.631930
vt 0.024395 0.631927
vt 0.008900 0.468666
vt 0.008901 0.450915
vt 0.266211 0.449609
vt 0.266298 0.469587
vt 0.137302 0.449609
vt 0.137302 0.469587
vt 0.008787 0.449609
vt 0.008644 0.469587
vt 0.024395 0.631927
vt 0.137302 0.631923
vt 0.243778 0.631923
vt 0.266211 0.449609
vt 0.137302 0.449609
vt 0.266298 0.469587
vt 0.137302 0.469587
vt 0.243778 0.631923
vt 0.137302 0.631923
vt 0.024395 0.631927
vt 0.008644 0.469587
vt 0.008787 0.449609
vt 0.513029 0.008993
vt 0.398971 0.008993
vt 0.514285 0.398381
vt 0.398971 0.398381
vt 0.281829 0.008993
vt 0.281829 0.398381
vt 0.398971 0.008993
vt 0.398971 0.398381
vt 0.513029 0.008993
vt 0.514285 0.398381
vt 0.398971 0.008993
vt 0.398971 0.398381
vt 0.281829 0.008993
vt 0.281829 0.398381
vt 0.514285 0.398381
vt 0.525105 0.449609
vt 0.398971 0.398381
vt 0.398971 0.449609
vt 0.281829 0.398381
vt 0.271989 0.449609
vt 0.398971 0.398381
vt 0.398971 0.449609
vt 0.514285 0.398381
vt 0.525105 0.449609
vt 0.398971 0.449609
vt 0.398971 0.398381
vt 0.271989 0.449609
vt 0.281829 0.398381
vt 0.281829 0.398381
vt 0.281829 0.008993
vt 0.398971 0.398381
vt 0.398971 0.008993
vt 0.514285 0.398381
vt 0.513029 0.008993
vt 0.398971 0.398381
vt 0.398971 0.008993
vt 0.281829 0.398381
vt 0.281829 0.008993
vt 0.398971 0.398381
vt 0.398971 0.008993
vt 0.514285 0.398381
vt 0.513029 0.008993
vt 0.281829 0.398381
vt 0.271989 0.449609
vt 0.398971 0.398381
vt 0.398971 0.449609
vt 0.514285 0.398381
vt 0.525105 0.449609
vt 0.398971 0.449609
vt 0.398971 0.398381
vt 0.271989 0.449609
vt 0.281829 0.398381
vt 0.398971 0.449609
vt 0.398971 0.398381
vt 0.525105 0.449609
vt 0.514285 0.398381
vt 0.398971 0.631923
vt 0.398971 0.469587
vt 0.506743 0.631923
vt 0.525321 0.469587
vt 0.398971 0.469587
vt 0.398971 0.631923
vt 0.271757 0.469587
vt 0.289357 0.631923
vt 0.398971 0.469587
vt 0.398971 0.631923
vt 0.525321 0.469587
vt 0.506743 0.631923
vt 0.289357 0.631923
vt 0.271757 0.469587
vt 0.271989 0.449609
vt 0.398971 0.449609
vt 0.525105 0.449609
vt 0.398971 0.449609
vt 0.271989 0.449609
vt 0.398971 0.449609
vt 0.525105 0.449609
vt 0.506743 0.631923
vt 0.525321 0.469587
vt 0.398971 0.631923
vt 0.398971 0.469587
vt 0.289357 0.631923
vt 0.271757 0.469587
vt 0.398971 0.631923
vt 0.398971 0.469587
vt 0.506743 0.631923
vt 0.525321 0.469587
vt 0.398971 0.469587
vt 0.398971 0.631923
vt 0.525105 0.449609
vt 0.398971 0.449609
vt 0.271989 0.449609
vt 0.398971 0.449609
vt 0.525105 0.449609
vt 0.398971 0.449609
vt 0.271989 0.449609
vt 0.271757 0.469587
vt 0.289357 0.631923

g Object03
f 3/3/3 2/2/2 1/1/1
f 2/2/2 3/3/3 4/4/4
f 6/6/6 1/1/1 5/5/5
f 1/1/1 6/6/6 3/3/3
f 7/7/7 3/3/3 6/6/6
f 8/8/8 3/3/3 7/7/7
f 3/3/3 8/8/8 4/4/4
f 9/9/9 4/4/4 8/8/8
f 12/12/12 11/11/11 10/10/10
f 11/11/11 12/12/12 13/13/13
f 15/15/15 13/13/13 14/14/14
f 13/13/13 15/15/15 11/11/11
f 16/16/16 11/11/11 15/15/15
f 17/17/17 11/11/11 16/16/16
f 11/11/11 17/17/17 10/10/10
f 18/18/18 10/10/10 17/17/17
f 21/21/21 20/20/20 19/19/19
f 20/20/20 21/21/21 22/22/22
f 23/23/23 22/22/22 21/21/21
f 22/22/22 23/23/23 24/24/24
f 27/27/27 26/26/26 25/25/25
f 26/26/26 27/27/27 28/28/28
f 29/29/29 28/28/28 27/27/27
f 28/28/28 29/29/29 30/30/30
f 33/33/33 32/32/32 31/31/31
f 32/32/32 33/33/33 34/34/34
f 35/35/35 34/34/34 33/33/33
f 34/34/34 35/35/35 36/36/36
f 39/39/39 38/38/38 37/37/37
f 38/38/38 39/39/39 40/40/40
f 41/41/41 40/40/40 39/39/39
f 40/40/40 41/41/41 42/42/42
f 45/45/45 44/44/44 43/43/43
f 44/44/44 45/45/45 46/46/46
f 46/46/46 45/45/45 47/47/47
f 48/48/48 47/47/47 45/45/45
f 51/51/51 50/50/50 49/49/49
f 50/50/50 51/51/51 52/52/52
f 52/52/52 51/51/51 53/53/53
f 54/54/54 53/53/53 51/51/51
f 57/57/57 56/56/56 55/55/55
f 58/58/58 56/56/56 57/57/57
f 56/56/56 58/58/58 59/59/59
f 60/60/60 59/59/59 58/58/58
f 63/63/63 62/62/62 61/61/61
f 64/64/64 62/62/62 63/63/63
f 62/62/62 64/64/64 65/65/65
f 66/66/66 65/65/65 64/64/64
f 69/69/69 68/68/68 67/67/67
f 70/70/70 68/68/68 69/69/69
f 68/68/68 70/70/70 71/71/71
f 72/72/72 71/71/71 70/70/70
f 75/75/75 74/74/74 73/73/73
f 76/76/76 74/74/74 75/75/75
f 74/74/74 76/76/76 77/77/77
f 78/78/78 77/77/77 76/76/76
f 81/81/81 80/80/80 79/79/79
f 80/80/80 81/81/81 82/82/82
f 83/83/83 82/82/82 81/81/81
f 84/84/84 82/82/82 83/83/83
f 85/85/85 82/82/82 84/84/84
f 86/86/86 82/82/82 85/85/85
f 82/82/82 86/86/86 80/80/80
f 87/87/87 80/80/80 86/86/86
f 90/90/90 89/89/89 88/88/88
f 89/89/89 90/90/90 91/91/91
f 92/92/92 91/91/91 90/90/90
f 93/93/93 91/91/91 92/92/92
f 94/94/94 91/91/91 93/93/93
f 95/95/95 91/91/91 94/94/94
f 96/96/96 91/91/91 95/95/95
f 91/91/91 96/96/96 89/89/89
f 99/99/99 98/98/98 97/97/97
f 98/98/98 99/99/99 100/100/100
f 101/101/101 100/100/100 99/99/99
f 102/102/102 100/100/100 101/101/101
f 103/103/103 100/100/100 102/102/102
f 104/104/104 100/100/100 103/103/103
f 105/105/105 100/100/100 104/104/104
f 100/100/100 105/105/105 98/98/98
f 108/108/108 107/107/107 106/106/106
f 109/109/109 107/107/107 108/108/108
f 107/107/107 109/109/109 110/110/110
f 111/111/111 110/110/110 109/109/109
f 110/110/110 111/111/111 112/112/112
f 113/113/113 112/112/112 111/111/111
f 112/112/112 113/113/113 114/114/114
f 115/115/115 114/114/114 113/113/113
f 114/114/114 115/115/115 116/116/116
f 117/117/117 116/116/116 115/115/115
f 116/116/116 117/117/117 118/118/118
f 119/119/119 118/118/118 117/117/117
f 122/122/122 121/121/121 120/120/120
f 121/121/121 122/122/122 123/123/123
f 124/124/124 123/123/123 122/122/122
f 123/123/123 124/124/124 125/125/125
f 126/126/126 125/125/125 124/124/124
f 125/125/125 126/126/126 127/127/127
f 128/128/128 127/127/127 126/126/126
f 127/127/127 128/128/128 129/129/129
f 129/129/129 128/128/128 130/130/130
f 131/131/131 130/130/130 128/128/128
f 130/130/130 131/131/131 132/132/132
f 133/133/133 132/132/132 131/131/131
f 136/136/136 135/135/135 134/134/134
f 135/135/135 136/136/136 137/137/137
f 138/138/138 137/137/137 136/136/136
f 137/137/137 138/138/138 139/139/139
f 140/140/140 139/139/139 138/138/138
f 139/139/139 140/140/140 141/141/141
f 142/142/142 141/141/141 140/140/140
f 141/141/141 142/142/142 143/143/143
f 144/144/144 143/143/143 142/142/142
f 143/143/143 144/144/144 145/145/145
f 146/146/146 145/145/145 144/144/144
f 145/145/145 146/146/146 147/147/147
f 150/150/150 149/149/149 148/148/148
f 149/149/149 150/150/150 151/151/151
f 152/152/152 151/151/151 150/150/150
f 151/151/151 152/152/152 153/153/153
f 153/153/153 152/152/152 154/154/154
f 155/155/155 154/154/154 152/152/152
f 154/154/154 155/155/155 156/156/156
f 157/157/157 156/156/156 155/155/155
f 156/156/156 157/157/157 158/158/158
f 159/159/159 158/158/158 157/157/157
f 158/158/158 159/159/159 160/160/160
f 161/161/161 160/160/160 159/159/159
f 164/164/164 163/163/163 162/162/162
f 163/163/163 164/164/164 165/165/165
f 165/165/165 164/164/164 166/166/166
f 167/167/167 166/166/166 164/164/164
f 166/166/166 167/167/167 168/168/168
f 169/169/169 168/168/168 167/167/167
f 168/168/168 169/169/169 170/170/170
f 171/171/171 170/170/170 169/169/169
f 170/170/170 171/171/171 172/172/172
f 173/173/173 172/172/172 171/171/171
f 174/174/174 162/162/162 175/175/175
f 163/163/163 175/175/175 162/162/162
f 175/175/175 163/163/163 176/176/176
f 176/176/176 163/163/163 177/177/177
f 165/165/165 177/177/177 163/163/163
f 177/177/177 165/165/165 178/178/178
f 166/166/166 178/178/178 165/165/165
f 178/178/178 166/166/166 179/179/179
f 168/168/168 179/179/179 166/166/166
f 179/179/179 168/168/168 180/180/180
f 170/170/170 180/180/180 168/168/168
f 180/180/180 170/170/170 181/181/181
f 172/172/172 181/181/181 170/170/170
f 181/181/181 172/172/172 182/182/182
f 185/185/185 184/184/184 183/183/183
f 184/184/184 185/185/185 186/186/186
f 187/187/187 186/186/186 185/185/185
f 186/186/186 187/187/187 188/188/188
f 189/189/189 188/188/188 187/187/187
f 188/188/188 189/189/189 190/190/190
f 191/191/191 190/190/190 189/189/189
f 190/190/190 191/191/191 192/192/192
f 192/192/192 191/191/191 193/193/193
f 194/194/194 193/193/193 191/191/191
f 195/195/195 184/184/184 196/196/196
f 186/186/186 196/196/196 184/184/184
f 196/196/196 186/186/186 197/197/197
f 188/188/188 197/197/197 186/186/186
f 197/197/197 188/188/188 198/198/198
f 190/190/190 198/198/198 188/188/188
f 198/198/198 190/190/190 199/199/199
f 192/192/192 199/199/199 190/190/190
f 199/199/199 192/192/192 200/200/200
f 193/193/193 200/200/200 192/192/192
f 200/200/200 193/193/193 201/201/201
f 201/201/201 193/193/193 202/202/202
f 194/194/194 202/202/202 193/193/193
f 202/202/202 194/194/194 203/203/203
