# DragonNest Model Browser v1.0a

v 359.883026 -6.335449 -261.470245
v 137.463120 -6.335449 -423.067749
v 444.839966 -6.335449 0.000087
v -359.883026 -6.335449 261.470581
v -444.839966 -6.335449 0.000041
v -359.883118 -6.335449 -261.470062
v -137.463196 -6.335449 -423.067749
v 359.883026 -6.335449 261.470398
v 137.463104 -6.335449 423.068176
v -137.463104 -6.335449 423.068176
v -144.378006 1933.713623 -444.349762
v 144.378052 1933.713623 -444.349762
v -138.425049 2112.132324 -426.028198
v 138.425049 2112.132324 -426.028198
v 377.986511 1933.714111 -274.623260
v 362.401337 2112.132324 -263.299957
v 447.952637 2112.131836 -0.000005
v 467.217072 1933.713623 -0.000052
v 462.262787 1692.415894 0.000041
v 373.978424 1692.415771 -271.711182
v 142.847092 1692.415894 -439.637909
v -142.847107 1692.415894 -439.637909
v 362.401337 2112.131836 263.299927
v 377.986542 1933.713867 274.623352
v 373.978455 1692.415771 271.711212
v 314.313354 1572.747803 228.362030
v 388.512695 1572.747803 0.000041
v 314.313324 1572.747559 -228.361954
v 120.057037 1572.747803 -369.497437
v -120.057037 1572.747681 -369.497406
v 138.424957 2112.131836 426.028534
v 144.378021 1933.713867 444.349915
v 142.847092 1692.415894 439.638214
v 120.057014 1572.747925 369.497650
v 107.253571 1326.640137 330.092651
v 280.793365 1326.640259 204.008453
v 347.079742 1326.640015 0.000087
v 280.793365 1326.640015 -204.008286
v 107.253571 1326.640015 -330.092346
v -107.253525 1326.640137 -330.092346
v 144.378021 1933.713867 444.349915
v -144.378006 1933.713867 444.350006
v 138.424957 2112.131836 426.028534
v -138.424957 2112.131836 426.028534
v -377.986572 1933.713867 274.623383
v -362.401276 2112.132324 263.300018
v -447.952637 2112.131836 0.000041
v -467.217072 1933.713867 0.000041
v -462.262878 1692.415771 0.000087
v -373.978516 1692.415649 271.711395
v -142.847015 1692.415649 439.638214
v 142.847092 1692.415894 439.638214
v -362.401367 2112.132324 -263.299805
v -377.986572 1933.714111 -274.623047
v -373.978516 1692.415894 -271.710999
v -314.313354 1572.747681 -228.361816
v -388.512756 1572.747681 0.000041
v -314.313324 1572.747803 228.362122
v -120.056992 1572.747803 369.497650
v 120.057014 1572.747925 369.497650
v -138.425049 2112.132324 -426.028198
v -144.378006 1933.713623 -444.349762
v -142.847107 1692.415894 -439.637909
v -120.057037 1572.747681 -369.497406
v -107.253525 1326.640137 -330.092346
v -280.793579 1326.640137 -204.008133
v -347.079742 1326.640137 0.000087
v -280.793335 1326.640015 204.008499
v -107.253571 1326.640259 330.092712
v 107.253571 1326.640137 330.092651
v 278.225830 999.409546 202.142975
v 343.906006 999.409302 0.000041
v 359.883026 -6.335449 261.470398
v 444.839966 -6.335449 0.000087
v 278.225830 999.409302 -202.142761
v 359.883026 -6.335449 -261.470245
v 106.272820 999.409546 -327.073944
v 137.463120 -6.335449 -423.067749
v -106.272820 999.409546 -327.073975
v -137.463196 -6.335449 -423.067749
v 137.463104 -6.335449 423.068176
v 106.272820 999.409302 327.074280
v -137.463104 -6.335449 423.068176
v -106.272820 999.409302 327.074341
v -107.253571 1326.640259 330.092712
v 107.253571 1326.640137 330.092651
v 280.793365 1326.640259 204.008453
v 347.079742 1326.640015 0.000087
v 280.793365 1326.640015 -204.008286
v 107.253571 1326.640015 -330.092346
v -107.253525 1326.640137 -330.092346
v -107.253571 1326.640259 330.092712
v -106.272820 999.409302 327.074341
v -280.793335 1326.640015 204.008499
v -278.225891 999.409546 202.143066
v -347.079742 1326.640137 0.000087
v -343.906006 999.409546 0.000087
v -280.793579 1326.640137 -204.008133
v -278.225891 999.409302 -202.142670
v -107.253525 1326.640137 -330.092346
v -106.272820 999.409546 -327.073975
v -137.463196 -6.335449 -423.067749
v -359.883118 -6.335449 -261.470062
v -444.839966 -6.335449 0.000041
v -359.883026 -6.335449 261.470581
v -137.463104 -6.335449 423.068176

vn -0.000000 -1.000000 0.000000
vn -0.000000 -1.000000 0.000000
vn -0.000000 -1.000000 0.000000
vn -0.000000 -1.000000 0.000000
vn -0.000000 -1.000000 0.000000
vn -0.000000 -1.000000 0.000000
vn -0.000000 -1.000000 0.000000
vn -0.000000 -1.000000 0.000000
vn -0.000000 -1.000000 0.000000
vn -0.000000 -1.000000 0.000000
vn -0.308293 0.068421 -0.948828
vn 0.308293 0.068421 -0.948828
vn -0.304485 0.170645 -0.937107
vn 0.304485 0.170645 -0.937107
vn 0.807121 0.068421 -0.586408
vn 0.797151 0.170645 -0.579164
vn 0.985332 0.170645 0.000000
vn 0.997657 0.068421 -0.000000
vn 0.919669 -0.392695 0.000000
vn 0.744028 -0.392695 -0.540568
vn 0.284193 -0.392695 -0.874657
vn -0.284194 -0.392695 -0.874657
vn 0.797151 0.170646 0.579164
vn 0.807121 0.068422 0.586408
vn 0.744028 -0.392695 0.540567
vn 0.687080 -0.527946 0.499193
vn 0.849278 -0.527946 0.000000
vn 0.687080 -0.527946 -0.499193
vn 0.262441 -0.527946 -0.807711
vn -0.262441 -0.527946 -0.807711
vn 0.304485 0.170644 0.937107
vn 0.308293 0.068421 0.948828
vn 0.284193 -0.392695 0.874657
vn 0.262441 -0.527947 0.807711
vn 0.305853 -0.142753 0.941316
vn 0.800731 -0.142753 0.581765
vn 0.989758 -0.142753 0.000000
vn 0.800731 -0.142753 -0.581765
vn 0.305852 -0.142753 -0.941316
vn -0.305852 -0.142753 -0.941316
vn 0.308293 0.068421 0.948828
vn -0.308293 0.068421 0.948828
vn 0.304485 0.170644 0.937107
vn -0.304485 0.170645 0.937107
vn -0.807121 0.068422 0.586408
vn -0.797151 0.170646 0.579164
vn -0.985332 0.170646 -0.000000
vn -0.997656 0.068422 -0.000000
vn -0.919669 -0.392695 -0.000000
vn -0.744027 -0.392696 0.540568
vn -0.284193 -0.392696 0.874657
vn 0.284193 -0.392695 0.874657
vn -0.797151 0.170645 -0.579164
vn -0.807121 0.068421 -0.586408
vn -0.744028 -0.392695 -0.540568
vn -0.687080 -0.527946 -0.499193
vn -0.849278 -0.527947 -0.000000
vn -0.687080 -0.527947 0.499193
vn -0.262441 -0.527947 0.807711
vn 0.262441 -0.527947 0.807711
vn -0.304485 0.170645 -0.937107
vn -0.308293 0.068421 -0.948828
vn -0.284194 -0.392695 -0.874657
vn -0.262441 -0.527946 -0.807711
vn -0.305852 -0.142753 -0.941316
vn -0.800731 -0.142753 -0.581765
vn -0.989758 -0.142753 0.000000
vn -0.800731 -0.142753 0.581765
vn -0.305852 -0.142753 0.941316
vn 0.305853 -0.142753 0.941316
vn 0.806849 0.073168 0.586209
vn 0.997320 0.073168 -0.000000
vn 0.798735 0.158924 0.580315
vn 0.987291 0.158924 0.000000
vn 0.806849 0.073168 -0.586210
vn 0.798735 0.158924 -0.580315
vn 0.308189 0.073168 -0.948507
vn 0.305090 0.158924 -0.938969
vn -0.308189 0.073168 -0.948507
vn -0.305090 0.158924 -0.938969
vn 0.305090 0.158924 0.938969
vn 0.308189 0.073168 0.948507
vn -0.305090 0.158924 0.938969
vn -0.308189 0.073168 0.948507
vn -0.305852 -0.142753 0.941316
vn 0.305853 -0.142753 0.941316
vn 0.800731 -0.142753 0.581765
vn 0.989758 -0.142753 0.000000
vn 0.800731 -0.142753 -0.581765
vn 0.305852 -0.142753 -0.941316
vn -0.305852 -0.142753 -0.941316
vn -0.305852 -0.142753 0.941316
vn -0.308189 0.073168 0.948507
vn -0.800731 -0.142753 0.581765
vn -0.806849 0.073168 0.586210
vn -0.989758 -0.142753 0.000000
vn -0.997320 0.073168 -0.000000
vn -0.800731 -0.142753 -0.581765
vn -0.806849 0.073168 -0.586210
vn -0.305852 -0.142753 -0.941316
vn -0.308189 0.073168 -0.948507
vn -0.305090 0.158924 -0.938969
vn -0.798735 0.158924 -0.580315
vn -0.987291 0.158924 -0.000000
vn -0.798735 0.158924 0.580315
vn -0.305090 0.158924 0.938969

vt 0.866907 0.163680
vt 0.895328 0.184329
vt 0.856052 0.130269
vt 0.958880 0.096858
vt 0.969736 0.130269
vt 0.958880 0.163680
vt 0.930459 0.184329
vt 0.866907 0.096858
vt 0.895328 0.076209
vt 0.930459 0.076209
vt 1.939097 0.898438
vt 1.824986 0.898438
vt 1.939097 0.951172
vt 1.824986 0.951172
vt 1.710004 0.898438
vt 1.710004 0.951172
vt 1.595893 0.951172
vt 1.595893 0.898438
vt 1.595893 0.827148
vt 1.710004 0.827148
vt 1.824986 0.827148
vt 1.939097 0.827148
vt 1.710004 0.951172
vt 1.710004 0.898438
vt 1.710004 0.827148
vt 1.710004 0.784180
vt 1.595893 0.784180
vt 1.710004 0.784180
vt 1.824986 0.784180
vt 1.939097 0.784180
vt 1.824986 0.951172
vt 1.824986 0.898438
vt 1.824986 0.827148
vt 1.824986 0.784180
vt 1.824986 0.710938
vt 1.710004 0.710938
vt 1.595893 0.710938
vt 1.710004 0.710938
vt 1.824986 0.710938
vt 1.939097 0.710938
vt 1.939097 0.898438
vt 1.824986 0.898438
vt 1.939097 0.951172
vt 1.824986 0.951172
vt 1.710004 0.898438
vt 1.710004 0.951172
vt 1.595893 0.951172
vt 1.595893 0.898438
vt 1.595893 0.827148
vt 1.710004 0.827148
vt 1.824986 0.827148
vt 1.939097 0.827148
vt 1.710004 0.951172
vt 1.710004 0.898438
vt 1.710004 0.827148
vt 1.710004 0.784180
vt 1.595893 0.784180
vt 1.710004 0.784180
vt 1.824986 0.784180
vt 1.939097 0.784180
vt 1.824986 0.951172
vt 1.824986 0.898438
vt 1.824986 0.827148
vt 1.824986 0.784180
vt 1.824986 0.710938
vt 1.710004 0.710938
vt 1.595893 0.710938
vt 1.710004 0.710938
vt 1.824986 0.710938
vt 1.939097 0.710938
vt 0.877466 0.786349
vt 0.823154 0.786349
vt 0.877466 0.570932
vt 0.823154 0.570932
vt 0.877466 0.786349
vt 0.877466 0.570932
vt 0.931779 0.786349
vt 0.931779 0.570932
vt 0.985395 0.786349
vt 0.985395 0.570932
vt 0.931779 0.570932
vt 0.931779 0.786349
vt 0.985395 0.570932
vt 0.985395 0.786349
vt 0.985395 0.855193
vt 0.931779 0.855193
vt 0.877466 0.855193
vt 0.823154 0.855193
vt 0.877466 0.855193
vt 0.931779 0.855193
vt 0.985395 0.855193
vt 0.931779 0.855193
vt 0.931779 0.786349
vt 0.877466 0.855193
vt 0.877466 0.786349
vt 0.823154 0.855193
vt 0.823154 0.786349
vt 0.877466 0.855193
vt 0.877466 0.786349
vt 0.931779 0.855193
vt 0.931779 0.786349
vt 0.931779 0.570932
vt 0.877466 0.570932
vt 0.823154 0.570932
vt 0.877466 0.570932
vt 0.931779 0.570932

g Object06
f 3/3/3 2/2/2 1/1/1
f 2/2/2 3/3/3 4/4/4
f 6/6/6 4/4/4 5/5/5
f 4/4/4 6/6/6 2/2/2
f 7/7/7 2/2/2 6/6/6
f 9/9/9 3/3/3 8/8/8
f 3/3/3 9/9/9 4/4/4
f 10/10/10 4/4/4 9/9/9
f 13/13/13 12/12/12 11/11/11
f 14/14/14 12/12/12 13/13/13
f 12/12/12 14/14/14 15/15/15
f 16/16/16 15/15/15 14/14/14
f 18/18/18 16/16/16 17/17/17
f 16/16/16 18/18/18 15/15/15
f 19/19/19 15/15/15 18/18/18
f 20/20/20 15/15/15 19/19/19
f 15/15/15 20/20/20 12/12/12
f 21/21/21 12/12/12 20/20/20
f 12/12/12 21/21/21 11/11/11
f 22/22/22 11/11/11 21/21/21
f 24/24/24 17/17/17 23/23/23
f 17/17/17 24/24/24 18/18/18
f 25/25/25 18/18/18 24/24/24
f 18/18/18 25/25/25 19/19/19
f 26/26/26 19/19/19 25/25/25
f 27/27/27 19/19/19 26/26/26
f 19/19/19 27/27/27 20/20/20
f 28/28/28 20/20/20 27/27/27
f 20/20/20 28/28/28 21/21/21
f 29/29/29 21/21/21 28/28/28
f 21/21/21 29/29/29 22/22/22
f 30/30/30 22/22/22 29/29/29
f 32/32/32 23/23/23 31/31/31
f 23/23/23 32/32/32 24/24/24
f 33/33/33 24/24/24 32/32/32
f 24/24/24 33/33/33 25/25/25
f 34/34/34 25/25/25 33/33/33
f 25/25/25 34/34/34 26/26/26
f 35/35/35 26/26/26 34/34/34
f 36/36/36 26/26/26 35/35/35
f 26/26/26 36/36/36 27/27/27
f 37/37/37 27/27/27 36/36/36
f 27/27/27 37/37/37 28/28/28
f 38/38/38 28/28/28 37/37/37
f 28/28/28 38/38/38 29/29/29
f 39/39/39 29/29/29 38/38/38
f 29/29/29 39/39/39 30/30/30
f 40/40/40 30/30/30 39/39/39
f 43/43/43 42/42/42 41/41/41
f 44/44/44 42/42/42 43/43/43
f 42/42/42 44/44/44 45/45/45
f 46/46/46 45/45/45 44/44/44
f 48/48/48 46/46/46 47/47/47
f 46/46/46 48/48/48 45/45/45
f 49/49/49 45/45/45 48/48/48
f 50/50/50 45/45/45 49/49/49
f 45/45/45 50/50/50 42/42/42
f 51/51/51 42/42/42 50/50/50
f 42/42/42 51/51/51 41/41/41
f 52/52/52 41/41/41 51/51/51
f 54/54/54 47/47/47 53/53/53
f 47/47/47 54/54/54 48/48/48
f 55/55/55 48/48/48 54/54/54
f 48/48/48 55/55/55 49/49/49
f 56/56/56 49/49/49 55/55/55
f 57/57/57 49/49/49 56/56/56
f 49/49/49 57/57/57 50/50/50
f 58/58/58 50/50/50 57/57/57
f 50/50/50 58/58/58 51/51/51
f 59/59/59 51/51/51 58/58/58
f 51/51/51 59/59/59 52/52/52
f 60/60/60 52/52/52 59/59/59
f 62/62/62 53/53/53 61/61/61
f 53/53/53 62/62/62 54/54/54
f 63/63/63 54/54/54 62/62/62
f 54/54/54 63/63/63 55/55/55
f 64/64/64 55/55/55 63/63/63
f 55/55/55 64/64/64 56/56/56
f 65/65/65 56/56/56 64/64/64
f 66/66/66 56/56/56 65/65/65
f 56/56/56 66/66/66 57/57/57
f 67/67/67 57/57/57 66/66/66
f 57/57/57 67/67/67 58/58/58
f 68/68/68 58/58/58 67/67/67
f 58/58/58 68/68/68 59/59/59
f 69/69/69 59/59/59 68/68/68
f 59/59/59 69/69/69 60/60/60
f 70/70/70 60/60/60 69/69/69
f 73/73/73 72/72/72 71/71/71
f 74/74/74 72/72/72 73/73/73
f 72/72/72 74/74/74 75/75/75
f 76/76/76 75/75/75 74/74/74
f 75/75/75 76/76/76 77/77/77
f 78/78/78 77/77/77 76/76/76
f 77/77/77 78/78/78 79/79/79
f 80/80/80 79/79/79 78/78/78
f 73/73/73 71/71/71 81/81/81
f 82/82/82 81/81/81 71/71/71
f 81/81/81 82/82/82 83/83/83
f 83/83/83 82/82/82 84/84/84
f 84/84/84 82/82/82 85/85/85
f 85/85/85 82/82/82 86/86/86
f 71/71/71 86/86/86 82/82/82
f 86/86/86 71/71/71 87/87/87
f 72/72/72 87/87/87 71/71/71
f 87/87/87 72/72/72 88/88/88
f 75/75/75 88/88/88 72/72/72
f 88/88/88 75/75/75 89/89/89
f 77/77/77 89/89/89 75/75/75
f 89/89/89 77/77/77 90/90/90
f 79/79/79 90/90/90 77/77/77
f 90/90/90 79/79/79 91/91/91
f 94/94/94 93/93/93 92/92/92
f 93/93/93 94/94/94 95/95/95
f 96/96/96 95/95/95 94/94/94
f 95/95/95 96/96/96 97/97/97
f 98/98/98 97/97/97 96/96/96
f 97/97/97 98/98/98 99/99/99
f 100/100/100 99/99/99 98/98/98
f 101/101/101 99/99/99 100/100/100
f 102/102/102 99/99/99 101/101/101
f 103/103/103 99/99/99 102/102/102
f 99/99/99 103/103/103 97/97/97
f 104/104/104 97/97/97 103/103/103
f 97/97/97 104/104/104 95/95/95
f 105/105/105 95/95/95 104/104/104
f 95/95/95 105/105/105 93/93/93
f 106/106/106 93/93/93 105/105/105
