# DragonNest Model Browser v1.0a

v -0.003755 426.041870 -528.496765
v -0.004024 426.434265 -555.855042
v 0.263036 -4.397842 -541.206055
v 0.262975 -4.397842 -569.556030
v -4.595745 -4.397812 -538.188904
v -3.599442 425.006348 -525.661316
v 0.263036 -4.397842 -541.206055
v -0.003755 426.041870 -528.496765
v -0.004024 426.434265 -555.855042
v -3.599491 425.006348 -558.814392
v 0.262975 -4.397842 -569.556030
v -4.595805 -4.397811 -572.573181
v -4.595745 -4.397812 -538.188904
v -4.595805 -4.397811 -572.573181
v -151.811279 -4.397812 -538.188843
v -151.811325 -4.397811 -572.573181
v -4.595805 -4.397811 -572.573181
v -4.595745 -4.397812 -538.188904
v 0.262975 -4.397842 -569.556030
v 0.263036 -4.397842 -541.206055
v -176.489487 53.120186 -570.508118
v -151.419617 76.169891 -569.801880
v -176.489456 53.120197 -536.732910
v -151.419586 76.169907 -536.028198
v -175.510208 141.088638 -567.372864
v -149.656891 164.739639 -566.696228
v -175.510147 141.088669 -534.483093
v -149.656845 164.739670 -533.711975
v -170.256546 239.098175 -563.911804
v -146.327423 262.964172 -563.301636
v -170.256561 239.094193 -531.517883
v -146.327362 262.964111 -531.093628
v -3.599442 425.006348 -525.661316
v -3.599491 425.006348 -558.814392
v -0.003755 426.041870 -528.496765
v -0.004024 426.434265 -555.855042
v -146.327423 262.964172 -563.301636
v -115.911713 237.796188 -564.477051
v -145.935760 325.638214 -561.502441
v -77.972893 390.687744 -559.684204
v -119.103157 358.359680 -560.586243
v -149.656891 164.739639 -566.696228
v -116.742485 139.743088 -567.789856
v -149.265305 212.602707 -565.184326
v -4.595805 -4.397811 -572.573181
v -3.599491 425.006348 -558.814392
v -151.419617 76.169891 -569.801880
v -117.573349 52.215454 -570.731628
v -151.223755 113.978577 -568.565002
v -152.007202 26.571716 -571.544922
v -151.811325 -4.397811 -572.573181
v -119.103127 358.359711 -527.969360
v -77.972839 390.687744 -526.892395
v -145.935715 325.638245 -529.056152
v -115.911674 237.796188 -531.458984
v -146.327362 262.964111 -531.093628
v -3.599442 425.006348 -525.661316
v -4.595745 -4.397812 -538.188904
v -149.265259 212.602737 -532.293884
v -116.742462 139.743134 -534.148499
v -149.656845 164.739670 -533.711975
v -151.419586 76.169907 -536.028198
v -151.223740 113.978592 -534.950562
v -117.573303 52.215454 -536.564819
v -152.007156 26.571716 -537.321289
v -151.811279 -4.397812 -538.188843
v -170.256561 239.094193 -531.517883
v -149.265259 212.602737 -532.293884
v -170.256546 239.098175 -563.911804
v -149.265305 212.602707 -565.184326
v -149.656845 164.739670 -533.711975
v -149.656891 164.739639 -566.696228
v -175.510147 141.088669 -534.483093
v -151.223740 113.978592 -534.950562
v -175.510208 141.088638 -567.372864
v -151.223755 113.978577 -568.565002
v -151.419586 76.169907 -536.028198
v -151.419617 76.169891 -569.801880
v -176.489456 53.120197 -536.732910
v -152.007156 26.571716 -537.321289
v -176.489487 53.120186 -570.508118
v -152.007202 26.571716 -571.544922
v -151.811279 -4.397812 -538.188843
v -151.811325 -4.397811 -572.573181
v -146.327423 262.964172 -563.301636
v -170.256546 239.098175 -563.911804
v -147.146225 239.020493 -571.488342
v -149.265305 212.602707 -565.184326
v -115.911713 237.796188 -564.477051
v -149.656891 164.739639 -566.696228
v -175.510208 141.088638 -567.372864
v -149.528717 140.255127 -574.893433
v -151.223755 113.978577 -568.565002
v -116.742485 139.743088 -567.789856
v -151.419617 76.169891 -569.801880
v -176.489487 53.120186 -570.508118
v -152.204865 52.313652 -577.944580
v -152.007202 26.571716 -571.544922
v -117.573349 52.215454 -570.731628
v -170.256561 239.094193 -531.517883
v -146.327362 262.964111 -531.093628
v -147.146179 239.020493 -524.490601
v -115.911674 237.796188 -531.458984
v -149.265259 212.602737 -532.293884
v -175.510147 141.088669 -534.483093
v -149.656845 164.739670 -533.711975
v -149.528671 140.255127 -527.081299
v -116.742462 139.743134 -534.148499
v -151.223740 113.978592 -534.950562
v -176.489456 53.120197 -536.732910
v -151.419586 76.169907 -536.028198
v -152.204819 52.313652 -529.385071
v -117.573303 52.215454 -536.564819
v -152.007156 26.571716 -537.321289
v -3.599442 425.006348 -525.661316
v -77.972839 390.687744 -526.892395
v -3.599491 425.006348 -558.814392
v -77.972893 390.687744 -559.684204
v -119.103127 358.359711 -527.969360
v -119.103157 358.359680 -560.586243
v -145.935715 325.638245 -529.056152
v -145.935760 325.638214 -561.502441
v -146.327362 262.964111 -531.093628
v -146.327423 262.964172 -563.301636

vn 1.000000 0.000620 -0.000001
vn 1.000000 0.000620 -0.000001
vn 1.000000 0.000620 -0.000001
vn 1.000000 0.000620 -0.000002
vn 0.527356 -0.026000 0.849247
vn 0.527356 -0.026000 0.849247
vn 0.527356 -0.026000 0.849247
vn 0.623070 -0.022699 0.781837
vn 0.629340 0.025091 -0.776725
vn 0.629340 0.025091 -0.776725
vn 0.629340 0.025091 -0.776725
vn 0.527356 0.025988 -0.849247
vn -0.000000 -1.000000 -0.000000
vn -0.000000 -1.000000 -0.000000
vn -0.000000 -1.000000 -0.000000
vn -0.000000 -1.000000 -0.000000
vn -0.000006 -1.000000 -0.000000
vn -0.000006 -1.000000 -0.000000
vn -0.000006 -1.000000 -0.000000
vn -0.000006 -1.000000 0.000000
vn -0.676825 0.736144 0.000000
vn -0.676825 0.736144 0.000000
vn -0.676825 0.736144 0.000000
vn -0.676825 0.736144 0.000000
vn -0.674982 0.737834 0.000001
vn -0.674982 0.737834 0.000000
vn -0.674982 0.737834 0.000000
vn -0.674982 0.737834 0.000000
vn -0.706173 0.708039 0.000087
vn -0.706202 0.708010 0.000044
vn -0.706200 0.708012 0.000046
vn -0.706229 0.707983 0.000003
vn -0.276742 0.960944 0.000000
vn -0.365135 0.930884 0.011511
vn -0.282666 0.959218 0.000762
vn -0.378490 0.925510 0.013278
vn -0.014806 0.028785 -0.999476
vn -0.004467 0.031717 -0.999487
vn -0.005500 0.031691 -0.999483
vn -0.003249 0.032030 -0.999482
vn -0.000215 0.028165 -0.999603
vn -0.009175 0.031646 -0.999457
vn 0.003172 0.036657 -0.999323
vn -0.003374 0.032499 -0.999466
vn -0.000652 0.032956 -0.999457
vn -0.003067 0.032072 -0.999481
vn -0.004298 0.032719 -0.999455
vn -0.000539 0.032878 -0.999459
vn -0.003025 0.033412 -0.999437
vn -0.000094 0.032739 -0.999464
vn -0.000000 0.033184 -0.999449
vn -0.000222 -0.033014 0.999455
vn -0.003250 -0.029157 0.999570
vn -0.005499 -0.029495 0.999550
vn -0.004468 -0.029470 0.999556
vn -0.014802 -0.032396 0.999366
vn -0.003068 -0.029115 0.999571
vn -0.000652 -0.028231 0.999601
vn -0.003374 -0.028687 0.999583
vn 0.003174 -0.024525 0.999694
vn -0.009177 -0.029539 0.999521
vn -0.004300 -0.028468 0.999585
vn -0.003026 -0.027775 0.999610
vn -0.000539 -0.028308 0.999599
vn -0.000093 -0.028447 0.999595
vn 0.000000 -0.028002 0.999608
vn -0.783775 -0.621045 -0.000077
vn -0.943802 -0.330510 -0.000019
vn -0.783797 -0.621017 -0.000038
vn -0.948247 -0.317532 0.000002
vn -0.999967 0.008181 0.000001
vn -0.999967 0.008181 0.000001
vn -0.744831 -0.667253 0.000002
vn -0.933134 -0.359530 0.000001
vn -0.744831 -0.667253 0.000001
vn -0.937772 -0.347252 0.000001
vn -0.999987 0.005180 0.000001
vn -0.999987 0.005180 0.000001
vn -0.735134 -0.677921 0.000001
vn -0.928254 -0.371947 0.000001
vn -0.735135 -0.677921 0.000001
vn -0.933044 -0.359763 0.000001
vn -0.999980 -0.006325 0.000001
vn -0.999980 -0.006325 0.000001
vn 0.219823 0.308874 -0.925351
vn -0.305980 -0.197687 -0.931287
vn 0.219823 0.308874 -0.925351
vn 0.203411 -0.242666 -0.948545
vn 0.219823 0.308874 -0.925351
vn 0.205851 0.311642 -0.927634
vn -0.278117 -0.207913 -0.937776
vn 0.205851 0.311642 -0.927634
vn 0.201871 -0.241613 -0.949142
vn 0.205851 0.311642 -0.927634
vn 0.194628 0.311104 -0.930233
vn -0.291813 -0.232873 -0.927693
vn 0.194628 0.311104 -0.930233
vn 0.197548 -0.235081 -0.951689
vn 0.194628 0.311104 -0.930233
vn -0.282352 -0.250853 0.925932
vn 0.220111 0.252328 0.942275
vn 0.220111 0.252328 0.942275
vn 0.220111 0.252328 0.942275
vn 0.197314 -0.292235 0.935770
vn -0.272274 -0.259890 0.926458
vn 0.207482 0.256719 0.943953
vn 0.207482 0.256719 0.943953
vn 0.207482 0.256719 0.943953
vn 0.197099 -0.292908 0.935605
vn -0.286293 -0.284290 0.914995
vn 0.196882 0.256988 0.946147
vn 0.196882 0.256988 0.946147
vn 0.196882 0.256988 0.946147
vn 0.193638 -0.287681 0.937947
vn -0.418982 0.907995 0.000001
vn -0.520894 0.853621 0.000001
vn -0.418982 0.907995 0.000001
vn -0.522919 0.852383 0.000001
vn -0.698599 0.715513 0.000000
vn -0.700717 0.713439 0.000000
vn -0.938301 0.345821 0.000001
vn -0.942461 0.334317 0.000001
vn -0.999980 0.006249 0.000002
vn -0.999980 0.006249 0.000002

vt 0.202311 0.701065
vt 0.233398 0.701426
vt 0.202311 0.502930
vt 0.233398 0.502930
vt 0.034661 0.004547
vt 0.033720 0.410758
vt 0.030442 0.004547
vt 0.030442 0.412109
vt 0.030442 0.412109
vt 0.033720 0.410758
vt 0.030442 0.004547
vt 0.034661 0.004547
vt 0.233398 0.506348
vt 0.202311 0.506348
vt 0.233398 0.603516
vt 0.202311 0.603516
vt 0.202311 0.506348
vt 0.233398 0.506348
vt 0.205078 0.502930
vt 0.231445 0.502930
vt 0.202148 0.651367
vt 0.202148 0.684570
vt 0.234375 0.651367
vt 0.234375 0.684570
vt 0.202148 0.651367
vt 0.202148 0.684570
vt 0.234375 0.651367
vt 0.234375 0.684570
vt 0.202148 0.651367
vt 0.202148 0.684570
vt 0.234375 0.651367
vt 0.234375 0.684570
vt 0.233380 0.502794
vt 0.202476 0.502794
vt 0.230737 0.506266
vt 0.205234 0.506400
vt 0.160207 0.257493
vt 0.132326 0.233665
vt 0.160794 0.316756
vt 0.100414 0.378298
vt 0.137231 0.347719
vt 0.161747 0.164566
vt 0.132841 0.140906
vt 0.161983 0.209818
vt 0.034661 0.004547
vt 0.033720 0.410758
vt 0.162014 0.080770
vt 0.132945 0.058101
vt 0.162060 0.116528
vt 0.161806 0.033846
vt 0.161712 0.004547
vt 0.137231 0.347719
vt 0.100414 0.378298
vt 0.160794 0.316756
vt 0.132326 0.233665
vt 0.160207 0.257493
vt 0.033720 0.410758
vt 0.034661 0.004547
vt 0.161983 0.209818
vt 0.132841 0.140906
vt 0.161747 0.164566
vt 0.162014 0.080770
vt 0.162060 0.116528
vt 0.132945 0.058101
vt 0.161806 0.033846
vt 0.161712 0.004547
vt 0.234375 0.651367
vt 0.234375 0.616211
vt 0.202148 0.651367
vt 0.202148 0.616211
vt 0.234375 0.587891
vt 0.202148 0.587891
vt 0.234375 0.651367
vt 0.234375 0.616211
vt 0.202148 0.651367
vt 0.202148 0.616211
vt 0.234375 0.587891
vt 0.202148 0.587891
vt 0.234375 0.651367
vt 0.234375 0.616211
vt 0.202148 0.651367
vt 0.202148 0.616211
vt 0.234375 0.587891
vt 0.202148 0.587891
vt 0.160207 0.257493
vt 0.181335 0.234891
vt 0.161753 0.232993
vt 0.161983 0.209818
vt 0.132326 0.233665
vt 0.161747 0.164566
vt 0.184396 0.142169
vt 0.162578 0.140338
vt 0.162060 0.116528
vt 0.132841 0.140906
vt 0.162014 0.080770
vt 0.183932 0.058955
vt 0.162205 0.057591
vt 0.161806 0.033846
vt 0.132945 0.058101
vt 0.181335 0.234891
vt 0.160207 0.257493
vt 0.161753 0.232993
vt 0.132326 0.233665
vt 0.161983 0.209818
vt 0.184396 0.142169
vt 0.161747 0.164566
vt 0.162578 0.140338
vt 0.132841 0.140906
vt 0.162060 0.116528
vt 0.183932 0.058955
vt 0.162014 0.080770
vt 0.162205 0.057591
vt 0.132945 0.058101
vt 0.161806 0.033846
vt 1.232422 3.710938
vt 1.232422 3.653320
vt 1.204102 3.710938
vt 1.204102 3.653320
vt 1.232422 3.617188
vt 1.204102 3.617188
vt 1.232422 3.586914
vt 1.204102 3.586914
vt 1.232422 3.543945
vt 1.204102 3.543945

g Object02
f 3/3/3 2/2/2 1/1/1
f 2/2/2 3/3/3 4/4/4
f 7/7/7 6/6/6 5/5/5
f 6/6/6 7/7/7 8/8/8
f 11/11/11 10/10/10 9/9/9
f 10/10/10 11/11/11 12/12/12
f 15/15/15 14/14/14 13/13/13
f 14/14/14 15/15/15 16/16/16
f 19/19/19 18/18/18 17/17/17
f 18/18/18 19/19/19 20/20/20
f 23/23/23 22/22/22 21/21/21
f 22/22/22 23/23/23 24/24/24
f 27/27/27 26/26/26 25/25/25
f 26/26/26 27/27/27 28/28/28
f 31/31/31 30/30/30 29/29/29
f 30/30/30 31/31/31 32/32/32
f 35/35/35 34/34/34 33/33/33
f 34/34/34 35/35/35 36/36/36
f 39/39/39 38/38/38 37/37/37
f 38/38/38 39/39/39 40/40/40
f 41/41/41 40/40/40 39/39/39
f 44/44/44 43/43/43 42/42/42
f 43/43/43 44/44/44 45/45/45
f 38/38/38 45/45/45 44/44/44
f 45/45/45 38/38/38 46/46/46
f 40/40/40 46/46/46 38/38/38
f 49/49/49 48/48/48 47/47/47
f 43/43/43 48/48/48 49/49/49
f 45/45/45 48/48/48 43/43/43
f 48/48/48 45/45/45 50/50/50
f 51/51/51 50/50/50 45/45/45
f 54/54/54 53/53/53 52/52/52
f 53/53/53 54/54/54 55/55/55
f 56/56/56 55/55/55 54/54/54
f 55/55/55 57/57/57 53/53/53
f 57/57/57 55/55/55 58/58/58
f 59/59/59 58/58/58 55/55/55
f 58/58/58 59/59/59 60/60/60
f 61/61/61 60/60/60 59/59/59
f 64/64/64 63/63/63 62/62/62
f 63/63/63 64/64/64 60/60/60
f 60/60/60 64/64/64 58/58/58
f 65/65/65 58/58/58 64/64/64
f 58/58/58 65/65/65 66/66/66
f 69/69/69 68/68/68 67/67/67
f 70/70/70 68/68/68 69/69/69
f 68/68/68 70/70/70 71/71/71
f 72/72/72 71/71/71 70/70/70
f 75/75/75 74/74/74 73/73/73
f 76/76/76 74/74/74 75/75/75
f 74/74/74 76/76/76 77/77/77
f 78/78/78 77/77/77 76/76/76
f 81/81/81 80/80/80 79/79/79
f 82/82/82 80/80/80 81/81/81
f 80/80/80 82/82/82 83/83/83
f 84/84/84 83/83/83 82/82/82
f 87/87/87 86/86/86 85/85/85
f 86/86/86 87/87/87 88/88/88
f 88/88/88 87/87/87 89/89/89
f 85/85/85 89/89/89 87/87/87
f 92/92/92 91/91/91 90/90/90
f 91/91/91 92/92/92 93/93/93
f 93/93/93 92/92/92 94/94/94
f 90/90/90 94/94/94 92/92/92
f 97/97/97 96/96/96 95/95/95
f 96/96/96 97/97/97 98/98/98
f 98/98/98 97/97/97 99/99/99
f 95/95/95 99/99/99 97/97/97
f 102/102/102 101/101/101 100/100/100
f 101/101/101 102/102/102 103/103/103
f 103/103/103 102/102/102 104/104/104
f 100/100/100 104/104/104 102/102/102
f 107/107/107 106/106/106 105/105/105
f 106/106/106 107/107/107 108/108/108
f 108/108/108 107/107/107 109/109/109
f 105/105/105 109/109/109 107/107/107
f 112/112/112 111/111/111 110/110/110
f 111/111/111 112/112/112 113/113/113
f 113/113/113 112/112/112 114/114/114
f 110/110/110 114/114/114 112/112/112
f 117/117/117 116/116/116 115/115/115
f 118/118/118 116/116/116 117/117/117
f 116/116/116 118/118/118 119/119/119
f 120/120/120 119/119/119 118/118/118
f 119/119/119 120/120/120 121/121/121
f 122/122/122 121/121/121 120/120/120
f 121/121/121 122/122/122 123/123/123
f 124/124/124 123/123/123 122/122/122
