# DragonNest Model Browser v1.0a

v -572.354126 -505.028381 1064.174927
v -572.354126 -169.589050 1054.988037
v -508.957397 -505.028381 1064.174927
v -508.957397 -169.589050 1054.988037
v -572.354126 -169.589050 1054.988037
v -572.354126 -2.814697 321.963959
v -508.957397 -169.589050 1054.988037
v -508.957397 -2.814697 321.963959
v -572.354126 -2.814697 321.963959
v -572.354126 -2.814697 -260.216888
v -508.957397 -2.814697 321.963959
v -508.957397 -2.814697 -260.216888
v -572.354126 -2.814697 -260.216888
v -572.354126 -617.588135 -1474.797241
v -508.957397 -2.814697 -260.216888
v -508.957397 -617.588135 -1474.797241
v 510.161926 -169.589050 1054.988037
v 573.558716 -169.589050 1054.988037
v 510.161926 -505.028381 1064.174927
v 573.558716 -505.028381 1064.174927
v 510.161926 -2.814697 321.963959
v 573.558716 -2.814697 321.963959
v 510.161926 -169.589050 1054.988037
v 573.558716 -169.589050 1054.988037
v 510.161926 -2.814697 -260.216888
v 573.558716 -2.814697 -260.216888
v 510.161926 -2.814697 321.963959
v 573.558716 -2.814697 321.963959
v 510.161926 -617.588135 -1474.797241
v 573.558594 -617.588135 -1474.797241
v 510.161926 -2.814697 -260.216888
v 573.558716 -2.814697 -260.216888
v 590.282837 -505.028381 972.606567
v 580.703491 -505.028381 962.990479
v 590.282837 -505.028381 1054.558838
v 573.558716 -505.028381 1064.174927
v 510.161926 -505.028381 1064.174927
v 510.161926 -505.028381 962.990479
v 510.161926 -617.588196 -1259.966919
v 580.703491 -617.588196 -1259.966919
v 510.161926 -617.588135 -1474.797241
v 573.558594 -617.588135 -1474.797241
v 590.282837 -617.588196 -1288.264893
v 590.282837 -617.588135 -1446.499268
v -579.499023 -617.588196 -1259.966919
v -579.499023 -103.901642 -236.090973
v -579.499023 -505.028381 962.990479
v -579.499023 -103.901642 303.355988
v -579.499023 -239.965729 955.790649
v 580.703491 -239.965729 955.790649
v 580.703491 -103.901642 303.355988
v 580.703491 -505.028381 962.990479
v 580.703491 -103.901642 -236.090973
v 580.703491 -617.588196 -1259.966919
v -589.078247 -505.028381 972.606567
v -589.078247 -505.028381 1054.558838
v -579.499023 -505.028381 962.990479
v -572.354126 -505.028381 1064.174927
v -508.957428 -505.028381 962.990479
v -508.957397 -505.028381 1064.174927
v -589.078247 -617.588135 -1446.499268
v -589.078247 -617.588196 -1288.264893
v -572.354126 -617.588135 -1474.797241
v -579.499023 -617.588196 -1259.966919
v -508.957397 -617.588135 -1474.797241
v -508.957397 -617.588196 -1259.966919
v -508.957397 -617.588135 -1474.797241
v -508.957397 -617.588196 -1259.966919
v -508.957397 -2.814697 -260.216888
v -508.957428 -505.028381 962.990479
v -508.957397 -505.028381 1064.174927
v -508.957397 -2.814697 321.963959
v -508.957397 -169.589050 1054.988037
v 510.161926 -617.588135 -1474.797241
v 510.161926 -2.814697 -260.216888
v 510.161926 -617.588196 -1259.966919
v 510.161926 -505.028381 962.990479
v 510.161926 -505.028381 1064.174927
v 510.161926 -2.814697 321.963959
v 510.161926 -169.589050 1054.988037
v 580.703491 -505.028381 962.990479
v 590.282837 -505.028381 972.606567
v 580.703491 -239.965729 955.790649
v 590.282837 -234.322418 963.651733
v 590.282837 -505.028381 1054.558838
v 590.282837 -175.973328 1047.126953
v 573.558716 -505.028381 1064.174927
v 573.558716 -169.589050 1054.988037
v 580.703491 -239.965729 955.790649
v 590.282837 -234.322418 963.651733
v 580.703491 -103.901642 303.355988
v 590.282837 -93.978668 303.355988
v 590.282837 -175.973328 1047.126953
v 590.282837 -12.737671 321.963959
v 573.558716 -169.589050 1054.988037
v 573.558716 -2.814697 321.963959
v 580.703491 -103.901642 303.355988
v 590.282837 -93.978668 303.355988
v 580.703491 -103.901642 -236.090973
v 590.282837 -93.978668 -238.121918
v 590.282837 -12.737671 321.963959
v 590.282837 -12.737671 -258.382324
v 573.558716 -2.814697 321.963959
v 573.558716 -2.814697 -260.216888
v -572.354126 -2.814697 321.963959
v -572.354126 -169.589050 1054.988037
v -589.078247 -12.737671 321.963959
v -589.078247 -175.973328 1047.126953
v -589.078247 -93.978668 303.355988
v -589.078247 -234.322418 963.651733
v -579.499023 -103.901642 303.355988
v -579.499023 -239.965729 955.790649
v -572.354126 -169.589050 1054.988037
v -572.354126 -505.028381 1064.174927
v -589.078247 -175.973328 1047.126953
v -589.078247 -505.028381 1054.558838
v -589.078247 -234.322418 963.651733
v -589.078247 -505.028381 972.606567
v -579.499023 -239.965729 955.790649
v -579.499023 -505.028381 962.990479
v -579.499023 -103.901642 -236.090973
v -579.499023 -617.588196 -1259.966919
v -589.078247 -93.978668 -238.121918
v -589.078247 -617.588196 -1288.264893
v -589.078247 -617.588135 -1446.499268
v -589.078247 -12.737671 -258.382324
v -572.354126 -2.814697 -260.216888
v -572.354126 -617.588135 -1474.797241
v -572.354126 -2.814697 -260.216888
v -572.354126 -2.814697 321.963959
v -589.078247 -12.737671 -258.382324
v -589.078247 -12.737671 321.963959
v -589.078247 -93.978668 -238.121918
v -589.078247 -93.978668 303.355988
v -579.499023 -103.901642 -236.090973
v -579.499023 -103.901642 303.355988
v 580.703491 -103.901642 -236.090973
v 590.282837 -93.978668 -238.121918
v 580.703491 -617.588196 -1259.966919
v 590.282837 -617.588196 -1288.264893
v 590.282837 -617.588135 -1446.499268
v 590.282837 -12.737671 -258.382324
v 573.558716 -2.814697 -260.216888
v 573.558594 -617.588135 -1474.797241

vn -0.000000 0.027377 0.999625
vn -0.000000 0.027377 0.999625
vn -0.000000 0.027377 0.999625
vn -0.000000 0.027377 0.999625
vn -0.000000 0.975082 0.221846
vn -0.000000 0.975082 0.221846
vn -0.000000 0.975082 0.221846
vn -0.000000 0.975082 0.221846
vn -0.000000 1.000000 0.000000
vn -0.000000 1.000000 0.000000
vn -0.000000 1.000000 0.000000
vn -0.000000 1.000000 0.000000
vn -0.000000 0.892218 -0.451606
vn -0.000000 0.892218 -0.451606
vn -0.000000 0.892218 -0.451606
vn -0.000000 0.892218 -0.451606
vn -0.000000 0.027377 0.999625
vn -0.000000 0.027377 0.999625
vn -0.000000 0.027377 0.999625
vn -0.000000 0.027377 0.999625
vn -0.000000 0.975082 0.221846
vn -0.000000 0.975082 0.221846
vn -0.000000 0.975082 0.221846
vn -0.000000 0.975082 0.221846
vn -0.000000 1.000000 0.000000
vn -0.000000 1.000000 0.000000
vn -0.000000 1.000000 0.000000
vn -0.000000 1.000000 0.000000
vn -0.000000 0.892218 -0.451606
vn -0.000000 0.892218 -0.451606
vn -0.000000 0.892218 -0.451606
vn -0.000000 0.892218 -0.451606
vn 0.000000 -1.000000 -0.000000
vn 0.000000 -1.000000 -0.000000
vn 0.000000 -1.000000 -0.000000
vn -0.000000 -1.000000 -0.000000
vn -0.000000 -1.000000 -0.000000
vn -0.000000 -0.998721 0.050570
vn -0.000000 -1.000000 -0.000000
vn -0.000000 -1.000000 -0.000000
vn -0.000000 -1.000000 -0.000000
vn 0.000000 -1.000000 -0.000000
vn 0.000000 -1.000000 -0.000000
vn 0.000000 -1.000000 -0.000000
vn -1.000000 0.000000 -0.000000
vn -1.000000 0.000000 0.000000
vn -1.000000 -0.000000 -0.000000
vn -1.000000 -0.000000 -0.000000
vn -1.000000 -0.000000 -0.000000
vn 1.000000 0.000000 0.000000
vn 1.000000 0.000000 0.000000
vn 1.000000 0.000000 0.000000
vn 1.000000 0.000000 0.000000
vn 1.000000 0.000000 0.000000
vn -0.000000 -1.000000 -0.000000
vn 0.000000 -1.000000 -0.000000
vn 0.000000 -1.000000 -0.000000
vn 0.000000 -1.000000 -0.000000
vn -0.000000 -0.998721 0.050570
vn -0.000000 -1.000000 -0.000000
vn -0.000000 -1.000000 -0.000000
vn 0.000000 -1.000000 -0.000000
vn 0.000000 -1.000000 -0.000000
vn 0.000000 -1.000000 -0.000000
vn -0.000000 -1.000000 -0.000000
vn -0.000000 -1.000000 -0.000000
vn 1.000000 -0.000000 0.000000
vn 1.000000 -0.000000 0.000000
vn 1.000000 -0.000000 0.000000
vn 1.000000 -0.000000 0.000000
vn 1.000000 -0.000001 -0.000000
vn 1.000000 -0.000000 -0.000000
vn 1.000000 -0.000000 -0.000000
vn -1.000000 0.000000 0.000000
vn -1.000000 0.000000 0.000000
vn -1.000000 0.000000 0.000000
vn -1.000000 0.000000 0.000000
vn -1.000000 0.000000 0.000000
vn -1.000000 0.000000 0.000000
vn -1.000000 0.000000 0.000000
vn 0.708329 -0.019167 -0.705622
vn 1.000000 0.000000 0.000000
vn 0.643038 -0.025320 -0.765416
vn 1.000000 0.000000 0.000000
vn 1.000000 0.000000 0.000000
vn 1.000000 0.000000 0.000000
vn 0.498365 0.019576 0.866746
vn 0.432965 0.024678 0.901073
vn 0.597039 -0.785316 -0.163776
vn 1.000000 0.000000 0.000000
vn 0.711741 -0.687094 -0.146040
vn 1.000000 0.000000 0.000000
vn 1.000000 0.000000 0.000000
vn 1.000000 0.000000 0.000000
vn 0.429533 0.881006 0.198316
vn 0.500777 0.844007 0.192025
vn 0.719454 -0.694540 0.000000
vn 1.000000 0.000000 0.000000
vn 0.719454 -0.694540 0.000000
vn 1.000000 0.000000 0.000000
vn 1.000000 0.000000 0.000000
vn 1.000000 0.000000 0.000000
vn 0.510274 0.860012 0.000000
vn 0.510274 0.860012 0.000000
vn -0.500777 0.844008 0.192025
vn -0.500777 0.844008 0.192025
vn -1.000000 -0.000000 0.000000
vn -1.000000 -0.000000 0.000000
vn -1.000000 -0.000000 0.000000
vn -1.000000 -0.000000 0.000000
vn -0.597044 -0.785313 -0.163776
vn -0.597044 -0.785313 -0.163776
vn -0.432965 0.024678 0.901073
vn -0.432965 0.024678 0.901073
vn -1.000000 0.000000 0.000000
vn -1.000000 0.000000 0.000000
vn -1.000000 0.000000 0.000000
vn -1.000000 0.000000 0.000000
vn -0.708333 -0.019167 -0.705618
vn -0.708333 -0.019167 -0.705618
vn -0.714402 -0.625435 0.313785
vn -0.714402 -0.625435 0.313785
vn -1.000000 0.000000 -0.000000
vn -1.000000 0.000000 -0.000000
vn -1.000000 0.000000 -0.000000
vn -1.000000 -0.000000 -0.000000
vn -0.607165 0.708935 -0.358835
vn -0.607165 0.708935 -0.358835
vn -0.510273 0.860012 0.000000
vn -0.510273 0.860012 0.000000
vn -1.000000 0.000000 0.000000
vn -1.000000 0.000000 0.000000
vn -1.000000 0.000000 0.000000
vn -1.000000 -0.000000 0.000000
vn -0.719457 -0.694537 0.000000
vn -0.719457 -0.694537 0.000000
vn 0.714399 -0.625437 0.313787
vn 1.000000 0.000000 0.000000
vn 0.796685 -0.540889 0.269691
vn 1.000000 0.000000 0.000000
vn 1.000000 0.000000 0.000000
vn 1.000000 0.000000 0.000000
vn 0.500762 0.771380 -0.392697
vn 0.607162 0.708936 -0.358836

vt 1.595219 0.827520
vt 1.606064 0.827586
vt 1.595231 0.825522
vt 1.606076 0.825588
vt 0.755989 0.891085
vt 0.998414 0.891084
vt 0.755989 0.871493
vt 0.998414 0.871492
vt -1.019901 0.860988
vt -1.279476 0.860989
vt -1.019900 0.889254
vt -1.279476 0.889255
vt 0.815310 0.886054
vt 0.277676 0.886052
vt 0.815311 0.861016
vt 0.277676 0.861014
vt 1.606076 0.825588
vt 1.606064 0.827586
vt 1.595231 0.825522
vt 1.595219 0.827520
vt 0.998414 0.871492
vt 0.998414 0.891084
vt 0.755989 0.871493
vt 0.755989 0.891085
vt -1.279476 0.889255
vt -1.279476 0.860989
vt -1.019900 0.889254
vt -1.019901 0.860988
vt 0.277676 0.861014
vt 0.277676 0.886052
vt 0.815311 0.861016
vt 0.815310 0.886054
vt 0.303607 0.823797
vt 0.303749 0.823933
vt 0.302422 0.823817
vt 0.302287 0.824061
vt 0.302302 0.824978
vt 0.303765 0.824954
vt 0.335915 0.824423
vt 0.335898 0.823403
vt 0.339022 0.824372
vt 0.339007 0.823455
vt 0.336305 0.823258
vt 0.338594 0.823220
vt -0.489985 0.570912
vt 0.255483 0.753139
vt 1.128516 0.570912
vt 0.648246 0.753139
vt 1.123274 0.665403
vt 1.123274 0.665403
vt 0.648246 0.753139
vt 1.128516 0.570912
vt 0.255483 0.753139
vt -0.489985 0.570912
vt 0.303607 0.823797
vt 0.302422 0.823817
vt 0.303749 0.823933
vt 0.302287 0.824061
vt 0.303765 0.824954
vt 0.302302 0.824978
vt 0.338594 0.823220
vt 0.336305 0.823258
vt 0.339007 0.823455
vt 0.335898 0.823403
vt 0.339022 0.824372
vt 0.335915 0.824423
vt 0.349236 0.820359
vt 0.347624 0.820359
vt 0.340123 0.824972
vt 0.330945 0.820359
vt 0.330185 0.820359
vt 0.335754 0.824972
vt 0.330254 0.822876
vt 0.349236 0.820359
vt 0.340123 0.824972
vt 0.347624 0.820359
vt 0.330945 0.820359
vt 0.330185 0.820359
vt 0.335754 0.824972
vt 0.330254 0.822876
vt 1.471301 0.825995
vt 1.471458 0.831675
vt 1.345081 0.825995
vt 1.342525 0.831675
vt 1.472823 0.860012
vt 1.316156 0.860012
vt 1.472988 0.866121
vt 1.313255 0.866121
vt -1.361012 0.824873
vt -1.357478 0.831526
vt -1.818920 0.824873
vt -1.821199 0.831526
vt -1.319576 0.860226
vt -1.828404 0.860226
vt -1.316207 0.870462
vt -1.830677 0.870462
vt -0.649064 0.819646
vt -0.649064 0.831619
vt -0.953307 0.819646
vt -0.954453 0.831619
vt -0.638570 0.860597
vt -0.965880 0.860597
vt -0.637722 0.868042
vt -0.966066 0.868042
vt -1.830677 0.870462
vt -1.316207 0.870462
vt -1.828404 0.860226
vt -1.319576 0.860226
vt -1.821199 0.831526
vt -1.357478 0.831526
vt -1.818920 0.824873
vt -1.361012 0.824873
vt 1.313255 0.866121
vt 1.472988 0.866121
vt 1.316156 0.860012
vt 1.472823 0.860012
vt 1.342525 0.831675
vt 1.471458 0.831675
vt 1.345081 0.825995
vt 1.471301 0.825995
vt 0.109963 0.821453
vt -0.665583 0.821453
vt 0.111695 0.831420
vt -0.667092 0.831420
vt -0.770447 0.860471
vt 0.099646 0.860471
vt 0.099570 0.867795
vt -0.785317 0.867795
vt -0.966066 0.868042
vt -0.637722 0.868042
vt -0.965880 0.860597
vt -0.638570 0.860597
vt -0.954453 0.831619
vt -0.649064 0.831619
vt -0.953307 0.819646
vt -0.649064 0.819646
vt 0.109963 0.821453
vt 0.111695 0.831420
vt -0.665583 0.821453
vt -0.667092 0.831420
vt -0.770447 0.860471
vt 0.099646 0.860471
vt 0.099570 0.867795
vt -0.785317 0.867795

g RuneD_A_Stair02
f 3/3/3 2/2/2 1/1/1
f 2/2/2 3/3/3 4/4/4
f 7/7/7 6/6/6 5/5/5
f 6/6/6 7/7/7 8/8/8
f 11/11/11 10/10/10 9/9/9
f 10/10/10 11/11/11 12/12/12
f 15/15/15 14/14/14 13/13/13
f 14/14/14 15/15/15 16/16/16
f 19/19/19 18/18/18 17/17/17
f 18/18/18 19/19/19 20/20/20
f 23/23/23 22/22/22 21/21/21
f 22/22/22 23/23/23 24/24/24
f 27/27/27 26/26/26 25/25/25
f 26/26/26 27/27/27 28/28/28
f 31/31/31 30/30/30 29/29/29
f 30/30/30 31/31/31 32/32/32
f 35/35/35 34/34/34 33/33/33
f 34/34/34 35/35/35 36/36/36
f 38/38/38 36/36/36 37/37/37
f 36/36/36 38/38/38 34/34/34
f 39/39/39 34/34/34 38/38/38
f 34/34/34 39/39/39 40/40/40
f 41/41/41 40/40/40 39/39/39
f 42/42/42 40/40/40 41/41/41
f 40/40/40 42/42/42 43/43/43
f 44/44/44 43/43/43 42/42/42
f 47/47/47 46/46/46 45/45/45
f 46/46/46 47/47/47 48/48/48
f 49/49/49 48/48/48 47/47/47
f 52/52/52 51/51/51 50/50/50
f 51/51/51 52/52/52 53/53/53
f 54/54/54 53/53/53 52/52/52
f 57/57/57 56/56/56 55/55/55
f 56/56/56 57/57/57 58/58/58
f 59/59/59 58/58/58 57/57/57
f 58/58/58 59/59/59 60/60/60
f 63/63/63 62/62/62 61/61/61
f 62/62/62 63/63/63 64/64/64
f 65/65/65 64/64/64 63/63/63
f 66/66/66 64/64/64 65/65/65
f 64/64/64 66/66/66 57/57/57
f 59/59/59 57/57/57 66/66/66
f 69/69/69 68/68/68 67/67/67
f 68/68/68 69/69/69 70/70/70
f 70/70/70 69/69/69 71/71/71
f 72/72/72 71/71/71 69/69/69
f 71/71/71 72/72/72 73/73/73
f 76/76/76 75/75/75 74/74/74
f 77/77/77 75/75/75 76/76/76
f 78/78/78 75/75/75 77/77/77
f 75/75/75 78/78/78 79/79/79
f 80/80/80 79/79/79 78/78/78
f 83/83/83 82/82/82 81/81/81
f 84/84/84 82/82/82 83/83/83
f 82/82/82 84/84/84 85/85/85
f 86/86/86 85/85/85 84/84/84
f 85/85/85 86/86/86 87/87/87
f 88/88/88 87/87/87 86/86/86
f 91/91/91 90/90/90 89/89/89
f 92/92/92 90/90/90 91/91/91
f 90/90/90 92/92/92 93/93/93
f 94/94/94 93/93/93 92/92/92
f 93/93/93 94/94/94 95/95/95
f 96/96/96 95/95/95 94/94/94
f 99/99/99 98/98/98 97/97/97
f 100/100/100 98/98/98 99/99/99
f 98/98/98 100/100/100 101/101/101
f 102/102/102 101/101/101 100/100/100
f 101/101/101 102/102/102 103/103/103
f 104/104/104 103/103/103 102/102/102
f 107/107/107 106/106/106 105/105/105
f 106/106/106 107/107/107 108/108/108
f 109/109/109 108/108/108 107/107/107
f 108/108/108 109/109/109 110/110/110
f 111/111/111 110/110/110 109/109/109
f 110/110/110 111/111/111 112/112/112
f 115/115/115 114/114/114 113/113/113
f 114/114/114 115/115/115 116/116/116
f 117/117/117 116/116/116 115/115/115
f 116/116/116 117/117/117 118/118/118
f 119/119/119 118/118/118 117/117/117
f 118/118/118 119/119/119 120/120/120
f 123/123/123 122/122/122 121/121/121
f 122/122/122 123/123/123 124/124/124
f 124/124/124 123/123/123 125/125/125
f 126/126/126 125/125/125 123/123/123
f 127/127/127 125/125/125 126/126/126
f 125/125/125 127/127/127 128/128/128
f 131/131/131 130/130/130 129/129/129
f 130/130/130 131/131/131 132/132/132
f 133/133/133 132/132/132 131/131/131
f 132/132/132 133/133/133 134/134/134
f 135/135/135 134/134/134 133/133/133
f 134/134/134 135/135/135 136/136/136
f 139/139/139 138/138/138 137/137/137
f 140/140/140 138/138/138 139/139/139
f 141/141/141 138/138/138 140/140/140
f 138/138/138 141/141/141 142/142/142
f 142/142/142 141/141/141 143/143/143
f 144/144/144 143/143/143 141/141/141
