# DragonNest Model Browser v1.0a

v 149.236557 499.447968 42.706955
v 149.236572 499.447968 85.500000
v 186.525345 499.447968 85.500000
v 186.525345 499.447968 128.293030
v 111.947815 499.447968 85.500015
v 111.947807 499.447968 42.706963
v 111.947807 499.447937 -0.117706
v 74.659050 499.447968 85.500008
v 74.659042 499.447968 42.706970
v 74.659050 499.447937 -0.117706
v 111.947830 499.447937 -42.942337
v 37.370304 499.447968 85.500015
v 37.370296 499.447968 42.706970
v 37.370296 499.447937 -0.117706
v 74.659065 499.447937 -42.942368
v 111.947823 499.447968 -85.735352
v 149.236572 499.447968 128.293030
v 111.947823 499.447968 128.293030
v 74.659058 499.447968 128.293045
v 37.370316 499.447968 128.293045
v 0.081543 499.447968 85.500023
v 0.081543 499.447998 128.293060
v -37.207233 499.448029 128.293045
v 0.081543 499.447968 42.706985
v 0.081545 499.447937 -0.117691
v 37.370308 499.447937 -42.942352
v 74.659065 499.447968 -85.735352
v 111.947823 499.448029 -128.528351
v 74.659065 499.448029 -128.528351
v 37.370304 499.447968 -85.735352
v 0.081544 499.447968 -42.942337
v -37.207211 499.447968 -42.942322
v -37.207203 499.447937 -0.117691
v -74.495964 499.447968 -42.942307
v -74.495964 499.447937 -0.117676
v -111.784721 499.447968 -42.942307
v -111.784721 499.447937 -0.117691
v -149.073471 499.447968 -42.942307
v -149.073471 499.447937 -0.117691
v -186.362228 499.447968 -42.942322
v -186.362228 499.447937 -0.117691
v 37.370312 499.448029 -128.528351
v 0.081542 499.447968 -85.735352
v -37.207218 499.447968 -85.735352
v -74.495972 499.447968 -85.735336
v -111.784729 499.447968 -85.735336
v -149.073471 499.447968 -85.735336
v -186.362228 499.447968 -85.735321
v 0.081539 499.447998 -128.528351
v -37.207222 499.447968 -128.528351
v -74.495979 499.447968 -128.528351
v -111.784737 499.447968 -128.528320
v -149.073486 499.447968 -128.528320
v -186.362244 499.447968 -128.528320
v -186.362259 499.447937 42.706955
v -149.073486 499.447937 42.706970
v -111.784737 499.447937 42.706970
v -74.495979 499.447937 42.706978
v -37.207218 499.447937 42.706985
v -186.362244 499.447968 85.500000
v -149.073486 499.447968 85.500008
v -111.784744 499.447968 85.500015
v -74.495979 499.447968 85.500015
v -37.207226 499.447968 85.500015
v -186.362259 499.448029 128.293030
v -149.073502 499.448029 128.293030
v -111.784752 499.448029 128.293030
v -74.495995 499.448029 128.293045
v 186.525330 499.447968 42.706947
v 186.525345 499.447937 -0.117722
v 149.236572 499.447937 -0.117706
v 186.525330 499.447937 -42.942337
v 149.236588 499.447937 -42.942337
v 186.525345 499.447968 -85.735352
v 149.236588 499.447968 -85.735352
v 186.525330 499.448029 -128.528351
v 149.236588 499.448029 -128.528351

vn 0.000000 -1.000000 0.000000
vn -0.000000 -1.000000 0.000000
vn -0.000000 -1.000000 0.000000
vn -0.000000 -1.000000 0.000000
vn -0.000000 -1.000000 0.000000
vn 0.000000 -1.000000 0.000000
vn 0.000000 -1.000000 0.000000
vn -0.000000 -1.000000 0.000000
vn 0.000000 -1.000000 0.000000
vn 0.000000 -1.000000 0.000000
vn 0.000000 -1.000000 -0.000001
vn -0.000000 -1.000000 0.000000
vn 0.000000 -1.000000 0.000000
vn 0.000000 -1.000000 0.000000
vn 0.000000 -1.000000 -0.000001
vn 0.000000 -1.000000 -0.000001
vn -0.000000 -1.000000 0.000000
vn -0.000000 -1.000000 0.000000
vn -0.000000 -1.000000 0.000000
vn -0.000000 -1.000000 0.000000
vn -0.000000 -1.000000 0.000000
vn -0.000001 -1.000000 0.000000
vn -0.000000 -1.000000 0.000001
vn 0.000000 -1.000000 0.000000
vn 0.000000 -1.000000 0.000000
vn -0.000000 -1.000000 -0.000001
vn -0.000000 -1.000000 -0.000001
vn -0.000000 -1.000000 -0.000001
vn -0.000000 -1.000000 -0.000001
vn 0.000000 -1.000000 -0.000001
vn -0.000000 -1.000000 -0.000000
vn -0.000000 -1.000000 -0.000000
vn 0.000000 -1.000000 -0.000000
vn -0.000000 -1.000000 -0.000000
vn -0.000000 -1.000000 -0.000000
vn 0.000000 -1.000000 -0.000000
vn 0.000000 -1.000000 -0.000000
vn 0.000000 -1.000000 -0.000000
vn 0.000000 -1.000000 -0.000000
vn 0.000000 -1.000000 -0.000000
vn -0.000000 -1.000000 -0.000000
vn 0.000000 -1.000000 -0.000001
vn 0.000000 -1.000000 -0.000000
vn 0.000000 -1.000000 -0.000000
vn -0.000000 -1.000000 0.000000
vn -0.000000 -1.000000 0.000000
vn -0.000000 -1.000000 0.000000
vn -0.000000 -1.000000 0.000000
vn 0.000001 -1.000000 -0.000000
vn 0.000000 -1.000000 -0.000000
vn -0.000000 -1.000000 0.000000
vn -0.000000 -1.000000 0.000000
vn -0.000000 -1.000000 0.000000
vn -0.000000 -1.000000 0.000000
vn -0.000000 -1.000000 0.000001
vn -0.000000 -1.000000 0.000001
vn -0.000000 -1.000000 0.000001
vn -0.000000 -1.000000 0.000001
vn 0.000000 -1.000000 0.000001
vn -0.000000 -1.000000 0.000001
vn -0.000000 -1.000000 0.000001
vn -0.000000 -1.000000 0.000001
vn -0.000000 -1.000000 0.000001
vn -0.000000 -1.000000 0.000001
vn -0.000000 -1.000000 0.000001
vn -0.000000 -1.000000 0.000001
vn -0.000000 -1.000000 0.000001
vn -0.000000 -1.000000 0.000001
vn 0.000000 -1.000000 0.000000
vn 0.000000 -1.000000 0.000000
vn 0.000000 -1.000000 0.000000
vn -0.000000 -1.000000 -0.000001
vn -0.000000 -1.000000 -0.000001
vn -0.000000 -1.000000 -0.000001
vn -0.000000 -1.000000 -0.000001
vn -0.000000 -1.000000 -0.000001
vn -0.000000 -1.000000 -0.000001

vt 0.631907 0.294051
vt 0.698368 0.293926
vt 0.698368 0.228870
vt 0.631907 0.228994
vt 0.698368 0.228870
vt 0.631907 0.228994
vt 0.698368 0.228870
vt 0.698368 0.293926
vt 0.631907 0.294051
vt 0.698368 0.293926
vt 0.631907 0.228994
vt 0.698368 0.228870
vt 0.631907 0.228994
vt 0.698368 0.228870
vt 0.631907 0.294051
vt 0.698368 0.228870
vt 0.631907 0.294051
vt 0.631907 0.228994
vt 0.631907 0.294051
vt 0.631907 0.228994
vt 0.698368 0.293926
vt 0.631907 0.294051
vt 0.631907 0.228994
vt 0.631907 0.294051
vt 0.698368 0.293926
vt 0.631907 0.228994
vt 0.698368 0.293926
vt 0.631907 0.228994
vt 0.631907 0.294051
vt 0.698368 0.228870
vt 0.631907 0.294051
vt 0.631907 0.228994
vt 0.698368 0.228870
vt 0.631907 0.294051
vt 0.698368 0.293926
vt 0.631907 0.228994
vt 0.698368 0.228870
vt 0.631907 0.294051
vt 0.698368 0.293926
vt 0.631907 0.228994
vt 0.698368 0.228870
vt 0.631907 0.228994
vt 0.698368 0.293926
vt 0.698368 0.228870
vt 0.698368 0.293926
vt 0.698368 0.228870
vt 0.698368 0.293926
vt 0.698368 0.228870
vt 0.631907 0.294051
vt 0.631907 0.228994
vt 0.631907 0.294051
vt 0.631907 0.228994
vt 0.631907 0.294051
vt 0.631907 0.228994
vt 0.631907 0.228994
vt 0.631907 0.294051
vt 0.631907 0.228994
vt 0.631907 0.294051
vt 0.631907 0.228994
vt 0.698368 0.228870
vt 0.698368 0.293926
vt 0.698368 0.228870
vt 0.698368 0.293926
vt 0.698368 0.228870
vt 0.631907 0.228994
vt 0.631907 0.294051
vt 0.631907 0.228994
vt 0.631907 0.294051
vt 0.631907 0.228994
vt 0.698368 0.228870
vt 0.698368 0.293926
vt 0.631907 0.228994
vt 0.631907 0.294051
vt 0.698368 0.228870
vt 0.698368 0.293926
vt 0.631907 0.228994
vt 0.631907 0.294051

g Object592
f 3/3/3 2/2/2 1/1/1
f 2/2/2 3/3/3 4/4/4
f 6/6/6 2/2/2 5/5/5
f 2/2/2 6/6/6 1/1/1
f 7/7/7 1/1/1 6/6/6
f 9/9/9 5/5/5 8/8/8
f 5/5/5 9/9/9 6/6/6
f 10/10/10 6/6/6 9/9/9
f 6/6/6 10/10/10 7/7/7
f 11/11/11 7/7/7 10/10/10
f 13/13/13 8/8/8 12/12/12
f 8/8/8 13/13/13 9/9/9
f 14/14/14 9/9/9 13/13/13
f 9/9/9 14/14/14 10/10/10
f 15/15/15 10/10/10 14/14/14
f 10/10/10 15/15/15 11/11/11
f 16/16/16 11/11/11 15/15/15
f 17/17/17 2/2/2 4/4/4
f 2/2/2 17/17/17 5/5/5
f 18/18/18 5/5/5 17/17/17
f 5/5/5 18/18/18 8/8/8
f 19/19/19 8/8/8 18/18/18
f 8/8/8 19/19/19 12/12/12
f 20/20/20 12/12/12 19/19/19
f 12/12/12 20/20/20 21/21/21
f 22/22/22 21/21/21 20/20/20
f 21/21/21 22/22/22 23/23/23
f 24/24/24 12/12/12 21/21/21
f 12/12/12 24/24/24 13/13/13
f 25/25/25 13/13/13 24/24/24
f 13/13/13 25/25/25 14/14/14
f 26/26/26 14/14/14 25/25/25
f 14/14/14 26/26/26 15/15/15
f 27/27/27 15/15/15 26/26/26
f 15/15/15 27/27/27 16/16/16
f 28/28/28 16/16/16 27/27/27
f 27/27/27 29/29/29 28/28/28
f 29/29/29 27/27/27 30/30/30
f 26/26/26 30/30/30 27/27/27
f 30/30/30 26/26/26 31/31/31
f 25/25/25 31/31/31 26/26/26
f 31/31/31 25/25/25 32/32/32
f 33/33/33 32/32/32 25/25/25
f 32/32/32 33/33/33 34/34/34
f 35/35/35 34/34/34 33/33/33
f 34/34/34 35/35/35 36/36/36
f 37/37/37 36/36/36 35/35/35
f 36/36/36 37/37/37 38/38/38
f 39/39/39 38/38/38 37/37/37
f 38/38/38 39/39/39 40/40/40
f 41/41/41 40/40/40 39/39/39
f 30/30/30 42/42/42 29/29/29
f 42/42/42 30/30/30 43/43/43
f 31/31/31 43/43/43 30/30/30
f 43/43/43 31/31/31 44/44/44
f 32/32/32 44/44/44 31/31/31
f 44/44/44 32/32/32 45/45/45
f 34/34/34 45/45/45 32/32/32
f 45/45/45 34/34/34 46/46/46
f 36/36/36 46/46/46 34/34/34
f 46/46/46 36/36/36 47/47/47
f 38/38/38 47/47/47 36/36/36
f 47/47/47 38/38/38 48/48/48
f 40/40/40 48/48/48 38/38/38
f 43/43/43 49/49/49 42/42/42
f 49/49/49 43/43/43 50/50/50
f 44/44/44 50/50/50 43/43/43
f 50/50/50 44/44/44 51/51/51
f 45/45/45 51/51/51 44/44/44
f 51/51/51 45/45/45 52/52/52
f 46/46/46 52/52/52 45/45/45
f 52/52/52 46/46/46 53/53/53
f 47/47/47 53/53/53 46/46/46
f 53/53/53 47/47/47 54/54/54
f 48/48/48 54/54/54 47/47/47
f 39/39/39 55/55/55 41/41/41
f 55/55/55 39/39/39 56/56/56
f 37/37/37 56/56/56 39/39/39
f 56/56/56 37/37/37 57/57/57
f 35/35/35 57/57/57 37/37/37
f 57/57/57 35/35/35 58/58/58
f 33/33/33 58/58/58 35/35/35
f 58/58/58 33/33/33 59/59/59
f 25/25/25 59/59/59 33/33/33
f 59/59/59 25/25/25 24/24/24
f 56/56/56 60/60/60 55/55/55
f 60/60/60 56/56/56 61/61/61
f 57/57/57 61/61/61 56/56/56
f 61/61/61 57/57/57 62/62/62
f 58/58/58 62/62/62 57/57/57
f 62/62/62 58/58/58 63/63/63
f 59/59/59 63/63/63 58/58/58
f 63/63/63 59/59/59 64/64/64
f 24/24/24 64/64/64 59/59/59
f 64/64/64 24/24/24 21/21/21
f 61/61/61 65/65/65 60/60/60
f 65/65/65 61/61/61 66/66/66
f 62/62/62 66/66/66 61/61/61
f 66/66/66 62/62/62 67/67/67
f 63/63/63 67/67/67 62/62/62
f 67/67/67 63/63/63 68/68/68
f 64/64/64 68/68/68 63/63/63
f 68/68/68 64/64/64 23/23/23
f 21/21/21 23/23/23 64/64/64
f 71/71/71 70/70/70 69/69/69
f 70/70/70 71/71/71 72/72/72
f 73/73/73 72/72/72 71/71/71
f 72/72/72 73/73/73 74/74/74
f 75/75/75 74/74/74 73/73/73
f 74/74/74 75/75/75 76/76/76
f 77/77/77 76/76/76 75/75/75
f 1/1/1 69/69/69 3/3/3
f 69/69/69 1/1/1 71/71/71
f 7/7/7 71/71/71 1/1/1
f 71/71/71 7/7/7 73/73/73
f 11/11/11 73/73/73 7/7/7
f 73/73/73 11/11/11 75/75/75
f 16/16/16 75/75/75 11/11/11
f 75/75/75 16/16/16 77/77/77
f 28/28/28 77/77/77 16/16/16
