# DragonNest Model Browser v1.0a

v 186.542526 499.416229 3.277969
v -186.379440 499.416229 -3.513382
v -186.379456 499.416260 3.278030
v 186.542557 499.416260 -3.513443
v -62.611130 499.416321 128.168701
v -62.611130 512.157288 127.475189
v 0.081556 499.416260 128.168732
v 0.081556 512.157227 127.475220
v 62.774216 512.157227 127.475159
v 62.774216 499.416260 128.168671
v 62.774185 499.416290 -128.404037
v 62.774185 512.157227 -127.710526
v 0.081541 499.416260 -128.404053
v 0.081541 512.157227 -127.710541
v -62.611115 512.157227 -127.710510
v -62.611115 499.416260 -128.404007
v -186.379440 499.416229 -3.513382
v -185.884918 512.157166 -3.513382
v -186.379456 499.416260 40.241074
v -185.884918 512.157227 40.241074
v -186.651169 512.157288 127.612427
v -186.898438 499.416321 127.959198
v -125.014153 499.416321 128.168732
v -125.014153 512.157288 127.475189
v -62.611130 512.157288 127.475189
v -62.611130 499.416321 128.168701
v 62.774216 499.416260 128.168671
v 62.774216 512.157227 127.475159
v 125.177231 499.416260 128.168671
v 125.177231 512.157227 127.475159
v 186.814255 512.157227 127.612366
v 187.061508 499.416260 127.959137
v 186.542557 499.416260 40.240997
v 186.048019 512.157227 40.240997
v 186.048019 512.157227 -3.513443
v 186.542557 499.416260 -3.513443
v 186.542526 499.416229 3.277969
v 186.047989 512.157166 3.277939
v 186.542526 499.416260 -40.476456
v 186.048019 512.157227 -40.476456
v 186.814224 512.157227 -127.847763
v 187.061478 499.416321 -128.194519
v 125.177200 499.416290 -128.404037
v 125.177200 512.157227 -127.710526
v 62.774185 512.157227 -127.710526
v 62.774185 499.416290 -128.404037
v -62.611115 499.416260 -128.404007
v -62.611115 512.157227 -127.710510
v -125.014137 499.416260 -128.403992
v -125.014137 512.157227 -127.710495
v -186.651169 512.157227 -127.847717
v -186.898438 499.416260 -128.194489
v -186.379456 499.416260 -40.476395
v -185.884918 512.157227 -40.476410
v -185.884918 512.157166 3.278015
v -186.379456 499.416260 3.278030

vn 0.999248 0.038786 0.000000
vn -0.999248 0.038784 -0.000000
vn -0.999248 0.038786 -0.000000
vn 0.999248 0.038786 0.000000
vn 0.000000 0.054351 0.998522
vn -0.000000 0.054351 0.998522
vn 0.000000 0.054351 0.998522
vn 0.000000 0.054351 0.998522
vn 0.000000 0.054351 0.998522
vn 0.000000 0.054351 0.998522
vn 0.000000 0.054351 -0.998522
vn 0.000000 0.054351 -0.998522
vn -0.000000 0.054351 -0.998522
vn -0.000000 0.054351 -0.998522
vn -0.000000 0.054350 -0.998522
vn -0.000000 0.054350 -0.998522
vn -0.999248 0.038784 -0.000000
vn -0.999248 0.038785 -0.000000
vn -0.999273 0.037885 -0.004251
vn -0.999238 0.038785 -0.004381
vn -0.711587 0.036638 0.701642
vn -0.708240 0.032939 0.705203
vn 0.000748 0.052597 0.998616
vn 0.001112 0.054354 0.998521
vn -0.000000 0.054351 0.998522
vn 0.000000 0.054351 0.998522
vn 0.000000 0.054351 0.998522
vn 0.000000 0.054351 0.998522
vn -0.000747 0.052595 0.998616
vn -0.001111 0.054351 0.998521
vn 0.711587 0.036637 0.701642
vn 0.708240 0.032938 0.705203
vn 0.999273 0.037885 -0.004251
vn 0.999238 0.038785 -0.004381
vn 0.999248 0.038786 -0.000000
vn 0.999248 0.038786 0.000000
vn 0.999248 0.038786 0.000000
vn 0.999248 0.038785 0.000000
vn 0.999273 0.037883 0.004251
vn 0.999238 0.038783 0.004381
vn 0.711586 0.036636 -0.701643
vn 0.708240 0.032937 -0.705203
vn -0.000748 0.052595 -0.998616
vn -0.001112 0.054351 -0.998521
vn 0.000000 0.054351 -0.998522
vn 0.000000 0.054351 -0.998522
vn -0.000000 0.054350 -0.998522
vn -0.000000 0.054350 -0.998522
vn 0.000747 0.052594 -0.998616
vn 0.001111 0.054350 -0.998521
vn -0.711587 0.036638 -0.701642
vn -0.708240 0.032939 -0.705203
vn -0.999273 0.037885 0.004251
vn -0.999238 0.038785 0.004381
vn -0.999248 0.038786 -0.000000
vn -0.999248 0.038786 -0.000000

vt 0.753580 0.424378
vt 0.753580 0.424378
vt 0.753580 0.424378
vt 0.753580 0.424378
vt 0.992505 0.424594
vt 0.992505 0.489069
vt 0.514655 0.424594
vt 0.514655 0.489069
vt 0.992505 0.489069
vt 0.992505 0.424594
vt 0.992505 0.424594
vt 0.992505 0.489069
vt 0.514655 0.424594
vt 0.514655 0.489069
vt 0.992505 0.489069
vt 0.992505 0.424594
vt 0.753580 0.424378
vt 0.753580 0.488840
vt 0.992505 0.424378
vt 0.992505 0.488840
vt 0.514655 0.488840
vt 0.514655 0.424378
vt 0.992505 0.424378
vt 0.992505 0.488840
vt 0.514655 0.488840
vt 0.514655 0.424378
vt 0.514655 0.424378
vt 0.514655 0.488840
vt 0.992505 0.424378
vt 0.992505 0.488840
vt 0.514655 0.488840
vt 0.514655 0.424378
vt 0.992505 0.424378
vt 0.992505 0.488840
vt 0.753580 0.488840
vt 0.753580 0.424378
vt 0.753580 0.424378
vt 0.753580 0.488840
vt 0.992505 0.424378
vt 0.992505 0.488840
vt 0.514655 0.488840
vt 0.514655 0.424378
vt 0.992505 0.424378
vt 0.992505 0.488840
vt 0.514655 0.488840
vt 0.514655 0.424378
vt 0.514655 0.424378
vt 0.514655 0.488840
vt 0.992505 0.424378
vt 0.992505 0.488840
vt 0.514655 0.488840
vt 0.514655 0.424378
vt 0.992505 0.424378
vt 0.992505 0.488840
vt 0.753580 0.488840
vt 0.753580 0.424378

g Object591
f 7/7/7 6/6/6 5/5/5
f 6/6/6 7/7/7 8/8/8
f 8/8/8 7/7/7 9/9/9
f 10/10/10 9/9/9 7/7/7
f 13/13/13 12/12/12 11/11/11
f 12/12/12 13/13/13 14/14/14
f 14/14/14 13/13/13 15/15/15
f 16/16/16 15/15/15 13/13/13
f 19/19/19 18/18/18 17/17/17
f 18/18/18 19/19/19 20/20/20
f 20/20/20 19/19/19 21/21/21
f 22/22/22 21/21/21 19/19/19
f 23/23/23 21/21/21 22/22/22
f 21/21/21 23/23/23 24/24/24
f 24/24/24 23/23/23 25/25/25
f 26/26/26 25/25/25 23/23/23
f 29/29/29 28/28/28 27/27/27
f 28/28/28 29/29/29 30/30/30
f 30/30/30 29/29/29 31/31/31
f 32/32/32 31/31/31 29/29/29
f 33/33/33 31/31/31 32/32/32
f 31/31/31 33/33/33 34/34/34
f 34/34/34 33/33/33 35/35/35
f 36/36/36 35/35/35 33/33/33
f 39/39/39 38/38/38 37/37/37
f 38/38/38 39/39/39 40/40/40
f 40/40/40 39/39/39 41/41/41
f 42/42/42 41/41/41 39/39/39
f 43/43/43 41/41/41 42/42/42
f 41/41/41 43/43/43 44/44/44
f 44/44/44 43/43/43 45/45/45
f 46/46/46 45/45/45 43/43/43
f 49/49/49 48/48/48 47/47/47
f 48/48/48 49/49/49 50/50/50
f 50/50/50 49/49/49 51/51/51
f 52/52/52 51/51/51 49/49/49
f 53/53/53 51/51/51 52/52/52
f 51/51/51 53/53/53 54/54/54
f 54/54/54 53/53/53 55/55/55
f 56/56/56 55/55/55 53/53/53
