# DragonNest Model Browser v1.0a

v -77.625732 330.172241 9.333496
v 77.625488 330.172241 9.333496
v -77.625732 5.016113 9.333496
v 77.625488 5.016113 9.333496
v 77.625488 5.016113 -9.333008
v 77.625488 330.172241 -9.333008
v -77.625732 5.016113 -9.333008
v -77.625732 330.172241 -9.333008
v 77.625488 330.172241 -9.333008
v 77.625488 330.172241 9.333496
v -77.625732 330.172241 -9.333008
v -77.625732 330.172241 9.333496
v 77.625488 330.172241 9.333496
v 77.625488 330.172241 -9.333008
v 77.625488 5.016113 9.333496
v 77.625488 5.016113 -9.333008
v -77.625732 5.016113 -9.333008
v -77.625732 330.172241 -9.333008
v -77.625732 5.016113 9.333496
v -77.625732 330.172241 9.333496
v 77.625488 5.016113 -9.333008
v -77.625732 5.016113 -9.333008
v 77.625488 5.016113 9.333496
v -77.625732 5.016113 9.333496

vn -0.000000 0.000000 1.000000
vn -0.000000 0.000000 1.000000
vn -0.000000 0.000000 1.000000
vn -0.000000 0.000000 1.000000
vn -0.000000 0.000000 -1.000000
vn -0.000000 0.000000 -1.000000
vn -0.000000 0.000000 -1.000000
vn -0.000000 0.000000 -1.000000
vn -0.000000 1.000000 0.000000
vn -0.000000 1.000000 0.000000
vn -0.000000 1.000000 0.000000
vn -0.000000 1.000000 0.000000
vn 1.000000 0.000000 0.000000
vn 1.000000 0.000000 0.000000
vn 1.000000 0.000000 0.000000
vn 1.000000 0.000000 0.000000
vn -1.000000 0.000000 0.000000
vn -1.000000 0.000000 0.000000
vn -1.000000 0.000000 0.000000
vn -1.000000 0.000000 0.000000
vn -0.000000 -1.000000 0.000000
vn -0.000000 -1.000000 0.000000
vn -0.000000 -1.000000 0.000000
vn -0.000000 -1.000000 0.000000

vt 0.833926 0.970639
vt 0.972867 0.970639
vt 0.833926 0.630490
vt 0.972867 0.630490
vt 0.972867 0.630490
vt 0.972867 0.970639
vt 0.833926 0.630490
vt 0.833926 0.970639
vt 0.972867 0.992201
vt 0.972867 0.970830
vt 0.833926 0.992201
vt 0.833926 0.970830
vt 0.972867 0.970639
vt 0.994794 0.970639
vt 0.972867 0.630490
vt 0.994794 0.630490
vt 0.973210 0.630971
vt 0.973209 0.970854
vt 0.994558 0.630971
vt 0.994558 0.970854
vt 0.833975 0.630490
vt 0.972867 0.630490
vt 0.833975 0.608363
vt 0.972867 0.608363

g Object01
f 3/3/3 2/2/2 1/1/1
f 2/2/2 3/3/3 4/4/4
f 7/7/7 6/6/6 5/5/5
f 6/6/6 7/7/7 8/8/8
f 11/11/11 10/10/10 9/9/9
f 10/10/10 11/11/11 12/12/12
f 15/15/15 14/14/14 13/13/13
f 14/14/14 15/15/15 16/16/16
f 19/19/19 18/18/18 17/17/17
f 18/18/18 19/19/19 20/20/20
f 23/23/23 22/22/22 21/21/21
f 22/22/22 23/23/23 24/24/24
