# DragonNest Model Browser v1.0a

v -295.207153 424.718140 668.441895
v 252.788391 330.685547 687.977661
v 424.696106 417.081543 391.830627
v -263.871582 330.748901 689.843994
v 284.906738 420.753296 666.575684
v -6.674568 424.420654 672.746460
v -38.010124 329.493164 694.148315
v -448.804810 418.795227 391.830841
v -260.919617 330.685547 100.997131
v -296.054688 420.933594 122.399109
v 449.301331 322.199951 355.402557
v -473.409912 323.315552 354.185028
v 253.266479 330.685486 100.997070
v 284.602173 424.567871 122.399017
v -296.054688 420.933594 122.399109
v -339.425629 384.741211 114.183472
v -254.165771 384.748657 114.183456
v -330.300598 330.692261 100.997131
v -260.919617 330.685547 100.997131
v 253.266479 330.685486 100.997070
v 318.848083 330.692261 100.997025
v 242.713196 384.748657 114.183395
v 327.973145 384.741211 114.183395
v 284.602173 424.567871 122.399017
v 449.301331 322.199951 355.402557
v 449.301208 322.208252 429.717804
v 434.141418 388.635864 345.487640
v 434.141418 387.711060 439.675568
v 424.696106 417.081543 391.830627
v -448.804810 418.795227 391.830841
v -458.250000 386.043274 439.002716
v -458.250061 389.716187 345.487793
v -473.409851 323.323975 428.907379
v -473.409912 323.315552 354.185028
v -263.871582 330.748901 689.843994
v -329.453156 330.755798 689.843994
v -251.419769 392.980713 676.657593
v -340.476624 392.973083 676.657593
v -295.207153 424.718140 668.441895
v 284.906738 420.753296 666.575684
v 328.567627 385.831177 674.791260
v 241.427185 385.838501 674.791260
v 319.952393 330.692139 687.977661
v 252.788391 330.685547 687.977661
v -6.674568 424.420654 672.746460
v 38.934761 393.610901 680.962036
v -48.563408 393.619629 680.962036
v 29.809700 329.501160 694.148315
v -38.010124 329.493164 694.148315
v -45.324135 944.133728 62.317444
v -56.539818 974.624268 86.432220
v -97.101318 943.869385 85.491943
v -87.176086 985.379944 112.495529
v -118.462021 975.609558 117.869690
v -145.643707 940.951721 121.561066
v -148.657242 908.575317 92.549393
v -104.017624 899.767212 62.096313
v -71.303596 913.709229 54.257813
v 96.256477 625.862488 70.198441
v 87.420235 652.683594 67.639709
v 74.325874 623.705261 51.817490
v 68.907967 664.403625 55.916214
v 52.374062 651.773315 44.327713
v 46.355049 619.924011 37.940079
v 59.376015 590.290527 37.926285
v 79.939552 584.481201 47.570633
v 94.558540 593.259155 61.357452

vn -0.000021 0.250576 0.968097
vn -0.000023 0.232530 0.972589
vn 0.950520 0.310648 0.003050
vn 0.000022 0.207285 0.978281
vn 0.000019 0.229025 0.973420
vn 0.000026 0.257688 0.966228
vn -0.000024 0.201411 0.979507
vn -0.956256 0.292307 0.011481
vn 0.000023 0.236957 -0.971520
vn -0.000020 0.221390 -0.975185
vn 0.974940 0.222467 -0.000023
vn -0.974915 0.222578 -0.000024
vn -0.000025 0.236955 -0.971521
vn 0.000018 0.202049 -0.979375
vn -0.000020 0.221390 -0.975185
vn -0.000020 0.229210 -0.973377
vn -0.000006 0.231794 -0.972765
vn 0.000001 0.236986 -0.971513
vn 0.000023 0.236957 -0.971520
vn -0.000025 0.236955 -0.971521
vn -0.000002 0.236985 -0.971513
vn 0.000004 0.225372 -0.974273
vn 0.000019 0.219568 -0.975597
vn 0.000018 0.202049 -0.979375
vn 0.974940 0.222467 -0.000023
vn 0.974632 0.223813 0.001094
vn 0.967468 0.252986 0.001747
vn 0.963369 0.268167 0.002633
vn 0.950520 0.310648 0.003050
vn -0.956256 0.292307 0.011481
vn -0.964728 0.263045 0.010332
vn -0.968324 0.249603 0.006880
vn -0.973635 0.228065 0.004575
vn -0.974915 0.222578 -0.000024
vn 0.000022 0.207285 0.978281
vn 0.000002 0.207309 0.978276
vn -0.000006 0.221780 0.975097
vn -0.000020 0.229011 0.973424
vn -0.000021 0.250576 0.968097
vn 0.000019 0.229025 0.973420
vn 0.000019 0.230806 0.973000
vn 0.000005 0.231381 0.972863
vn -0.000002 0.232558 0.972583
vn -0.000023 0.232530 0.972589
vn 0.000026 0.257688 0.966228
vn 0.000023 0.229671 0.973268
vn 0.000007 0.220269 0.975439
vn -0.000002 0.201437 0.979501
vn -0.000024 0.201411 0.979507
vn -0.355354 0.502440 -0.788212
vn -0.384736 0.530508 -0.755341
vn -0.417888 0.511406 -0.750888
vn -0.360484 0.567669 -0.740137
vn -0.444840 0.475093 -0.759213
vn -0.538611 0.490288 -0.685212
vn -0.466805 0.542181 -0.698665
vn -0.411223 0.476664 -0.776973
vn -0.372999 0.494187 -0.785271
vn 0.625701 0.154322 -0.764646
vn 0.613541 0.146440 -0.775966
vn 0.535569 0.154921 -0.830160
vn 0.543785 0.155446 -0.824703
vn 0.459781 0.124984 -0.879193
vn 0.424632 0.141062 -0.894309
vn 0.436480 0.171860 -0.883147
vn 0.540270 0.166628 -0.824829
vn 0.620897 0.173047 -0.764553

vt 0.515605 0.994749
vt 0.860951 0.507032
vt 0.515605 0.994749
vt 0.860951 0.507032
vt 0.515605 0.994749
vt 0.515605 0.994749
vt 0.860951 0.507032
vt 0.515605 0.994749
vt 0.860951 0.507032
vt 0.515605 0.994749
vt 0.860951 0.507032
vt 0.860951 0.507032
vt 0.860951 0.507032
vt 0.515605 0.994749
vt 0.515605 0.994749
vt 0.020621 0.798308
vt 0.979237 0.798195
vt 0.093478 0.507031
vt 0.860951 0.507032
vt 0.860951 0.507032
vt 0.093478 0.507031
vt 0.979237 0.798195
vt 0.020621 0.798308
vt 0.515605 0.994749
vt 0.860951 0.507032
vt 0.093478 0.507031
vt 0.979237 0.798195
vt 0.020621 0.798308
vt 0.515605 0.994749
vt 0.515605 0.994749
vt 0.020621 0.798308
vt 0.979237 0.798195
vt 0.093478 0.507031
vt 0.860951 0.507032
vt 0.860951 0.507032
vt 0.093478 0.507031
vt 0.979237 0.798195
vt 0.020621 0.798308
vt 0.515605 0.994749
vt 0.515605 0.994749
vt 0.020621 0.798308
vt 0.979237 0.798195
vt 0.093478 0.507031
vt 0.860951 0.507032
vt 0.515605 0.994749
vt 0.020621 0.798308
vt 0.979237 0.798195
vt 0.093478 0.507031
vt 0.860951 0.507032
vt 0.014688 0.245823
vt 0.151262 0.412666
vt 0.489640 0.245823
vt 0.489640 0.501234
vt 0.811194 0.412666
vt 0.980656 0.245823
vt 0.816701 0.045378
vt 0.489640 0.003178
vt 0.165031 0.045378
vt 0.014688 0.245823
vt 0.151262 0.412666
vt 0.489640 0.245823
vt 0.489640 0.501234
vt 0.811194 0.412666
vt 0.980656 0.245823
vt 0.816701 0.045378
vt 0.489640 0.003178
vt 0.165031 0.045378

g LM_A_Karkhouse_windows
f 17/17/17 16/16/16 15/15/15
f 16/16/16 17/17/17 18/18/18
f 19/19/19 18/18/18 17/17/17
f 22/22/22 21/21/21 20/20/20
f 21/21/21 22/22/22 23/23/23
f 24/24/24 23/23/23 22/22/22
f 27/27/27 26/26/26 25/25/25
f 26/26/26 27/27/27 28/28/28
f 29/29/29 28/28/28 27/27/27
f 32/32/32 31/31/31 30/30/30
f 31/31/31 32/32/32 33/33/33
f 34/34/34 33/33/33 32/32/32
f 37/37/37 36/36/36 35/35/35
f 36/36/36 37/37/37 38/38/38
f 39/39/39 38/38/38 37/37/37
f 42/42/42 41/41/41 40/40/40
f 41/41/41 42/42/42 43/43/43
f 44/44/44 43/43/43 42/42/42
f 47/47/47 46/46/46 45/45/45
f 46/46/46 47/47/47 48/48/48
f 49/49/49 48/48/48 47/47/47
f 52/52/52 51/51/51 50/50/50
f 51/51/51 52/52/52 53/53/53
f 53/53/53 52/52/52 54/54/54
f 54/54/54 52/52/52 55/55/55
f 55/55/55 52/52/52 56/56/56
f 56/56/56 52/52/52 57/57/57
f 57/57/57 52/52/52 58/58/58
f 50/50/50 58/58/58 52/52/52
f 61/61/61 60/60/60 59/59/59
f 60/60/60 61/61/61 62/62/62
f 62/62/62 61/61/61 63/63/63
f 63/63/63 61/61/61 64/64/64
f 64/64/64 61/61/61 65/65/65
f 65/65/65 61/61/61 66/66/66
f 66/66/66 61/61/61 67/67/67
f 59/59/59 67/67/67 61/61/61
