# DragonNest Model Browser v1.0a

v 220.236237 173.788986 6.672675
v 219.484497 266.958649 0.700576
v 71.352127 244.842804 -51.512981
v 220.236237 173.788986 7.048655
v 71.478363 244.812164 -51.642414
v 70.221573 338.021210 -31.211945
v 219.484497 266.958649 0.700576
v 220.003784 173.699310 0.700579
v 199.659241 278.918091 2.046408
v 200.167725 185.679855 2.187300
v 170.670898 273.478699 -6.157049
v 171.119324 180.284119 -5.977674
v 136.793869 280.533325 -17.492086
v 137.138626 187.398849 -17.278545
v 109.787651 322.901794 -44.888882
v 110.194199 229.691544 -44.337337
v 70.842659 338.004730 -52.116394
v 71.352127 244.842804 -51.512981
v 220.236237 173.788986 6.672675
v 219.716980 267.048309 6.672671
v 199.342041 185.183884 11.569774
v 198.809601 278.407715 11.701213
v 165.396210 183.030106 6.042014
v 164.781662 276.304352 6.211512
v 126.821609 191.233002 -6.256116
v 126.077576 284.515869 -6.043088
v 105.611252 228.855423 -28.978615
v 104.894325 322.009033 -28.489992
v 70.765106 244.858383 -31.755459
v 70.221573 338.021210 -31.211945
v 70.221573 338.021210 -30.814135
v 104.894325 322.009033 -28.088547
v 70.765106 244.858383 -31.379477
v 105.611252 228.855423 -28.602633
v 126.077576 284.515869 -5.652555
v 126.821609 191.233002 -5.880128
v 164.781662 276.304352 6.598410
v 165.396210 183.030106 6.417998
v 198.809601 278.407715 12.088111
v 199.342041 185.183884 11.945762
v 219.716980 267.048309 7.048655
v 220.236237 173.788986 7.048655
v 71.478363 244.812164 -51.642414
v 110.320435 229.660904 -44.466770
v 70.976227 337.972321 -52.253342
v 109.922440 322.869080 -45.027081
v 137.264862 187.368179 -17.407980
v 136.924988 280.501465 -17.626528
v 171.245560 180.253464 -6.107107
v 170.800812 273.447144 -6.290239
v 200.293961 185.649185 2.057868
v 199.789154 278.886536 1.913218
v 220.130005 173.668655 0.571147
v 219.610733 266.927979 0.571143
v 71.057907 346.880493 -39.195583
v 110.553818 328.588593 -34.472366
v 70.221573 338.021210 -30.814135
v 104.894325 322.009033 -28.088547
v 134.677414 289.354218 -11.989377
v 126.077576 284.515869 -5.652555
v 169.761307 279.340759 0.648444
v 164.781662 276.304352 6.598410
v 198.809601 278.407715 12.088111
v 199.315552 283.708954 7.458415
v 220.350906 269.316162 4.266226
v 219.716980 267.048309 7.048655
v 219.610733 266.927979 0.571143
v 220.350906 269.316162 4.266226
v 199.789154 278.886536 1.913218
v 199.315552 283.708954 7.458415
v 170.800812 273.447144 -6.290239
v 169.761307 279.340759 0.648444
v 134.677414 289.354218 -11.989377
v 136.924988 280.501465 -17.626528
v 109.922440 322.869080 -45.027081
v 110.553818 328.588593 -34.472366
v 71.057907 346.880493 -39.195583
v 70.976227 337.972321 -52.253342

vn -0.228851 -0.001274 -0.973461
vn 0.067956 0.000378 0.997688
vn -0.179629 0.005389 0.983720
vn 0.228851 0.001274 0.973461
vn 0.179594 -0.005483 -0.983726
vn 0.081148 0.006288 -0.996682
vn 0.067956 0.000378 0.997688
vn 0.075894 0.001921 0.997114
vn -0.272293 -0.000031 0.962214
vn -0.270690 0.000550 0.962666
vn -0.270690 0.000550 0.962666
vn -0.270690 0.000550 0.962666
vn -0.712962 -0.001031 0.701202
vn -0.707747 0.001093 0.706465
vn -0.707747 0.001093 0.706465
vn -0.707747 0.001093 0.706465
vn -0.179629 0.005389 0.983720
vn -0.179629 0.005389 0.983720
vn -0.228851 -0.001274 -0.973461
vn -0.228851 -0.001274 -0.973461
vn 0.160580 0.002309 -0.987020
vn 0.160580 0.002309 -0.987020
vn 0.304470 0.003737 -0.952515
vn 0.304470 0.003737 -0.952515
vn 0.304470 0.003737 -0.952515
vn 0.302736 0.004591 -0.953063
vn 0.082109 0.005859 -0.996606
vn 0.082109 0.005859 -0.996606
vn 0.082109 0.005859 -0.996606
vn 0.081148 0.006288 -0.996682
vn -0.081359 -0.006523 0.996664
vn -0.081359 -0.006523 0.996664
vn -0.081359 -0.006523 0.996664
vn -0.082234 -0.006133 0.996594
vn -0.302683 -0.004739 0.953080
vn -0.302683 -0.004739 0.953080
vn -0.302683 -0.004739 0.953080
vn -0.304491 -0.003849 0.952507
vn -0.159091 -0.002958 0.987260
vn -0.160573 -0.002424 0.987021
vn 0.234251 -0.000147 0.972176
vn 0.228851 0.001274 0.973461
vn 0.179594 -0.005483 -0.983726
vn 0.707644 -0.001226 -0.706569
vn 0.180501 -0.005142 -0.983561
vn 0.713000 0.000957 -0.701164
vn 0.713000 0.000957 -0.701164
vn 0.713000 0.000957 -0.701164
vn 0.270699 -0.000600 -0.962664
vn 0.272301 -0.000018 -0.962212
vn 0.272301 -0.000018 -0.962212
vn 0.272301 -0.000018 -0.962212
vn -0.067780 -0.000377 -0.997700
vn -0.067780 -0.000377 -0.997700
vn 0.420489 0.901378 -0.103472
vn 0.496635 0.768681 0.403093
vn 0.213822 0.622195 0.753096
vn 0.217781 0.585766 0.780673
vn 0.593398 0.801991 0.068477
vn 0.093358 0.769172 0.632186
vn 0.021845 0.979092 0.202240
vn -0.041085 0.903470 0.426677
vn 0.159806 0.744557 0.648149
vn 0.196790 0.970873 -0.136672
vn 0.559570 0.827156 0.051912
vn 0.485492 0.620225 0.616132
vn 0.402883 0.729779 -0.552366
vn 0.559570 0.827156 0.051912
vn 0.285304 0.742932 -0.605519
vn 0.196790 0.970873 -0.136672
vn 0.217223 0.717321 -0.662016
vn 0.021845 0.979092 0.202240
vn 0.593398 0.801991 0.068477
vn 0.668805 0.512646 -0.538418
vn 0.680560 0.615983 -0.396740
vn 0.496635 0.768681 0.403093
vn 0.420489 0.901378 -0.103472
vn 0.390962 0.759185 -0.520372

vt 0.021816 0.289003
vt 0.044124 0.751125
vt 0.897937 0.315640
vt 0.021816 0.289003
vt 0.897937 0.315640
vt 0.899703 0.753020
vt 0.044124 0.751125
vt 0.044121 0.295271
vt 0.204857 0.777498
vt 0.204853 0.321644
vt 0.344802 0.695650
vt 0.344799 0.253987
vt 0.501616 0.659254
vt 0.501614 0.217591
vt 0.734577 0.738447
vt 0.734575 0.296784
vt 0.897939 0.757303
vt 0.897937 0.315640
vt 0.021816 0.289003
vt 0.048483 0.749235
vt 0.186140 0.314336
vt 0.212808 0.774569
vt 0.343499 0.251813
vt 0.360350 0.697719
vt 0.503280 0.212760
vt 0.520132 0.658665
vt 0.731695 0.294540
vt 0.748547 0.740445
vt 0.904902 0.313128
vt 0.899703 0.753020
vt 0.899703 0.753020
vt 0.748547 0.740445
vt 0.904902 0.313128
vt 0.731695 0.294540
vt 0.520132 0.658665
vt 0.503280 0.212760
vt 0.360350 0.697719
vt 0.343499 0.251813
vt 0.212808 0.774569
vt 0.186140 0.314336
vt 0.048483 0.749235
vt 0.021816 0.289003
vt 0.897937 0.315640
vt 0.734575 0.296784
vt 0.897939 0.757303
vt 0.734577 0.738447
vt 0.501614 0.217591
vt 0.501616 0.659254
vt 0.344799 0.253987
vt 0.344802 0.695650
vt 0.204853 0.321644
vt 0.204857 0.777498
vt 0.044121 0.295271
vt 0.044124 0.751125
vt 0.921388 0.837308
vt 0.741983 0.791645
vt 0.899703 0.753020
vt 0.748547 0.740445
vt 0.507205 0.715062
vt 0.520132 0.658665
vt 0.350909 0.740983
vt 0.360350 0.697719
vt 0.212808 0.774569
vt 0.220627 0.807748
vt 0.051784 0.772557
vt 0.048483 0.749235
vt 0.044124 0.751125
vt 0.044091 0.777208
vt 0.204857 0.777498
vt 0.212933 0.813443
vt 0.344802 0.695650
vt 0.346047 0.745164
vt 0.518549 0.722138
vt 0.501616 0.659254
vt 0.734577 0.738447
vt 0.745224 0.798590
vt 0.919522 0.836623
vt 0.897939 0.757303

g vine
f 9/9/9 8/8/8 7/7/7
f 8/8/8 9/9/9 10/10/10
f 11/11/11 10/10/10 9/9/9
f 10/10/10 11/11/11 12/12/12
f 13/13/13 12/12/12 11/11/11
f 12/12/12 13/13/13 14/14/14
f 15/15/15 14/14/14 13/13/13
f 14/14/14 15/15/15 16/16/16
f 17/17/17 16/16/16 15/15/15
f 16/16/16 17/17/17 18/18/18
f 21/21/21 20/20/20 19/19/19
f 20/20/20 21/21/21 22/22/22
f 23/23/23 22/22/22 21/21/21
f 22/22/22 23/23/23 24/24/24
f 25/25/25 24/24/24 23/23/23
f 24/24/24 25/25/25 26/26/26
f 27/27/27 26/26/26 25/25/25
f 26/26/26 27/27/27 28/28/28
f 29/29/29 28/28/28 27/27/27
f 28/28/28 29/29/29 30/30/30
f 33/33/33 32/32/32 31/31/31
f 34/34/34 32/32/32 33/33/33
f 32/32/32 34/34/34 35/35/35
f 36/36/36 35/35/35 34/34/34
f 35/35/35 36/36/36 37/37/37
f 38/38/38 37/37/37 36/36/36
f 37/37/37 38/38/38 39/39/39
f 40/40/40 39/39/39 38/38/38
f 39/39/39 40/40/40 41/41/41
f 42/42/42 41/41/41 40/40/40
f 45/45/45 44/44/44 43/43/43
f 46/46/46 44/44/44 45/45/45
f 44/44/44 46/46/46 47/47/47
f 48/48/48 47/47/47 46/46/46
f 47/47/47 48/48/48 49/49/49
f 50/50/50 49/49/49 48/48/48
f 49/49/49 50/50/50 51/51/51
f 52/52/52 51/51/51 50/50/50
f 51/51/51 52/52/52 53/53/53
f 54/54/54 53/53/53 52/52/52
f 57/57/57 56/56/56 55/55/55
f 58/58/58 56/56/56 57/57/57
f 56/56/56 58/58/58 59/59/59
f 60/60/60 59/59/59 58/58/58
f 59/59/59 60/60/60 61/61/61
f 62/62/62 61/61/61 60/60/60
f 63/63/63 61/61/61 62/62/62
f 61/61/61 63/63/63 64/64/64
f 64/64/64 63/63/63 65/65/65
f 66/66/66 65/65/65 63/63/63
f 69/69/69 68/68/68 67/67/67
f 68/68/68 69/69/69 70/70/70
f 71/71/71 70/70/70 69/69/69
f 70/70/70 71/71/71 72/72/72
f 72/72/72 71/71/71 73/73/73
f 74/74/74 73/73/73 71/71/71
f 75/75/75 73/73/73 74/74/74
f 73/73/73 75/75/75 76/76/76
f 76/76/76 75/75/75 77/77/77
f 78/78/78 77/77/77 75/75/75
