# DragonNest Model Browser v1.0a

v -220.778198 788.269958 76.905350
v -297.665771 925.774231 28.828033
v -322.670532 743.818359 143.635605
v -297.665833 925.774292 28.828087
v -273.941101 905.895874 58.505188
v -253.161224 874.336548 74.844345
v -317.255707 931.680542 131.131714
v -288.098022 889.955200 153.823547
v -236.551422 836.003113 79.864685
v -264.281738 842.186829 160.896667
v -297.665771 925.774231 28.828033
v -356.837036 952.574036 78.820099
v -404.962097 885.988647 91.032707
v -378.862061 866.768555 123.703461
v -357.173553 832.907349 141.801376
v -340.194641 794.601868 146.090897
v -322.670532 743.818298 143.635620
v -246.622528 793.108887 157.129288
v -220.778198 788.269958 76.905350
v -340.194641 794.601868 146.090897
v -264.281738 842.186829 160.896713
v -357.173492 832.907349 141.801392
v -288.098022 889.955200 153.823547
v -378.862061 866.768555 123.703461
v -317.255707 931.680542 131.131714
v -404.962097 885.988647 91.032707
v -356.837036 952.574036 78.820099
v -322.670532 743.818359 143.635605
v -246.622528 793.108887 157.129288
v -220.778198 788.269958 76.905350
v -236.551453 836.003174 79.864700
v -253.161224 874.336548 74.844345
v -273.941101 905.895874 58.505188
v -297.665833 925.774292 28.828087

vn 0.917029 0.285781 0.278185
vn 0.513298 0.844089 0.155045
vn 0.118088 0.088567 -0.989046
vn -0.513298 -0.844089 -0.155046
vn 0.639640 0.752313 0.157754
vn 0.815301 0.515015 0.264656
vn 0.114656 0.775874 0.620382
vn 0.342069 0.476084 0.810143
vn 0.890691 0.355647 0.283170
vn 0.477492 0.244132 0.844038
vn 0.513298 0.844089 0.155045
vn -0.050377 0.898408 0.436263
vn -0.558959 0.478820 0.676976
vn -0.463063 0.349012 0.814717
vn -0.278258 0.128779 0.951834
vn -0.164964 -0.043414 0.985344
vn -0.122889 -0.100308 0.987338
vn 0.530430 0.121565 0.838967
vn 0.917029 0.285781 0.278185
vn 0.156422 0.045754 -0.986630
vn -0.478974 -0.239561 -0.844509
vn 0.278258 -0.128778 -0.951834
vn -0.342069 -0.476085 -0.810143
vn 0.463063 -0.349011 -0.814717
vn -0.114656 -0.775874 -0.620382
vn 0.558959 -0.478820 -0.676976
vn 0.050377 -0.898408 -0.436263
vn 0.118088 0.088567 -0.989046
vn -0.525512 -0.131013 -0.840638
vn -0.912846 -0.292066 -0.285323
vn -0.890729 -0.351200 -0.288548
vn -0.815302 -0.515015 -0.264656
vn -0.639640 -0.752313 -0.157754
vn -0.513298 -0.844089 -0.155046

vt 0.738281 0.609375
vt 0.775391 0.998047
vt 0.998047 0.609375
vt 0.775391 0.998047
vt 0.775391 0.906250
vt 0.738281 0.806641
vt 0.894531 0.904297
vt 0.888672 0.806641
vt 0.738281 0.707031
vt 0.880859 0.708984
vt 0.775391 0.998047
vt 0.886719 0.998047
vt 0.998047 0.998047
vt 0.998047 0.906250
vt 0.998047 0.806641
vt 0.998047 0.707031
vt 0.998047 0.609375
vt 0.878906 0.609375
vt 0.738281 0.609375
vt 0.998047 0.707031
vt 0.880859 0.708984
vt 0.998047 0.806641
vt 0.888672 0.806641
vt 0.998047 0.906250
vt 0.894531 0.904297
vt 0.998047 0.998047
vt 0.886719 0.998047
vt 0.998047 0.609375
vt 0.878906 0.609375
vt 0.738281 0.609375
vt 0.738281 0.707031
vt 0.738281 0.806641
vt 0.775391 0.906250
vt 0.775391 0.998047

g Object21
f 7/7/7 6/6/6 5/5/5
f 8/8/8 6/6/6 7/7/7
f 6/6/6 8/8/8 9/9/9
f 10/10/10 9/9/9 8/8/8
f 12/12/12 5/5/5 11/11/11
f 5/5/5 12/12/12 7/7/7
f 13/13/13 7/7/7 12/12/12
f 14/14/14 7/7/7 13/13/13
f 7/7/7 14/14/14 8/8/8
f 15/15/15 8/8/8 14/14/14
f 8/8/8 15/15/15 10/10/10
f 16/16/16 10/10/10 15/15/15
f 17/17/17 10/10/10 16/16/16
f 18/18/18 10/10/10 17/17/17
f 10/10/10 18/18/18 9/9/9
f 19/19/19 9/9/9 18/18/18
f 22/22/22 21/21/21 20/20/20
f 21/21/21 22/22/22 23/23/23
f 24/24/24 23/23/23 22/22/22
f 23/23/23 24/24/24 25/25/25
f 26/26/26 25/25/25 24/24/24
f 25/25/25 26/26/26 27/27/27
f 20/20/20 29/29/29 28/28/28
f 21/21/21 29/29/29 20/20/20
f 29/29/29 21/21/21 30/30/30
f 30/30/30 21/21/21 31/31/31
f 23/23/23 31/31/31 21/21/21
f 31/31/31 23/23/23 32/32/32
f 25/25/25 32/32/32 23/23/23
f 32/32/32 25/25/25 33/33/33
f 27/27/27 33/33/33 25/25/25
f 33/33/33 27/27/27 34/34/34
