# DragonNest Model Browser v1.0a

v -82.728470 645.013428 -257.121399
v -178.356125 800.849365 -359.059692
v -87.882324 801.722351 -357.815521
v -71.002289 701.853821 -191.884293
v -169.459808 666.911072 -118.734497
v -137.011932 762.776245 -209.206207
v -87.882324 801.722351 -357.815521
v -178.356125 800.849426 -359.059631
v -137.913605 785.246582 -326.031372
v -109.535339 751.027039 -298.444153
v -145.154175 866.451477 -248.720184
v -105.122772 821.146484 -211.816574
v -92.893372 705.092163 -276.700500
v -80.377121 763.181274 -185.166870
v -178.356125 800.849365 -359.059692
v -215.748291 877.484802 -299.220398
v -273.083374 827.587524 -225.968903
v -228.229950 813.364441 -191.229324
v -198.172668 777.158447 -160.792007
v -181.496307 730.748779 -139.974304
v -169.459808 666.911011 -118.734467
v -68.664139 700.515564 -166.382736
v -82.728470 645.013428 -257.121399
v -57.993771 786.343872 -215.632431
v -115.041595 785.284363 -238.408630
v -39.262810 803.042664 -253.721954
v -96.634506 802.058716 -276.659058
v -30.904804 807.395813 -295.094177
v -88.684021 805.901306 -316.821045
v -87.882324 801.722351 -357.815521
v -29.006554 803.471863 -337.323303
v -17.722107 743.966003 -347.777527
v -20.206573 747.152771 -304.298767
v -28.759476 742.032410 -261.620636
v -47.722374 725.284302 -223.628937
v -71.002289 701.853821 -191.884293
v -80.377098 763.181335 -185.166901
v -137.011932 762.776245 -209.206207
v -29.006554 803.471863 -337.323303
v -30.904804 807.395813 -295.094177
v -17.722107 743.966003 -347.777527
v -20.206535 747.152771 -304.298828
v -39.262787 803.042664 -253.722046
v -28.759487 742.032410 -261.620667
v -57.993771 786.343872 -215.632431
v -47.722374 725.284302 -223.628937
v -71.002289 701.853821 -191.884293
v -80.377098 763.181335 -185.166901
v -137.011932 762.776245 -209.206207
v -115.041565 785.284363 -238.408661
v -96.634491 802.058716 -276.659058
v -88.684021 805.901306 -316.821045
v -87.882324 801.722351 -357.815521
v -181.496307 730.748779 -139.974304
v -80.377090 763.181335 -185.166855
v -198.172592 777.158386 -160.791992
v -105.122772 821.146484 -211.816574
v -228.229950 813.364441 -191.229324
v -145.154175 866.451477 -248.720184
v -273.083374 827.587524 -225.968903
v -215.748291 877.484802 -299.220398
v -169.459808 666.911072 -118.734497
v -68.664139 700.515564 -166.382736
v -82.728470 645.013428 -257.121399
v -92.893410 705.092224 -276.700470
v -109.535339 751.027039 -298.444153
v -137.913605 785.246582 -326.031372
v -178.356125 800.849426 -359.059631

vn 0.973011 0.096285 -0.209709
vn 0.615445 0.649239 -0.446896
vn -0.005697 -0.994839 0.101302
vn -0.786302 -0.052771 -0.615584
vn -0.301652 -0.351719 -0.886171
vn -0.214099 0.844928 0.490162
vn 0.005697 0.994839 -0.101302
vn -0.615446 -0.649239 0.446895
vn 0.720846 0.534104 -0.441717
vn 0.899500 0.319698 -0.297813
vn 0.445598 0.890224 0.094570
vn 0.699323 0.639619 0.319115
vn 0.958652 0.166671 -0.230667
vn 0.811492 0.412285 0.414127
vn 0.615445 0.649239 -0.446896
vn 0.232019 0.970830 -0.060468
vn -0.168120 0.847822 0.502924
vn -0.037133 0.762239 0.646229
vn 0.164276 0.572126 0.803545
vn 0.262561 0.403026 0.876716
vn 0.295387 0.342196 0.891991
vn 0.844297 0.288335 0.451691
vn 0.973011 0.096285 -0.209709
vn 0.439904 0.646127 0.623702
vn -0.185260 0.887841 0.421210
vn 0.562789 0.734859 0.378485
vn -0.102559 0.972446 0.209359
vn 0.631004 0.769711 0.096841
vn -0.020451 0.999572 -0.020899
vn 0.005697 0.994839 -0.101302
vn 0.639708 0.767318 -0.044683
vn 0.984138 0.173401 0.037484
vn 0.980473 0.155658 0.120182
vn 0.929486 0.113244 0.351043
vn 0.827210 0.066077 0.557994
vn 0.786150 0.052058 0.615839
vn 0.402807 0.560701 0.723437
vn -0.214099 0.844928 0.490162
vn -0.639708 -0.767318 0.044683
vn -0.631004 -0.769711 -0.096841
vn -0.984138 -0.173402 -0.037484
vn -0.980473 -0.155659 -0.120182
vn -0.562789 -0.734859 -0.378485
vn -0.929486 -0.113243 -0.351043
vn -0.439523 -0.645997 -0.624105
vn -0.826881 -0.066365 -0.558448
vn -0.786302 -0.052771 -0.615584
vn -0.403188 -0.561542 -0.722571
vn 0.212348 -0.845539 -0.489870
vn 0.184784 -0.887413 -0.422320
vn 0.102559 -0.972446 -0.209359
vn 0.020451 -0.999572 0.020899
vn -0.005697 -0.994839 0.101302
vn -0.270555 -0.399048 -0.876106
vn -0.812550 -0.408068 -0.416225
vn -0.164276 -0.572126 -0.803545
vn -0.699323 -0.639619 -0.319115
vn 0.037133 -0.762239 -0.646229
vn -0.445598 -0.890224 -0.094570
vn 0.168120 -0.847822 -0.502924
vn -0.232019 -0.970830 0.060468
vn -0.301652 -0.351719 -0.886171
vn -0.841554 -0.298642 -0.450111
vn -0.972908 -0.105809 0.205558
vn -0.960493 -0.164936 0.224163
vn -0.899500 -0.319698 0.297813
vn -0.720847 -0.534104 0.441717
vn -0.615446 -0.649239 0.446895

vt 0.738281 0.609375
vt 0.775391 0.998047
vt 0.775391 0.998047
vt 0.998047 0.609375
vt 0.998047 0.609375
vt 0.759766 0.609375
vt 0.775391 0.998047
vt 0.775391 0.998047
vt 0.775391 0.906250
vt 0.738281 0.806641
vt 0.894531 0.904297
vt 0.888672 0.806641
vt 0.738281 0.707031
vt 0.880859 0.708984
vt 0.775391 0.998047
vt 0.886719 0.998047
vt 0.998047 0.998047
vt 0.998047 0.906250
vt 0.998047 0.806641
vt 0.998047 0.707031
vt 0.998047 0.609375
vt 0.878906 0.609375
vt 0.738281 0.609375
vt 0.882813 0.708984
vt 0.738281 0.707031
vt 0.886719 0.806641
vt 0.738281 0.806641
vt 0.898438 0.904297
vt 0.775391 0.906250
vt 0.775391 0.998047
vt 0.900391 0.998047
vt 0.998047 0.998047
vt 0.998047 0.906250
vt 0.998047 0.806641
vt 0.998047 0.707031
vt 0.998047 0.609375
vt 0.880859 0.609375
vt 0.759766 0.609375
vt 0.900391 0.998047
vt 0.898438 0.904297
vt 0.998047 0.998047
vt 0.998047 0.906250
vt 0.886719 0.806641
vt 0.998047 0.806641
vt 0.882813 0.708984
vt 0.998047 0.707031
vt 0.998047 0.609375
vt 0.880859 0.609375
vt 0.759766 0.609375
vt 0.738281 0.707031
vt 0.738281 0.806641
vt 0.775391 0.906250
vt 0.775391 0.998047
vt 0.998047 0.707031
vt 0.880859 0.708984
vt 0.998047 0.806641
vt 0.888672 0.806641
vt 0.998047 0.906250
vt 0.894531 0.904297
vt 0.998047 0.998047
vt 0.886719 0.998047
vt 0.998047 0.609375
vt 0.878906 0.609375
vt 0.738281 0.609375
vt 0.738281 0.707031
vt 0.738281 0.806641
vt 0.775391 0.906250
vt 0.775391 0.998047

g Object45
f 11/11/11 10/10/10 9/9/9
f 12/12/12 10/10/10 11/11/11
f 10/10/10 12/12/12 13/13/13
f 14/14/14 13/13/13 12/12/12
f 16/16/16 9/9/9 15/15/15
f 9/9/9 16/16/16 11/11/11
f 17/17/17 11/11/11 16/16/16
f 18/18/18 11/11/11 17/17/17
f 11/11/11 18/18/18 12/12/12
f 19/19/19 12/12/12 18/18/18
f 12/12/12 19/19/19 14/14/14
f 20/20/20 14/14/14 19/19/19
f 21/21/21 14/14/14 20/20/20
f 22/22/22 14/14/14 21/21/21
f 14/14/14 22/22/22 13/13/13
f 23/23/23 13/13/13 22/22/22
f 26/26/26 25/25/25 24/24/24
f 25/25/25 26/26/26 27/27/27
f 28/28/28 27/27/27 26/26/26
f 27/27/27 28/28/28 29/29/29
f 29/29/29 31/31/31 30/30/30
f 28/28/28 31/31/31 29/29/29
f 31/31/31 28/28/28 32/32/32
f 32/32/32 28/28/28 33/33/33
f 26/26/26 33/33/33 28/28/28
f 33/33/33 26/26/26 34/34/34
f 24/24/24 34/34/34 26/26/26
f 34/34/34 24/24/24 35/35/35
f 35/35/35 24/24/24 36/36/36
f 36/36/36 24/24/24 37/37/37
f 25/25/25 37/37/37 24/24/24
f 37/37/37 25/25/25 38/38/38
f 41/41/41 40/40/40 39/39/39
f 42/42/42 40/40/40 41/41/41
f 40/40/40 42/42/42 43/43/43
f 44/44/44 43/43/43 42/42/42
f 43/43/43 44/44/44 45/45/45
f 46/46/46 45/45/45 44/44/44
f 48/48/48 46/46/46 47/47/47
f 46/46/46 48/48/48 45/45/45
f 49/49/49 45/45/45 48/48/48
f 50/50/50 45/45/45 49/49/49
f 45/45/45 50/50/50 43/43/43
f 51/51/51 43/43/43 50/50/50
f 43/43/43 51/51/51 40/40/40
f 52/52/52 40/40/40 51/51/51
f 40/40/40 52/52/52 39/39/39
f 53/53/53 39/39/39 52/52/52
f 56/56/56 55/55/55 54/54/54
f 55/55/55 56/56/56 57/57/57
f 58/58/58 57/57/57 56/56/56
f 57/57/57 58/58/58 59/59/59
f 60/60/60 59/59/59 58/58/58
f 59/59/59 60/60/60 61/61/61
f 54/54/54 63/63/63 62/62/62
f 55/55/55 63/63/63 54/54/54
f 63/63/63 55/55/55 64/64/64
f 64/64/64 55/55/55 65/65/65
f 57/57/57 65/65/65 55/55/55
f 65/65/65 57/57/57 66/66/66
f 59/59/59 66/66/66 57/57/57
f 66/66/66 59/59/59 67/67/67
f 61/61/61 67/67/67 59/59/59
f 67/67/67 61/61/61 68/68/68
