# DragonNest Model Browser v1.0a

v -240.517899 742.057556 119.416214
v -133.874786 802.398743 86.358078
v -219.530273 723.864380 185.823151
v -133.874802 802.398743 86.358063
v -220.903473 788.799744 160.228210
v -220.029266 768.717896 116.265381
v -193.629181 811.175354 153.629776
v -192.748627 791.038269 109.381577
v -163.719833 821.530640 143.003769
v -163.660828 800.767517 99.078354
v -133.874786 802.398743 86.358078
v -132.846588 823.878052 130.466705
v -107.512665 788.682007 151.872574
v -139.225296 785.482117 164.701172
v -169.901016 774.397034 175.896194
v -197.156769 751.909668 182.327606
v -219.530273 723.864380 185.823181
v -242.215561 761.408020 163.760406
v -240.517899 742.057556 119.416214
v -132.846603 823.878052 130.466675
v -163.719818 821.530640 143.003754
v -107.512665 788.681946 151.872574
v -139.225250 785.482178 164.701157
v -193.629120 811.175354 153.629761
v -169.900986 774.397034 175.896149
v -220.903473 788.799744 160.228210
v -197.156769 751.909668 182.327591
v -219.530273 723.864380 185.823151
v -242.215576 761.408020 163.760406
v -240.517899 742.057556 119.416199
v -220.029236 768.717896 116.265366
v -192.748611 791.038269 109.381577
v -163.660858 800.767517 99.078331
v -133.874802 802.398743 86.358063

vn -0.777540 0.564895 -0.276270
vn -0.228248 0.877417 -0.421950
vn 0.294249 -0.345793 -0.890980
vn 0.228248 -0.877417 0.421950
vn -0.609706 0.691307 0.387753
vn -0.720588 0.624910 -0.300401
vn -0.379737 0.859233 0.342810
vn -0.532427 0.765537 -0.361212
vn -0.118804 0.958809 0.258013
vn -0.309723 0.858482 -0.408754
vn -0.228248 0.877417 -0.421950
vn 0.010029 0.979255 0.202386
vn 0.245185 0.620621 0.744791
vn 0.176537 0.592783 0.785775
vn -0.031224 0.501551 0.864565
vn -0.233730 0.384526 0.893034
vn -0.294297 0.345069 0.891244
vn -0.683011 0.586502 0.435329
vn -0.777540 0.564895 -0.276270
vn -0.010029 -0.979255 -0.202385
vn 0.118804 -0.958809 -0.258013
vn -0.245185 -0.620621 -0.744791
vn -0.176537 -0.592783 -0.785775
vn 0.379736 -0.859233 -0.342810
vn 0.031224 -0.501550 -0.864565
vn 0.610150 -0.690958 -0.387677
vn 0.234335 -0.384558 -0.892862
vn 0.294249 -0.345793 -0.890980
vn 0.682387 -0.587527 -0.434925
vn 0.776884 -0.566308 0.275221
vn 0.721270 -0.624626 0.299353
vn 0.532427 -0.765537 0.361211
vn 0.309723 -0.858482 0.408754
vn 0.228248 -0.877417 0.421950

vt 0.759766 0.609375
vt 0.775391 0.998047
vt 0.998047 0.609375
vt 0.775391 0.998047
vt 0.882813 0.708984
vt 0.738281 0.707031
vt 0.886719 0.806641
vt 0.738281 0.806641
vt 0.898438 0.904297
vt 0.775391 0.906250
vt 0.775391 0.998047
vt 0.900391 0.998047
vt 0.998047 0.998047
vt 0.998047 0.906250
vt 0.998047 0.806641
vt 0.998047 0.707031
vt 0.998047 0.609375
vt 0.880859 0.609375
vt 0.759766 0.609375
vt 0.900391 0.998047
vt 0.898438 0.904297
vt 0.998047 0.998047
vt 0.998047 0.906250
vt 0.886719 0.806641
vt 0.998047 0.806641
vt 0.882813 0.708984
vt 0.998047 0.707031
vt 0.998047 0.609375
vt 0.880859 0.609375
vt 0.759766 0.609375
vt 0.738281 0.707031
vt 0.738281 0.806641
vt 0.775391 0.906250
vt 0.775391 0.998047

g Object46
f 7/7/7 6/6/6 5/5/5
f 6/6/6 7/7/7 8/8/8
f 9/9/9 8/8/8 7/7/7
f 8/8/8 9/9/9 10/10/10
f 10/10/10 12/12/12 11/11/11
f 9/9/9 12/12/12 10/10/10
f 12/12/12 9/9/9 13/13/13
f 13/13/13 9/9/9 14/14/14
f 7/7/7 14/14/14 9/9/9
f 14/14/14 7/7/7 15/15/15
f 5/5/5 15/15/15 7/7/7
f 15/15/15 5/5/5 16/16/16
f 16/16/16 5/5/5 17/17/17
f 17/17/17 5/5/5 18/18/18
f 6/6/6 18/18/18 5/5/5
f 18/18/18 6/6/6 19/19/19
f 22/22/22 21/21/21 20/20/20
f 23/23/23 21/21/21 22/22/22
f 21/21/21 23/23/23 24/24/24
f 25/25/25 24/24/24 23/23/23
f 24/24/24 25/25/25 26/26/26
f 27/27/27 26/26/26 25/25/25
f 29/29/29 27/27/27 28/28/28
f 27/27/27 29/29/29 26/26/26
f 30/30/30 26/26/26 29/29/29
f 31/31/31 26/26/26 30/30/30
f 26/26/26 31/31/31 24/24/24
f 32/32/32 24/24/24 31/31/31
f 24/24/24 32/32/32 21/21/21
f 33/33/33 21/21/21 32/32/32
f 21/21/21 33/33/33 20/20/20
f 34/34/34 20/20/20 33/33/33
