# DragonNest Model Browser v1.0a

v 308.747345 574.791199 -124.529053
v 309.238739 556.754883 -22.870514
v 309.238739 556.754883 -22.870514
v 235.796936 569.538391 -126.645752
v 271.494843 612.431152 -105.531540
v 308.374237 585.501038 -100.590729
v 270.827759 615.840027 -74.682159
v 307.575439 590.216858 -71.458771
v 271.962769 600.342529 -46.653900
v 308.032776 575.721985 -44.278915
v 309.238739 556.754883 -22.870514
v 273.930542 581.580994 -24.290131
v 238.472534 556.915466 -19.810394
v 235.764374 575.451355 -43.123260
v 234.468262 591.233887 -71.757782
v 234.796112 589.093445 -102.739349
v 235.796997 569.538391 -126.645752
v 272.084320 598.093506 -130.071259
v 308.747345 574.791199 -124.529053
v 273.930603 581.580933 -24.290146
v 271.962860 600.342529 -46.653824
v 238.472534 556.915466 -19.810394
v 235.764343 575.451233 -43.123199
v 270.827850 615.840027 -74.682190
v 234.468262 591.233887 -71.757690
v 271.494904 612.431274 -105.531555
v 234.796143 589.093384 -102.739319
v 235.796936 569.538391 -126.645752
v 272.084351 598.093506 -130.071350
v 308.747345 574.791199 -124.529053
v 308.374237 585.501038 -100.590729
v 307.575439 590.216858 -71.458771
v 308.032776 575.721985 -44.278854
v 309.238739 556.754883 -22.870514

vn 0.540834 0.770901 -0.336467
vn 0.454457 0.679288 0.576226
vn -0.454457 -0.679288 -0.576227
vn 0.550626 -0.634681 0.542209
vn 0.019123 0.949954 -0.311804
vn 0.572362 0.784483 -0.238719
vn 0.002183 0.986578 0.163279
vn 0.552635 0.815468 0.172067
vn 0.010761 0.838057 0.545477
vn 0.470981 0.721793 0.507140
vn 0.454457 0.679288 0.576226
vn 0.034814 0.762749 0.645756
vn -0.409104 0.686832 0.600746
vn -0.442132 0.719244 0.535917
vn -0.528882 0.821337 0.213750
vn -0.522001 0.779395 -0.346495
vn -0.517056 0.683777 -0.514881
vn -0.024019 0.871410 -0.489967
vn 0.540834 0.770901 -0.336467
vn -0.034816 -0.762748 -0.645758
vn -0.010762 -0.838057 -0.545477
vn 0.409103 -0.686832 -0.600746
vn 0.442131 -0.719244 -0.535917
vn -0.002185 -0.986577 -0.163280
vn 0.528881 -0.821337 -0.213753
vn -0.024022 -0.956280 0.291464
vn 0.553336 -0.772832 0.310723
vn 0.550626 -0.634681 0.542209
vn 0.005079 -0.847565 0.530667
vn -0.567288 -0.741878 0.357493
vn -0.588344 -0.778481 0.218675
vn -0.552636 -0.815467 -0.172066
vn -0.470981 -0.721793 -0.507141
vn -0.454457 -0.679288 -0.576227

vt 2.757813 0.601563
vt 2.757813 0.304688
vt 2.757813 0.304688
vt 2.996094 0.601563
vt 2.884766 0.523438
vt 2.757813 0.523438
vt 2.884766 0.449219
vt 2.757813 0.449219
vt 2.884766 0.373047
vt 2.757813 0.373047
vt 2.757813 0.304688
vt 2.884766 0.304688
vt 2.996094 0.304688
vt 2.996094 0.373698
vt 2.996094 0.449219
vt 2.996094 0.523438
vt 2.996094 0.601563
vt 2.884766 0.601563
vt 2.757813 0.601563
vt 2.884766 0.304688
vt 2.884766 0.373047
vt 2.996094 0.304688
vt 2.996094 0.373698
vt 2.884766 0.449219
vt 2.996094 0.449219
vt 2.884766 0.523438
vt 2.996094 0.523438
vt 2.996094 0.601563
vt 2.884766 0.601563
vt 2.757813 0.601563
vt 2.757813 0.523438
vt 2.757813 0.449219
vt 2.757813 0.373047
vt 2.757813 0.304688

g Object20
f 7/7/7 6/6/6 5/5/5
f 6/6/6 7/7/7 8/8/8
f 9/9/9 8/8/8 7/7/7
f 8/8/8 9/9/9 10/10/10
f 10/10/10 12/12/12 11/11/11
f 9/9/9 12/12/12 10/10/10
f 12/12/12 9/9/9 13/13/13
f 13/13/13 9/9/9 14/14/14
f 7/7/7 14/14/14 9/9/9
f 14/14/14 7/7/7 15/15/15
f 5/5/5 15/15/15 7/7/7
f 15/15/15 5/5/5 16/16/16
f 16/16/16 5/5/5 17/17/17
f 17/17/17 5/5/5 18/18/18
f 6/6/6 18/18/18 5/5/5
f 18/18/18 6/6/6 19/19/19
f 22/22/22 21/21/21 20/20/20
f 23/23/23 21/21/21 22/22/22
f 21/21/21 23/23/23 24/24/24
f 25/25/25 24/24/24 23/23/23
f 24/24/24 25/25/25 26/26/26
f 27/27/27 26/26/26 25/25/25
f 29/29/29 27/27/27 28/28/28
f 27/27/27 29/29/29 26/26/26
f 30/30/30 26/26/26 29/29/29
f 31/31/31 26/26/26 30/30/30
f 26/26/26 31/31/31 24/24/24
f 32/32/32 24/24/24 31/31/31
f 24/24/24 32/32/32 21/21/21
f 33/33/33 21/21/21 32/32/32
f 21/21/21 33/33/33 20/20/20
f 34/34/34 20/20/20 33/33/33
