# DragonNest Model Browser v1.0a

v -13.630272 580.645569 -195.956955
v -50.770176 604.058838 -400.635620
v 10.699745 658.960083 -363.284332
v -64.171310 650.847778 -184.062820
v -172.701080 590.890991 -154.192352
v -113.700150 650.425537 -260.975616
v 10.699745 658.960083 -363.284332
v -50.770233 604.058899 -400.635681
v -41.137642 627.646179 -352.461304
v -31.397247 628.620605 -301.065460
v -119.189499 708.396790 -355.766968
v -104.849838 711.276794 -286.463226
v -22.818569 612.096802 -250.934387
v -90.902893 692.393311 -222.187119
v -50.770176 604.058838 -400.635620
v -136.685333 657.730774 -424.921783
v -213.029099 611.334900 -368.691101
v -201.857635 639.124573 -318.452698
v -192.373688 640.587952 -263.238037
v -183.023880 623.430359 -213.402985
v -172.701111 590.890991 -154.192322
v -79.444618 659.706116 -165.465958
v -13.630272 580.645569 -195.956955
v -60.779625 712.583557 -247.694199
v -84.548233 670.309204 -285.407104
v -26.373001 723.342407 -275.639587
v -50.276081 680.877258 -313.638885
v 6.245285 717.801086 -302.206635
v -18.626457 675.120483 -339.253754
v 10.699745 658.960083 -363.284332
v 37.098373 702.071167 -326.761780
v 67.208237 661.758240 -291.465332
v 35.294411 677.013489 -265.862213
v 1.855545 682.309570 -238.030823
v -32.632664 671.344238 -210.213852
v -64.171310 650.847778 -184.062820
v -90.902885 692.393372 -222.187164
v -113.700150 650.425537 -260.975616
v 37.098373 702.071167 -326.761780
v 6.245285 717.801086 -302.206635
v 67.208237 661.758240 -291.465332
v 35.294479 677.013489 -265.862244
v -26.372925 723.342346 -275.639618
v 1.855568 682.309509 -238.030869
v -60.779625 712.583557 -247.694199
v -32.632664 671.344238 -210.213852
v -64.171310 650.847778 -184.062820
v -90.902885 692.393372 -222.187164
v -113.700150 650.425537 -260.975616
v -84.548187 670.309204 -285.407104
v -50.276058 680.877258 -313.638885
v -18.626457 675.120483 -339.253754
v 10.699745 658.960083 -363.284332
v -183.023880 623.430359 -213.402985
v -90.902901 692.393372 -222.187119
v -192.373627 640.587952 -263.237946
v -104.849838 711.276794 -286.463226
v -201.857635 639.124573 -318.452698
v -119.189499 708.396790 -355.766968
v -213.029099 611.334900 -368.691101
v -136.685333 657.730774 -424.921783
v -172.701080 590.890991 -154.192352
v -79.444618 659.706116 -165.465958
v -13.630272 580.645569 -195.956955
v -22.818623 612.096863 -250.934448
v -31.397247 628.620605 -301.065460
v -41.137642 627.646179 -352.461304
v -50.770233 604.058899 -400.635681

vn 0.789572 0.580172 0.199942
vn 0.561030 0.693631 -0.451798
vn 0.182495 -0.698203 0.692248
vn -0.113990 -0.710533 -0.694369
vn 0.480433 -0.730565 -0.485242
vn -0.695680 0.653525 -0.298218
vn -0.182495 0.698203 -0.692248
vn -0.561030 -0.693632 0.451797
vn 0.659881 0.673785 -0.332521
vn 0.741056 0.670808 -0.029211
vn 0.016004 0.948315 -0.316928
vn 0.103850 0.990226 0.093104
vn 0.775775 0.616217 0.135832
vn 0.175422 0.922017 0.345126
vn 0.561030 0.693631 -0.451798
vn -0.047507 0.828856 -0.557441
vn -0.673266 0.687238 -0.272796
vn -0.657638 0.750008 -0.070721
vn -0.576022 0.782801 0.235417
vn -0.514208 0.741730 0.430611
vn -0.486256 0.721791 0.492517
vn 0.204470 0.863235 0.461538
vn 0.789572 0.580172 0.199942
vn -0.282944 0.941468 0.183251
vn -0.640148 0.679270 -0.358890
vn -0.055041 0.998354 0.016132
vn -0.461507 0.720269 -0.517903
vn 0.173497 0.971188 -0.163380
vn -0.256113 0.712735 -0.653004
vn -0.182495 0.698203 -0.692248
vn 0.275759 0.927741 -0.251502
vn 0.610467 0.725129 0.318620
vn 0.556598 0.737348 0.382775
vn 0.376223 0.752411 0.540679
vn 0.177772 0.725549 0.664813
vn 0.113895 0.710005 0.694925
vn -0.354093 0.889877 0.287641
vn -0.695680 0.653525 -0.298218
vn -0.275759 -0.927741 0.251502
vn -0.173496 -0.971188 0.163380
vn -0.610467 -0.725129 -0.318619
vn -0.556598 -0.737348 -0.382775
vn 0.055040 -0.998354 -0.016132
vn -0.376223 -0.752411 -0.540679
vn 0.283447 -0.941279 -0.183443
vn -0.177163 -0.725714 -0.664795
vn -0.113990 -0.710533 -0.694369
vn 0.353461 -0.890433 -0.286696
vn 0.694429 -0.654918 0.298079
vn 0.640459 -0.679608 0.357693
vn 0.461508 -0.720269 0.517902
vn 0.256113 -0.712735 0.653004
vn 0.182495 -0.698203 0.692248
vn 0.507251 -0.743373 -0.435997
vn -0.175816 -0.920254 -0.349603
vn 0.576022 -0.782801 -0.235417
vn -0.103850 -0.990226 -0.093104
vn 0.657638 -0.750008 0.070720
vn -0.016004 -0.948315 0.316928
vn 0.673266 -0.687238 0.272796
vn 0.047507 -0.828857 0.557441
vn 0.480433 -0.730565 -0.485242
vn -0.201001 -0.868625 -0.452868
vn -0.784255 -0.588458 -0.196623
vn -0.773097 -0.618196 -0.141965
vn -0.741056 -0.670808 0.029210
vn -0.659881 -0.673786 0.332521
vn -0.561030 -0.693632 0.451797

vt 0.738281 0.609375
vt 0.775391 0.998047
vt 0.775391 0.998047
vt 0.998047 0.609375
vt 0.998047 0.609375
vt 0.759766 0.609375
vt 0.775391 0.998047
vt 0.775391 0.998047
vt 0.775391 0.906250
vt 0.738281 0.806641
vt 0.894531 0.904297
vt 0.888672 0.806641
vt 0.738281 0.707031
vt 0.880859 0.708984
vt 0.775391 0.998047
vt 0.886719 0.998047
vt 0.998047 0.998047
vt 0.998047 0.906250
vt 0.998047 0.806641
vt 0.998047 0.707031
vt 0.998047 0.609375
vt 0.878906 0.609375
vt 0.738281 0.609375
vt 0.882813 0.708984
vt 0.738281 0.707031
vt 0.886719 0.806641
vt 0.738281 0.806641
vt 0.898438 0.904297
vt 0.775391 0.906250
vt 0.775391 0.998047
vt 0.900391 0.998047
vt 0.998047 0.998047
vt 0.998047 0.906250
vt 0.998047 0.806641
vt 0.998047 0.707031
vt 0.998047 0.609375
vt 0.880859 0.609375
vt 0.759766 0.609375
vt 0.900391 0.998047
vt 0.898438 0.904297
vt 0.998047 0.998047
vt 0.998047 0.906250
vt 0.886719 0.806641
vt 0.998047 0.806641
vt 0.882813 0.708984
vt 0.998047 0.707031
vt 0.998047 0.609375
vt 0.880859 0.609375
vt 0.759766 0.609375
vt 0.738281 0.707031
vt 0.738281 0.806641
vt 0.775391 0.906250
vt 0.775391 0.998047
vt 0.998047 0.707031
vt 0.880859 0.708984
vt 0.998047 0.806641
vt 0.888672 0.806641
vt 0.998047 0.906250
vt 0.894531 0.904297
vt 0.998047 0.998047
vt 0.886719 0.998047
vt 0.998047 0.609375
vt 0.878906 0.609375
vt 0.738281 0.609375
vt 0.738281 0.707031
vt 0.738281 0.806641
vt 0.775391 0.906250
vt 0.775391 0.998047

g Object44
f 11/11/11 10/10/10 9/9/9
f 12/12/12 10/10/10 11/11/11
f 10/10/10 12/12/12 13/13/13
f 14/14/14 13/13/13 12/12/12
f 16/16/16 9/9/9 15/15/15
f 9/9/9 16/16/16 11/11/11
f 17/17/17 11/11/11 16/16/16
f 18/18/18 11/11/11 17/17/17
f 11/11/11 18/18/18 12/12/12
f 19/19/19 12/12/12 18/18/18
f 12/12/12 19/19/19 14/14/14
f 20/20/20 14/14/14 19/19/19
f 21/21/21 14/14/14 20/20/20
f 22/22/22 14/14/14 21/21/21
f 14/14/14 22/22/22 13/13/13
f 23/23/23 13/13/13 22/22/22
f 26/26/26 25/25/25 24/24/24
f 25/25/25 26/26/26 27/27/27
f 28/28/28 27/27/27 26/26/26
f 27/27/27 28/28/28 29/29/29
f 29/29/29 31/31/31 30/30/30
f 28/28/28 31/31/31 29/29/29
f 31/31/31 28/28/28 32/32/32
f 32/32/32 28/28/28 33/33/33
f 26/26/26 33/33/33 28/28/28
f 33/33/33 26/26/26 34/34/34
f 24/24/24 34/34/34 26/26/26
f 34/34/34 24/24/24 35/35/35
f 35/35/35 24/24/24 36/36/36
f 36/36/36 24/24/24 37/37/37
f 25/25/25 37/37/37 24/24/24
f 37/37/37 25/25/25 38/38/38
f 41/41/41 40/40/40 39/39/39
f 42/42/42 40/40/40 41/41/41
f 40/40/40 42/42/42 43/43/43
f 44/44/44 43/43/43 42/42/42
f 43/43/43 44/44/44 45/45/45
f 46/46/46 45/45/45 44/44/44
f 48/48/48 46/46/46 47/47/47
f 46/46/46 48/48/48 45/45/45
f 49/49/49 45/45/45 48/48/48
f 50/50/50 45/45/45 49/49/49
f 45/45/45 50/50/50 43/43/43
f 51/51/51 43/43/43 50/50/50
f 43/43/43 51/51/51 40/40/40
f 52/52/52 40/40/40 51/51/51
f 40/40/40 52/52/52 39/39/39
f 53/53/53 39/39/39 52/52/52
f 56/56/56 55/55/55 54/54/54
f 55/55/55 56/56/56 57/57/57
f 58/58/58 57/57/57 56/56/56
f 57/57/57 58/58/58 59/59/59
f 60/60/60 59/59/59 58/58/58
f 59/59/59 60/60/60 61/61/61
f 54/54/54 63/63/63 62/62/62
f 55/55/55 63/63/63 54/54/54
f 63/63/63 55/55/55 64/64/64
f 64/64/64 55/55/55 65/65/65
f 57/57/57 65/65/65 55/55/55
f 65/65/65 57/57/57 66/66/66
f 59/59/59 66/66/66 57/57/57
f 66/66/66 59/59/59 67/67/67
f 61/61/61 67/67/67 59/59/59
f 67/67/67 61/61/61 68/68/68
