# DragonNest Model Browser v1.0a

v -199.557343 484.584412 -97.464760
v -97.275269 519.203003 -118.619843
v -256.274719 487.266846 -165.402344
v -97.275269 519.203003 -118.619843
v -121.510796 529.433472 -114.063286
v -151.932617 526.674805 -107.970840
v -142.156525 567.088135 -147.187134
v -178.277344 562.462524 -139.843536
v -180.550003 509.471802 -101.865463
v -211.425369 543.634644 -132.950714
v -97.275269 519.203003 -118.619843
v -108.295731 559.957520 -153.993271
v -100.498505 540.063293 -197.667313
v -144.047531 544.048584 -189.300934
v -185.962967 537.516235 -180.904999
v -223.583374 517.097046 -172.830505
v -256.274719 487.266846 -165.402344
v -237.354294 516.234375 -127.447670
v -199.557343 484.584412 -97.464760
v -223.583374 517.097046 -172.830505
v -211.425369 543.634644 -132.950714
v -185.962967 537.516235 -180.904999
v -178.277405 562.462402 -139.843536
v -144.047531 544.048584 -189.300934
v -142.156525 567.088135 -147.187134
v -100.498505 540.063293 -197.667313
v -108.295731 559.957520 -153.993271
v -256.274719 487.266846 -165.402344
v -237.354294 516.234375 -127.447670
v -199.557343 484.584412 -97.464760
v -180.550003 509.471802 -101.865463
v -151.932617 526.674805 -107.970840
v -121.510796 529.433472 -114.063286
v -97.275269 519.203003 -118.619843

vn -0.334658 0.405963 0.850410
vn 0.398418 0.660294 0.636613
vn 0.684920 -0.702183 0.194483
vn -0.398418 -0.660294 -0.636613
vn 0.253632 0.688040 0.679906
vn -0.042140 0.642326 0.765272
vn 0.037238 0.989513 0.139559
vn -0.272743 0.939617 0.206716
vn -0.255746 0.502417 0.825936
vn -0.520777 0.796781 0.306482
vn 0.398418 0.660294 0.636613
vn 0.245937 0.962754 0.112341
vn 0.036994 0.893391 -0.447754
vn -0.108201 0.872004 -0.477390
vn -0.384965 0.820729 -0.422146
vn -0.617695 0.728421 -0.296405
vn -0.704546 0.679126 -0.205919
vn -0.660968 0.676972 0.323774
vn -0.334658 0.405963 0.850410
vn 0.632378 -0.727018 0.267476
vn 0.530156 -0.789365 -0.309577
vn 0.384964 -0.820729 0.422145
vn 0.272743 -0.939617 -0.206716
vn 0.108201 -0.872004 0.477390
vn -0.037237 -0.989513 -0.139559
vn -0.036994 -0.893391 0.447754
vn -0.245937 -0.962754 -0.112341
vn 0.684920 -0.702183 0.194483
vn 0.648835 -0.701553 -0.294682
vn 0.336967 -0.434289 -0.835372
vn 0.275168 -0.501734 -0.820089
vn 0.042141 -0.642326 -0.765272
vn -0.253632 -0.688040 -0.679906
vn -0.398418 -0.660294 -0.636613

vt 2.757813 0.601563
vt 2.757813 0.304688
vt 2.996094 0.601563
vt 2.757813 0.304688
vt 2.757813 0.373047
vt 2.757813 0.449219
vt 2.884766 0.373047
vt 2.884766 0.449219
vt 2.757813 0.523438
vt 2.884766 0.523438
vt 2.757813 0.304688
vt 2.884766 0.304688
vt 2.996094 0.304688
vt 2.996094 0.373698
vt 2.996094 0.449219
vt 2.996094 0.523438
vt 2.996094 0.601563
vt 2.884766 0.601563
vt 2.757813 0.601563
vt 2.996094 0.523438
vt 2.884766 0.523438
vt 2.996094 0.449219
vt 2.884766 0.449219
vt 2.996094 0.373698
vt 2.884766 0.373047
vt 2.996094 0.304688
vt 2.884766 0.304688
vt 2.996094 0.601563
vt 2.884766 0.601563
vt 2.757813 0.601563
vt 2.757813 0.523438
vt 2.757813 0.449219
vt 2.757813 0.373047
vt 2.757813 0.304688

g Object33
f 7/7/7 6/6/6 5/5/5
f 8/8/8 6/6/6 7/7/7
f 6/6/6 8/8/8 9/9/9
f 10/10/10 9/9/9 8/8/8
f 12/12/12 5/5/5 11/11/11
f 5/5/5 12/12/12 7/7/7
f 13/13/13 7/7/7 12/12/12
f 14/14/14 7/7/7 13/13/13
f 7/7/7 14/14/14 8/8/8
f 15/15/15 8/8/8 14/14/14
f 8/8/8 15/15/15 10/10/10
f 16/16/16 10/10/10 15/15/15
f 17/17/17 10/10/10 16/16/16
f 18/18/18 10/10/10 17/17/17
f 10/10/10 18/18/18 9/9/9
f 19/19/19 9/9/9 18/18/18
f 22/22/22 21/21/21 20/20/20
f 21/21/21 22/22/22 23/23/23
f 24/24/24 23/23/23 22/22/22
f 23/23/23 24/24/24 25/25/25
f 26/26/26 25/25/25 24/24/24
f 25/25/25 26/26/26 27/27/27
f 20/20/20 29/29/29 28/28/28
f 21/21/21 29/29/29 20/20/20
f 29/29/29 21/21/21 30/30/30
f 30/30/30 21/21/21 31/31/31
f 23/23/23 31/31/31 21/21/21
f 31/31/31 23/23/23 32/32/32
f 25/25/25 32/32/32 23/23/23
f 32/32/32 25/25/25 33/33/33
f 27/27/27 33/33/33 25/25/25
f 33/33/33 27/27/27 34/34/34
